<svg width="59" height="88" viewBox="0 0 59 88" fill="none" xmlns="http://www.w3.org/2000/svg">
<g clip-path="url(#clip0_298_8)">
<path d="M36.6499 87.9999H22.009V81.8378C21.3672 81.7972 20.8904 81.7418 20.4137 81.7418C17.6006 81.7345 14.784 81.7086 11.9709 81.7566C11.1567 81.7714 10.6359 81.5426 10.4159 80.7382C10.4049 80.6976 10.3829 80.6607 10.3609 80.6275C8.25204 77.2549 7.50752 73.613 7.78259 69.6243C8.01364 66.2738 7.8266 62.8976 7.83393 59.5324C7.83393 59.0933 7.87061 58.6506 7.89628 58.0749H12.7191C12.7191 56.7982 12.8181 55.647 12.6714 54.5326C12.6128 54.0788 12.0773 53.6176 11.6555 53.2892C6.39992 49.1712 2.86806 43.9058 1.06729 37.4485C-3.5795 20.7628 7.40483 3.29494 24.3489 0.435286C40.5669 -2.29892 55.6589 8.06227 58.4682 24.2978C60.4524 35.7733 56.8692 45.5146 47.8397 52.9977C46.7687 53.8869 46.2479 54.7282 46.424 56.0787C46.501 56.6728 46.4386 57.289 46.4386 58.0971H50.7077C50.7297 58.5435 50.7664 58.9347 50.7664 59.3258C50.77 64.2924 50.8434 69.259 50.715 74.2219C50.682 75.4653 50.0402 76.7125 49.5817 77.9191C49.105 79.1774 48.8189 80.8526 47.8763 81.4872C46.9338 82.1219 45.2834 81.7197 43.941 81.7308C41.9019 81.7492 39.8627 81.7714 37.8236 81.7197C36.9067 81.6976 36.6059 82.037 36.6353 82.9374C36.6866 84.572 36.6499 86.214 36.6499 87.9962V87.9999ZM29.5532 58.0786C33.5508 58.0786 37.5485 58.0565 41.5461 58.0934C42.43 58.1008 42.8078 57.8646 42.7601 56.92C42.6941 55.6507 42.7931 54.374 42.7271 53.1047C42.6867 52.3113 42.9728 51.8612 43.6183 51.4147C52.2627 45.4297 56.077 37.0943 55.0171 26.6593C53.5097 11.8296 39.4776 1.30241 24.9614 4.16945C14.4649 6.24316 7.42317 12.6267 4.69817 23.0432C1.97685 33.456 5.06493 42.3745 13.0455 49.5476C14.1458 50.5365 15.7999 51.2118 16.361 52.4257C16.9405 53.6766 16.5481 55.4071 16.482 56.92C16.4417 57.8683 16.8011 58.1008 17.685 58.0934C21.6423 58.0565 25.5996 58.0749 29.5569 58.0749L29.5532 58.0786ZM11.3144 71.8862C11.6592 73.3843 11.9269 74.5835 12.2093 75.779C12.6678 77.7236 13.9184 78.1221 15.8072 78.0704C21.5139 77.9154 27.228 77.9634 32.9384 77.9597C36.7306 77.9597 40.5265 78.0114 44.3188 78.004C44.7589 78.004 45.4887 77.8748 45.5951 77.6092C46.1489 76.2218 46.8494 74.7901 46.9338 73.34C47.1281 69.9859 46.9961 66.6096 46.9924 63.2445C46.9924 62.8164 46.9484 62.3847 46.9264 62.001H11.6042C11.6042 63.7389 11.6519 65.3772 11.5858 67.0081C11.5455 67.9564 11.9086 68.1889 12.7888 68.1815C16.9075 68.1446 21.0298 68.1668 25.1485 68.1668C25.6216 68.1668 26.0984 68.1668 26.7182 68.1668C26.7182 69.1003 26.6595 69.8752 26.7329 70.639C26.8245 71.6205 26.4468 71.9083 25.4896 71.9009C21.4919 71.8566 17.4943 71.8825 13.4966 71.8825C12.9355 71.8825 12.3707 71.8825 11.3144 71.8825V71.8862ZM25.8123 84.2583C28.0348 84.2583 30.1804 84.2952 32.3185 84.2067C32.5459 84.1956 32.9054 83.4576 32.9017 83.0554C32.9017 82.6569 32.5349 81.9263 32.3075 81.9153C30.1694 81.8267 28.0238 81.8636 25.8086 81.8636V84.2583H25.8123Z" fill="#D81C6B"/>
<path d="M38.7111 55.4919H35.1609V35.4485C35.0509 35.3821 34.9408 35.3156 34.8308 35.2529C34.0533 36.0315 33.3381 36.8949 32.4762 37.5665C31.4603 38.3598 31.387 39.3487 31.398 40.4999C31.4383 45.0126 31.4126 49.5254 31.4126 54.0418C31.4126 54.4883 31.4126 54.9311 31.4126 55.4661H27.613C27.613 54.4514 27.613 53.4772 27.613 52.5031C27.613 48.6066 27.5654 44.7064 27.6424 40.8099C27.6681 39.5664 27.404 38.6107 26.4541 37.7842C25.6619 37.0979 24.9871 36.2713 23.9822 35.2123V55.4698H20.2963C20.2743 55.0381 20.2339 54.6027 20.2339 54.1672C20.2303 46.4111 20.2193 38.6587 20.2559 30.9025C20.2559 30.2531 20.465 29.5188 20.8061 28.9653C22.8819 25.5817 25.0237 22.2387 27.1473 18.8846C28.5153 16.7223 30.6645 16.6707 32.0288 18.8366C34.2147 22.2977 36.3382 25.7957 38.4617 29.2937C38.6634 29.6221 38.7881 30.0576 38.7881 30.445C38.8064 38.5701 38.7991 46.6952 38.7954 54.8167C38.7954 55.0122 38.7514 55.2115 38.7147 55.4993L38.7111 55.4919ZM29.3735 35.4079C30.9579 33.8028 32.3552 32.3158 33.8406 30.921C34.4971 30.3011 34.4604 29.8509 33.9983 29.1572C33.0924 27.7993 32.2782 26.3787 31.42 24.9877C30.8552 24.0689 30.2757 23.1612 29.5899 22.0616C27.8918 24.7478 26.3184 27.22 24.7817 29.7181C24.6607 29.9173 24.6937 30.3896 24.8477 30.5557C26.2964 32.1534 27.7854 33.7105 29.3808 35.4042L29.3735 35.4079Z" fill="#D81C6B"/>
</g>
<defs>
<clipPath id="clip0_298_8">
<rect width="59" height="88" fill="white"/>
</clipPath>
</defs>
</svg>
