<svg width="87" height="75" viewBox="0 0 87 75" fill="none" xmlns="http://www.w3.org/2000/svg">
<g clip-path="url(#clip0_298_9)">
<path d="M27.5152 9.3917C27.5152 7.06333 27.5117 4.90254 27.5152 2.73819C27.5187 0.898312 28.3502 0.0104641 30.1354 0.0104641C39.0265 -0.000232836 47.9141 -0.000232836 56.8052 0.0104641C58.6917 0.0104641 59.5127 0.90901 59.5162 2.87012C59.5162 4.99882 59.5162 7.12751 59.5162 9.39527C59.9634 9.39527 60.3407 9.39527 60.718 9.39527C66.6011 9.39527 72.4843 9.38457 78.3674 9.39884C82.6435 9.40953 86.0288 12.2478 86.8637 16.5159C86.9825 17.1292 86.9895 17.7746 86.993 18.4057C87 34.3192 87.0035 50.2292 86.993 66.1427C86.993 71.3093 83.3318 75.0033 78.2451 75.0033C55.041 75.0033 31.8368 75.0033 8.62908 75.0033C3.73112 75.0033 0.0209613 71.2986 0.0139742 66.3138C-0.00349356 50.2292 -0.00698711 34.1516 0.0174678 18.0705C0.0244549 13.1642 3.76256 9.4131 8.57668 9.39527C14.4913 9.37388 20.4093 9.38814 26.3239 9.38814C26.6768 9.38814 27.0331 9.38814 27.5187 9.38814L27.5152 9.3917ZM4.57306 36.7438C4.57306 36.9435 4.57306 37.2716 4.57306 37.596C4.57306 46.9666 4.64293 56.3407 4.53463 65.7077C4.4997 68.7813 6.62378 70.4143 9.12866 70.4072C32.0673 70.3537 55.006 70.3751 77.9412 70.3751C80.9177 70.3751 82.4689 68.792 82.4689 65.7505C82.4689 56.3443 82.4689 46.9416 82.4689 37.5354C82.4689 37.2216 82.4689 36.9043 82.4689 36.7367C73.2564 38.4161 64.1522 40.0742 54.9606 41.7465C54.9606 44.0356 54.9781 46.4995 54.9536 48.9669C54.9396 50.6178 54.0453 51.577 52.5011 51.5805C46.4887 51.5948 40.4763 51.5912 34.4639 51.5805C32.9827 51.5805 32.0883 50.6535 32.0708 49.1416C32.0534 47.5407 32.0673 45.9397 32.0708 44.3387C32.0708 43.3867 32.0708 42.4346 32.0708 41.75C22.8024 40.0635 13.7262 38.409 4.57306 36.7438ZM82.4724 31.6949C82.4724 27.2271 82.4758 22.8628 82.4724 18.4948C82.4689 15.6993 80.9072 14.0948 78.1438 14.0912C55.006 14.0877 31.8682 14.0877 8.73039 14.0948C6.14516 14.0948 4.57306 15.71 4.56608 18.3308C4.5556 22.4991 4.56258 26.6709 4.56608 30.8391C4.56608 31.1279 4.60451 31.4203 4.62547 31.7198C13.6982 33.8628 22.7605 35.6314 32.0743 36.7581C32.0743 36.266 32.0708 35.8417 32.0743 35.421C32.0918 33.7951 32.9652 32.8466 34.5443 32.843C40.5252 32.8252 46.5062 32.8252 52.4872 32.843C54.0104 32.8466 54.8942 33.7915 54.9571 35.3532C54.9746 35.8061 54.9571 36.2589 54.9571 36.7581C64.2989 35.6171 73.3612 33.8378 82.4689 31.6913L82.4724 31.6949ZM50.3701 37.5996H36.7033V46.8667H50.3701V37.5996ZM32.0848 9.31683H54.9431V4.76348H32.0848V9.31683Z" fill="#D81C6B"/>
</g>
<defs>
<clipPath id="clip0_298_9">
<rect width="87" height="75" fill="white"/>
</clipPath>
</defs>
</svg>
