<svg width="117" height="76" viewBox="0 0 117 76" fill="none" xmlns="http://www.w3.org/2000/svg">
<g clip-path="url(#clip0_298_7)">
<path d="M117 33.5172C116.328 34.0441 115.711 34.6519 114.98 35.0788C111.705 36.9943 108.399 38.8598 105.105 40.7406C102.529 42.2138 102.156 42.1369 100.427 39.7329C100.081 39.9137 99.7278 40.0983 99.3005 40.3252C99.4559 40.6676 99.6501 40.9483 99.7162 41.2599C99.926 42.2061 100.365 43.2023 100.225 44.1062C99.825 46.6948 98.5429 48.9295 96.7014 50.795C96.1964 51.3066 95.431 51.745 94.7317 51.845C93.5624 52.0181 93.4536 52.672 93.2438 53.6259C92.7193 56.026 91.4567 58.1069 89.689 59.8108C88.4497 61.0032 86.8064 61.2609 85.334 61.1417C84.5065 62.8264 83.7955 64.4303 82.9486 65.9611C81.0916 69.3306 77.8787 70.2344 74.4405 68.4305C74.2734 68.342 74.1025 68.269 74.1142 68.2766C73.24 69.9383 72.4592 71.6037 71.5151 73.1769C69.8601 75.9309 66.5307 76.7848 63.6636 75.2308C61.6317 74.1308 59.6426 72.95 57.7973 71.8999C56.0801 72.9577 54.5028 73.9962 52.8633 74.9193C49.7359 76.6886 46.4143 75.8193 44.6078 72.7576C43.7336 71.2768 42.9761 69.7267 42.1058 68.092C42.0359 68.1074 41.7445 68.1497 41.4609 68.219C39.1144 68.7882 36.6125 67.9728 35.3227 65.9881C34.2077 64.2649 33.3102 62.4033 32.2535 60.4839C31.5853 60.4186 30.5597 60.4878 29.6545 60.1878C28.7143 59.8762 27.6459 59.3954 27.071 58.6569C25.3888 56.4914 23.66 54.2759 23.8154 51.2219C19.9809 50.4527 18.8115 47.2602 17.5295 44.2485C17.2031 43.4792 17.2225 42.41 17.4634 41.5907C17.7742 40.5291 17.3935 40.1483 16.4417 39.8829C16.2668 40.1445 16.092 40.4252 15.8978 40.6983C15.1829 41.7022 14.1845 42.0176 13.1122 41.4176C9.07575 39.1521 5.05479 36.8558 1.05327 34.5288C-0.186042 33.8095 -0.318132 32.7595 0.528793 31.3055C4.0447 25.2706 7.56837 19.2396 11.0843 13.2046C13.3492 9.32366 15.6025 5.43885 17.8675 1.55789C18.862 -0.146047 19.7789 -0.376828 21.5232 0.603991C22.0516 0.90016 22.5838 1.19633 23.1044 1.50404C24.2505 2.18484 24.6195 3.10796 24.1184 4.01186C23.6094 4.92344 22.5994 5.09268 21.4339 4.46957C21.1386 4.31187 20.8356 4.15802 20.4354 3.95031C14.9343 13.3816 9.46424 22.7628 3.92426 32.2594C7.17599 34.1211 10.3539 35.9404 13.6251 37.8136C19.1378 28.3592 24.6273 18.9472 30.1479 9.48136C29.5884 9.14288 29.0795 8.88518 28.6288 8.55055C27.8674 7.97744 27.6382 7.23125 28.1005 6.35813C28.5356 5.5427 29.4641 5.23884 30.3499 5.68117C31.2978 6.15812 32.2302 6.67738 33.116 7.25817C34.2737 8.01206 34.3242 8.88133 33.3879 10.8199C35.8394 12.1469 38.0926 13.8585 40.9326 14.4162C41.865 14.597 42.6808 14.5316 43.5394 14.0239C46.7056 12.1507 49.8991 10.316 53.1197 8.53516C56.7872 6.50429 60.5167 6.48506 64.2463 8.40439C65.4623 9.03134 65.843 9.91985 65.3691 10.8584C64.8601 11.8661 63.9394 12.0507 62.6379 11.3892C60.0855 10.0929 57.4865 10.0045 54.9884 11.3968C50.0467 14.147 45.1633 16.9933 40.2566 19.8011C40.1595 19.855 40.0818 19.9434 40.0002 20.0127C41.2239 23.659 45.6567 25.4091 49.2658 23.659C50.2215 23.1974 51.1151 22.6166 52.0553 22.1166C53.9977 21.082 55.7693 21.3127 57.4049 22.7897C60.8353 25.8899 65.3263 24.8206 66.9114 20.5281C67.3349 19.3819 68.0808 18.9165 69.052 19.1895C70.0699 19.478 70.4934 20.355 70.1631 21.5243C70.0427 21.9551 69.8873 22.3743 69.7203 22.8936C71.2315 23.759 72.735 24.6244 74.2463 25.486C81.1304 29.4208 88.034 33.3287 94.8833 37.3251C96.0021 37.979 96.8491 38.0405 97.8203 37.2597C98.0767 37.052 98.3797 36.8943 98.7255 36.675C94.2694 29.0362 89.8444 21.4474 85.3884 13.8008C84.0364 14.5662 82.7738 15.3278 81.4645 16.0048C78.0302 17.7856 74.5454 17.8356 71.0528 16.1586C69.7164 15.5163 69.2579 14.5547 69.763 13.5739C70.2525 12.6277 71.2043 12.47 72.5291 13.1046C74.9533 14.2662 77.3814 14.2778 79.7707 13.0469C81.076 12.3738 82.3348 11.6045 83.6401 10.8699C83.4459 10.5045 83.2983 10.2468 83.17 9.98139C82.6184 8.83518 82.8748 7.81589 83.9975 7.16586C87.9719 4.86574 91.954 2.58101 95.9555 0.3309C97.1987 -0.369135 98.2127 0.0424241 99.0441 1.46557C102.509 7.40049 105.967 13.3393 109.432 19.2703C111.946 23.5667 114.467 27.8592 116.989 32.1556V33.5133L117 33.5172ZM50.7305 59.7224C51.5269 59.7608 52.2534 59.7301 52.9566 59.8455C56.8765 60.4955 59.3862 63.661 59.2269 67.642C59.2075 68.092 59.3279 68.7844 59.631 68.9728C61.4958 70.1344 63.4149 71.223 65.3497 72.2615C66.6589 72.9653 67.8904 72.5769 68.6752 71.3037C69.1103 70.596 69.4988 69.8613 69.8951 69.1344C70.8547 67.3728 70.5206 66.215 68.7529 65.188C67.4747 64.4457 66.181 63.7264 64.9068 62.9687C64.1803 62.5379 63.718 61.8225 64.1065 61.0724C64.3862 60.5263 65.0622 60.0685 65.6643 59.8378C66.0101 59.707 66.6006 60.0416 67.0163 60.2762C69.9922 61.9533 72.9448 63.6649 75.9129 65.3534C77.7816 66.4189 78.9704 66.0765 80.0388 64.188C80.334 63.661 80.6293 63.1341 80.9206 62.6071C81.989 60.6763 81.6938 59.607 79.7707 58.5031C76.7754 56.7876 73.7684 55.0914 70.7809 53.3605C69.7086 52.7412 69.4211 51.7758 69.965 50.8912C70.4778 50.0642 71.4296 49.8757 72.4592 50.4104C72.8282 50.6027 73.1857 50.8181 73.5508 51.0258C77.1755 53.099 80.7924 55.1798 84.421 57.2376C86.0721 58.1761 87.2959 57.8492 88.2671 56.253C88.6401 55.6414 88.9975 55.0183 89.3549 54.3952C90.4 52.572 90.0892 51.4296 88.2361 50.368C84.4521 48.1987 80.6603 46.0371 76.8725 43.8716C76.5462 43.6831 76.1965 43.4985 75.9284 43.2446C75.3107 42.6484 75.1864 41.9215 75.641 41.1907C76.1149 40.4329 76.822 40.1406 77.7 40.4868C78.0496 40.6252 78.3799 40.8214 78.7101 41.0099C82.9292 43.4177 87.1405 45.8332 91.3635 48.2333C93.1117 49.2295 94.3471 48.8641 95.3261 47.1063C95.6913 46.4448 96.0643 45.787 96.4101 45.1178C97.2298 43.5331 96.9268 42.3715 95.3805 41.4868C86.3596 36.3173 77.3348 31.1594 68.2906 26.0322C67.9992 25.8668 67.4048 25.8937 67.129 26.0822C63.1313 28.8323 58.8656 28.6131 55.2371 25.386C54.6543 24.8668 54.1531 24.8129 53.5082 25.2052C52.6652 25.7168 51.8105 26.2091 50.9286 26.6515C46.255 28.99 40.5829 27.5015 37.7741 23.1321C37.1797 22.2089 36.5853 21.0973 36.5581 20.0588C36.5309 19.0549 37.2341 18.028 37.607 17.0433C35.7655 16.0471 33.7143 14.9355 31.6164 13.797C27.1215 21.5012 22.6771 29.1285 18.2365 36.7443C19.2881 37.6033 20.3512 37.7264 21.4261 37.1135C23.4074 35.9942 25.3693 34.8365 27.3895 33.7864C28.5822 33.1672 29.5651 33.4941 30.0274 34.4557C30.482 35.4134 30.0197 36.225 28.8347 36.8674C26.4999 38.1328 24.1844 39.4329 21.9001 40.7829C20.7307 41.4753 20.4277 42.7292 21.0415 43.937C21.4533 44.7408 21.9311 45.514 22.3973 46.2909C23.3686 47.9102 24.5846 48.2449 26.224 47.3294C28.0111 46.3294 29.7866 45.3063 31.5659 44.287C34.2116 42.7754 34.7283 41.3868 33.7376 38.4828C33.4229 37.5597 33.7803 36.6481 34.5962 36.2943C35.4237 35.9327 36.3716 36.2404 36.8223 37.1097C37.1136 37.6713 37.4516 38.2944 37.4672 38.8982C37.5099 40.5483 37.3895 42.1984 37.3273 43.987C40.6257 45.2563 42.2806 47.9179 42.2301 51.6527C47.8828 51.4219 50.8859 55.326 50.7421 59.7224H50.7305ZM113.065 32.271C107.525 22.7743 102.055 13.3969 96.5305 3.92339C93.2671 5.78502 90.0853 7.6005 86.8258 9.46213C92.3619 18.9549 97.8475 28.3669 103.36 37.8174C106.6 35.9673 109.759 34.1595 113.065 32.271ZM38.7492 50.9219C38.7958 48.0064 35.6801 46.0563 33.0227 47.391C31.4649 48.1718 29.9653 49.0718 28.4812 49.9834C27.2536 50.7335 26.9466 51.9335 27.6149 53.2144C28.0849 54.1182 28.5978 54.9991 29.1494 55.8529C29.9536 57.0953 31.1852 57.4069 32.5099 56.6914C33.9785 55.8991 35.4237 55.0644 36.8533 54.2067C38.0888 53.4682 38.6715 52.3258 38.7492 50.9181V50.9219ZM39.7943 65.0919C40.3537 64.9572 40.68 64.9496 40.9326 64.8072C42.5526 63.9034 44.227 63.0648 45.7499 62.0186C47.3972 60.8878 47.7196 58.6492 46.6823 56.9607C45.6412 55.2645 43.5355 54.5529 41.7212 55.4337C40.1556 56.1953 38.6482 57.0876 37.1641 58.0031C36.1346 58.6377 35.7772 59.8147 36.2939 60.8724C36.8417 61.984 37.4439 63.0956 38.1898 64.0803C38.5783 64.588 39.3358 64.8188 39.7904 65.0957L39.7943 65.0919ZM51.4531 63.1495C49.6932 63.5341 47.7973 64.5611 46.2822 66.0958C45.8548 66.5304 45.8587 67.7035 46.0996 68.3882C46.4764 69.469 47.1718 70.4537 47.8245 71.4191C48.4966 72.4115 49.666 72.7269 50.7421 72.1845C51.9581 71.573 53.1586 70.9114 54.2697 70.1383C55.6644 69.1652 56.1423 67.3766 55.5906 65.8073C55.0273 64.1995 53.5743 63.1649 51.4531 63.1533V63.1495Z" fill="#D81C6B"/>
</g>
<defs>
<clipPath id="clip0_298_7">
<rect width="117" height="76" fill="white"/>
</clipPath>
</defs>
</svg>
