<svg width="261" height="42" viewBox="0 0 261 42" fill="none" xmlns="http://www.w3.org/2000/svg">
<path d="M200 39.999L0 39.999" stroke="url(#paint0_linear_258_58)" stroke-width="3"/>
<path d="M14.9105 18.435C15.7972 18.575 16.6022 18.9367 17.3255 19.52C18.0722 20.1033 18.6555 20.8267 19.0755 21.69C19.5188 22.5533 19.7405 23.475 19.7405 24.455C19.7405 25.6917 19.4255 26.8117 18.7955 27.815C18.1655 28.795 17.2438 29.5767 16.0305 30.16C14.8405 30.72 13.4288 31 11.7955 31L2.69549 31L2.69549 6.605L11.4455 6.605C13.1022 6.605 14.5138 6.885 15.6805 7.445C16.8472 7.98167 17.7222 8.71667 18.3055 9.65C18.8888 10.5833 19.1805 11.6333 19.1805 12.8C19.1805 14.2467 18.7838 15.4483 17.9905 16.405C17.2205 17.3383 16.1938 18.015 14.9105 18.435ZM5.88049 17.14L11.2355 17.14C12.7288 17.14 13.8838 16.79 14.7005 16.09C15.5172 15.39 15.9255 14.4217 15.9255 13.185C15.9255 11.9483 15.5172 10.98 14.7005 10.28C13.8838 9.58 12.7055 9.23 11.1655 9.23H5.88049L5.88049 17.14ZM11.5155 28.375C13.1022 28.375 14.3388 28.0017 15.2255 27.255C16.1122 26.5083 16.5555 25.47 16.5555 24.14C16.5555 22.7867 16.0888 21.725 15.1555 20.955C14.2222 20.1617 12.9738 19.765 11.4105 19.765L5.88049 19.765L5.88049 28.375L11.5155 28.375ZM37.0053 31L31.1953 21.025H27.3453L27.3453 31H24.1603L24.1603 6.605L32.0353 6.605C33.8787 6.605 35.4303 6.92 36.6903 7.55C37.9737 8.18 38.9303 9.03167 39.5603 10.105C40.1903 11.1783 40.5053 12.4033 40.5053 13.78C40.5053 15.46 40.0153 16.9417 39.0353 18.225C38.0787 19.5083 36.632 20.36 34.6953 20.78L40.8203 31L37.0053 31ZM27.3453 18.47H32.0353C33.762 18.47 35.057 18.05 35.9203 17.21C36.7837 16.3467 37.2153 15.2033 37.2153 13.78C37.2153 12.3333 36.7837 11.2133 35.9203 10.42C35.0803 9.62667 33.7853 9.23 32.0353 9.23H27.3453L27.3453 18.47ZM59.8743 25.575L49.2343 25.575L47.2743 31H43.9143L52.7343 6.745L56.4093 6.745L65.1943 31H61.8343L59.8743 25.575ZM58.9643 22.985L54.5543 10.665L50.1443 22.985L58.9643 22.985ZM88.2183 31H85.0333L72.2233 11.575L72.2233 31H69.0383L69.0383 6.57H72.2233L85.0333 25.96L85.0333 6.57L88.2183 6.57L88.2183 31ZM101.243 6.605C103.903 6.605 106.201 7.10667 108.138 8.11C110.098 9.09 111.591 10.5017 112.618 12.345C113.668 14.1883 114.193 16.3583 114.193 18.855C114.193 21.3517 113.668 23.5217 112.618 25.365C111.591 27.185 110.098 28.585 108.138 29.565C106.201 30.5217 103.903 31 101.243 31L93.6476 31L93.6476 6.605L101.243 6.605ZM101.243 28.375C104.393 28.375 106.796 27.5467 108.453 25.89C110.109 24.21 110.938 21.865 110.938 18.855C110.938 15.8217 110.098 13.4533 108.418 11.75C106.761 10.0467 104.369 9.195 101.243 9.195L96.8326 9.195L96.8326 28.375H101.243ZM121.579 6.605L121.579 31H118.394L118.394 6.605L121.579 6.605ZM146.187 31H143.002L130.192 11.575L130.192 31H127.007L127.007 6.57L130.192 6.57L143.002 25.96L143.002 6.57L146.187 6.57L146.187 31ZM170.096 13.675C169.42 12.2517 168.44 11.155 167.156 10.385C165.873 9.59167 164.38 9.195 162.676 9.195C160.973 9.195 159.433 9.59167 158.056 10.385C156.703 11.155 155.63 12.275 154.836 13.745C154.066 15.1917 153.681 16.8717 153.681 18.785C153.681 20.6983 154.066 22.3783 154.836 23.825C155.63 25.2717 156.703 26.3917 158.056 27.185C159.433 27.955 160.973 28.34 162.676 28.34C165.056 28.34 167.016 27.6283 168.556 26.205C170.096 24.7817 170.995 22.8567 171.251 20.43L161.521 20.43V17.84L174.646 17.84V20.29C174.46 22.2967 173.83 24.14 172.756 25.82C171.683 27.4767 170.271 28.795 168.521 29.775C166.771 30.7317 164.823 31.21 162.676 31.21C160.413 31.21 158.348 30.685 156.481 29.635C154.615 28.5617 153.133 27.08 152.036 25.19C150.963 23.3 150.426 21.165 150.426 18.785C150.426 16.405 150.963 14.27 152.036 12.38C153.133 10.4667 154.615 8.985 156.481 7.935C158.348 6.86167 160.413 6.325 162.676 6.325C165.266 6.325 167.553 6.96667 169.536 8.25C171.543 9.53333 173.001 11.3417 173.911 13.675H170.096Z" fill="white"/>
<defs>
<linearGradient id="paint0_linear_258_58" x1="36.7769" y1="-12.9316" x2="931.033" y2="-12.9314" gradientUnits="userSpaceOnUse">
<stop stop-color="#FF1A55"/>
<stop offset="0.120192" stop-color="#A21F8A"/>
</linearGradient>
</defs>
</svg>
