<svg width="55" height="273" viewBox="0 0 55 273" fill="none" xmlns="http://www.w3.org/2000/svg">
<path d="M53 0L53 270" stroke="url(#paint0_linear_258_28)" stroke-width="3"/>
<path d="M38.235 254.91C38.505 255.69 38.7 256.59 38.82 257.61C38.94 258.6 39 259.98 39 261.75L39 269.175C38.91 268.785 38.58 268.365 38.01 267.915C37.41 267.465 36.27 267.24 34.59 267.24L12.315 267.24C10.755 267.24 9.69 267.45 9.12 267.87C8.52 268.29 8.16 268.71 8.04 269.13L8.04 261.75C8.04 259.83 8.13 258.375 8.31 257.385C8.46 256.365 8.7 255.48 9.03 254.73C9.66 253.41 10.545 252.39 11.685 251.67C12.825 250.95 14.055 250.59 15.375 250.59C17.385 250.59 19.125 251.205 20.595 252.435C22.035 253.635 22.965 255.225 23.385 257.205C23.535 255.855 23.925 254.58 24.555 253.38C25.185 252.15 26.04 251.16 27.12 250.41C28.2 249.63 29.43 249.24 30.81 249.24C32.73 249.24 34.305 249.75 35.535 250.77C36.735 251.79 37.635 253.17 38.235 254.91ZM11.19 256.17C10.74 256.77 10.41 257.415 10.2 258.105C9.96 258.795 9.84 259.725 9.84 260.895L9.84 264L22.62 264L22.62 260.355C22.62 259.275 22.455 258.375 22.125 257.655C21.795 256.935 21.36 256.305 20.82 255.765C20.25 255.195 19.56 254.745 18.75 254.415C17.94 254.085 17.115 253.92 16.275 253.92C15.255 253.92 14.295 254.115 13.395 254.505C12.495 254.865 11.76 255.42 11.19 256.17ZM25.725 255.225C25.275 255.795 24.945 256.5 24.735 257.34C24.525 258.18 24.42 259.32 24.42 260.76L24.42 264L37.2 264L37.2 259.725C37.2 257.565 36.69 255.885 35.67 254.685C34.65 253.455 33.03 252.84 30.81 252.84C28.74 252.84 27.045 253.635 25.725 255.225ZM23.43 233.499C23.43 232.119 23.115 230.919 22.485 229.899C21.825 228.879 20.985 228.114 19.965 227.604C18.915 227.064 17.82 226.794 16.68 226.794C15.51 226.794 14.415 227.049 13.395 227.559C12.345 228.039 11.49 228.789 10.83 229.809C10.17 230.829 9.84 232.074 9.84 233.544L9.84 237.369L34.86 237.369C36.06 237.369 36.975 237.219 37.605 236.919C38.205 236.619 38.61 236.289 38.82 235.929C39 235.569 39.06 235.389 39 235.389L39 242.544C39.06 242.544 38.985 242.364 38.775 242.004C38.565 241.644 38.16 241.329 37.56 241.059C36.96 240.759 36.06 240.609 34.86 240.609L12.36 240.609C11.13 240.609 10.2 240.759 9.57 241.059C8.91 241.329 8.475 241.644 8.265 242.004C8.025 242.364 7.95 242.544 8.04 242.544L8.04 233.634C8.04 231.294 8.43 229.374 9.21 227.874C9.96 226.344 10.95 225.249 12.18 224.589C13.38 223.899 14.7 223.554 16.14 223.554C17.34 223.554 18.525 223.839 19.695 224.409C20.835 224.979 21.84 225.804 22.71 226.884C23.55 227.934 24.135 229.164 24.465 230.574L24.6 231.294L34.68 223.374C35.85 222.324 36.75 221.454 37.38 220.764C38.01 220.074 38.43 219.579 38.64 219.279C38.85 218.949 38.97 218.754 39 218.694L39 223.959L23.43 236.199L23.43 233.499ZM26.985 208.969L34.14 211.849C35.25 212.299 36.165 212.524 36.885 212.524C37.875 212.524 38.58 212.074 39 211.174L39 217.609C39 217.309 38.7 216.874 38.1 216.304C37.5 215.734 36.315 215.074 34.545 214.324L6.6 202.579L34.68 190.924C36.3 190.264 37.41 189.634 38.01 189.034C38.61 188.404 38.94 187.909 39 187.549L39 195.019C38.64 194.269 38.085 193.894 37.335 193.894C36.705 193.894 35.805 194.134 34.635 194.614L26.985 197.764L26.985 208.969ZM25.14 198.484L13.125 203.389L25.14 208.204L25.14 198.484ZM8.03999 154.677C8.12999 155.097 8.47499 155.517 9.07499 155.937C9.64499 156.327 10.665 156.522 12.135 156.522L40.26 156.522L13.395 179.562L34.95 179.562C36.39 179.562 37.41 179.307 38.01 178.797C38.58 178.287 38.91 177.792 39 177.312L39 183.657C38.91 183.237 38.58 182.817 38.01 182.397C37.41 181.947 36.375 181.722 34.905 181.722L12.405 181.722C11.385 181.722 10.455 182.067 9.61499 182.757C8.77499 183.447 8.24999 184.317 8.04 185.367L8.03999 179.787L32.655 158.682L12.135 158.682C9.82499 158.682 8.45999 159.462 8.03999 161.022L8.03999 154.677ZM36.48 127.506C38.16 130.326 39 134.091 39 138.801L39 147.666C39.09 147.666 39.015 147.486 38.775 147.126C38.505 146.766 38.025 146.451 37.335 146.181C36.645 145.881 35.64 145.731 34.32 145.731L12.18 145.731C11.01 145.731 10.125 145.881 9.52499 146.181C8.89499 146.451 8.47499 146.766 8.26499 147.126C8.05499 147.486 7.97999 147.666 8.03999 147.666L8.03999 138.846C8.03999 134.256 8.78999 130.626 10.29 127.956C11.61 125.586 13.395 123.756 15.645 122.466C17.895 121.176 20.43 120.531 23.25 120.531C26.31 120.531 28.965 121.146 31.215 122.376C33.435 123.576 35.19 125.286 36.48 127.506ZM12.315 129.261C11.445 130.581 10.815 131.991 10.425 133.491C10.035 134.991 9.83999 136.776 9.83999 138.846L9.83999 142.491L37.2 142.491L37.2 138.846C37.2 136.386 36.99 134.376 36.57 132.816C36.15 131.226 35.505 129.861 34.635 128.721C33.495 127.251 32.01 126.126 30.18 125.346C28.32 124.536 26.16 124.131 23.7 124.131C21.09 124.131 18.81 124.596 16.86 125.526C14.88 126.426 13.365 127.671 12.315 129.261ZM39 114.225C39.09 114.225 39.03 114.045 38.82 113.685C38.58 113.325 38.16 112.995 37.56 112.695C36.93 112.395 36.015 112.245 34.815 112.245L12.225 112.245C11.025 112.245 10.125 112.395 9.52499 112.695C8.89499 112.965 8.47499 113.28 8.26499 113.64C8.05499 114 7.97999 114.18 8.03999 114.18L8.03999 107.025C7.97999 107.025 8.05499 107.205 8.26499 107.565C8.47499 107.925 8.89499 108.255 9.52499 108.555C10.125 108.855 11.025 109.005 12.225 109.005L34.815 109.005C36.015 109.005 36.93 108.855 37.56 108.555C38.16 108.255 38.565 107.925 38.775 107.565C38.985 107.205 39.06 107.025 39 107.025L39 114.225ZM8.03999 71.1813C8.12999 71.6013 8.47499 72.0213 9.07499 72.4413C9.64499 72.8313 10.665 73.0263 12.135 73.0263L40.26 73.0263L13.395 96.0663L34.95 96.0663C36.39 96.0663 37.41 95.8113 38.01 95.3013C38.58 94.7913 38.91 94.2963 39 93.8163L39 100.161C38.91 99.7413 38.58 99.3213 38.01 98.9013C37.41 98.4513 36.375 98.2263 34.905 98.2263L12.405 98.2263C11.385 98.2263 10.455 98.5713 9.61499 99.2613C8.77499 99.9513 8.24999 100.821 8.03999 101.871L8.03999 96.2913L32.655 75.1863L12.135 75.1863C9.82499 75.1863 8.45999 75.9663 8.03999 77.5263L8.03999 71.1813ZM39.495 49.1401C39.495 51.9901 38.895 54.6301 37.695 57.0601C36.495 59.4901 34.695 61.4401 32.295 62.9101C29.895 64.3801 26.97 65.1151 23.52 65.1151C20.46 65.1151 17.715 64.4251 15.285 63.0451C12.855 61.6351 10.95 59.6701 9.56999 57.1501C8.18999 54.6001 7.49999 51.6751 7.49999 48.3751C7.49999 46.2751 7.73999 44.3851 8.21999 42.7051C8.69999 40.9951 9.22499 39.6451 9.79499 38.6551L14.79 38.6551C13.17 39.5851 11.865 40.9801 10.875 42.8401C9.88499 44.6701 9.38999 46.5451 9.38999 48.4651C9.38999 51.1351 9.95999 53.4601 11.1 55.4401C12.21 57.3901 13.8 58.8901 15.87 59.9401C17.94 60.9901 20.37 61.5151 23.16 61.5151C26.19 61.5151 28.785 60.9151 30.945 59.7151C33.105 58.4851 34.725 56.8651 35.805 54.8551C36.885 52.8451 37.425 50.6551 37.425 48.2851C37.425 47.2051 37.305 46.0951 37.065 44.9551C36.795 43.7851 36.42 42.7051 35.94 41.7151L28.515 41.7151C27.585 41.7151 26.865 41.8651 26.355 42.1651C25.815 42.4651 25.44 42.7951 25.23 43.1551C24.99 43.5151 24.9 43.6951 24.96 43.6951L24.96 36.4951C24.9 36.4951 24.96 36.6751 25.14 37.0351C25.32 37.3951 25.665 37.7251 26.175 38.0251C26.655 38.3251 27.345 38.4751 28.245 38.4751L36.435 38.4751C37.425 40.0651 38.19 41.7901 38.73 43.6501C39.24 45.4801 39.495 47.3101 39.495 49.1401Z" fill="white"/>
<defs>
<linearGradient id="paint0_linear_258_28" x1="-178.179" y1="244.782" x2="-178.179" y2="-368.411" gradientUnits="userSpaceOnUse">
<stop stop-color="#FF1A55"/>
<stop offset="0.355769" stop-color="#A21F8A"/>
</linearGradient>
</defs>
</svg>
