<svg width="65" height="276" viewBox="0 0 65 276" fill="none" xmlns="http://www.w3.org/2000/svg">
<path d="M63 6L63 276" stroke="url(#paint0_linear_258_28)" stroke-width="3"/>
<path d="M33.845 253.83C34.025 252.69 34.49 251.655 35.24 250.725C35.99 249.765 36.92 249.015 38.03 248.475C39.14 247.905 40.325 247.62 41.585 247.62C43.175 247.62 44.615 248.025 45.905 248.835C47.165 249.645 48.17 250.83 48.92 252.39C49.64 253.92 50 255.735 50 257.835L50 269.535L18.635 269.535L18.635 258.285C18.635 256.155 18.995 254.34 19.715 252.84C20.405 251.34 21.35 250.215 22.55 249.465C23.75 248.715 25.1 248.34 26.6 248.34C28.46 248.34 30.005 248.85 31.235 249.87C32.435 250.86 33.305 252.18 33.845 253.83ZM32.18 265.44L32.18 258.555C32.18 256.635 31.73 255.15 30.83 254.1C29.93 253.05 28.685 252.525 27.095 252.525C25.505 252.525 24.26 253.05 23.36 254.1C22.46 255.15 22.01 256.665 22.01 258.645L22.01 265.44L32.18 265.44ZM46.625 258.195C46.625 256.155 46.145 254.565 45.185 253.425C44.225 252.285 42.89 251.715 41.18 251.715C39.44 251.715 38.075 252.315 37.085 253.515C36.065 254.715 35.555 256.32 35.555 258.33L35.555 265.44L46.625 265.44L46.625 258.195ZM50 225.422L37.175 232.892L37.175 237.842L50 237.842L50 241.937L18.635 241.937L18.635 231.812C18.635 229.442 19.04 227.447 19.85 225.827C20.66 224.177 21.755 222.947 23.135 222.137C24.515 221.327 26.09 220.922 27.86 220.922C30.02 220.922 31.925 221.552 33.575 222.812C35.225 224.042 36.32 225.902 36.86 228.392L50 220.517L50 225.422ZM33.89 237.842L33.89 231.812C33.89 229.592 33.35 227.927 32.27 226.817C31.16 225.707 29.69 225.152 27.86 225.152C26 225.152 24.56 225.707 23.54 226.817C22.52 227.897 22.01 229.562 22.01 231.812L22.01 237.842L33.89 237.842ZM43.025 196.019L43.025 209.699L50 212.219L50 216.539L18.815 205.199L18.815 200.474L50 189.179L50 193.499L43.025 196.019ZM39.695 197.189L23.855 202.859L39.695 208.529L39.695 197.189ZM50 159.577L50 163.672L25.025 180.142L50 180.142L50 184.237L18.59 184.237L18.59 180.142L43.52 163.672L18.59 163.672L18.59 159.577L50 159.577ZM18.635 142.832C18.635 139.412 19.28 136.457 20.57 133.967C21.83 131.447 23.645 129.527 26.015 128.207C28.385 126.857 31.175 126.182 34.385 126.182C37.595 126.182 40.385 126.857 42.755 128.207C45.095 129.527 46.895 131.447 48.155 133.967C49.385 136.457 50 139.412 50 142.832L50 152.597L18.635 152.597L18.635 142.832ZM46.625 142.832C46.625 138.782 45.56 135.692 43.43 133.562C41.27 131.432 38.255 130.367 34.385 130.367C30.485 130.367 27.44 131.447 25.25 133.607C23.06 135.737 21.965 138.812 21.965 142.832L21.965 148.502L46.625 148.502L46.625 142.832ZM18.635 116.685L50 116.685L50 120.78L18.635 120.78L18.635 116.685ZM50 85.0459L50 89.1409L25.025 105.611L50 105.611L50 109.706L18.59 109.706L18.59 105.611L43.52 89.1409L18.59 89.1409L18.59 85.0459L50 85.0459ZM27.725 54.3053C25.895 55.1753 24.485 56.4353 23.495 58.0853C22.475 59.7353 21.965 61.6553 21.965 63.8453C21.965 66.0353 22.475 68.0153 23.495 69.7853C24.485 71.5253 25.925 72.9053 27.815 73.9253C29.675 74.9153 31.835 75.4103 34.295 75.4103C36.755 75.4103 38.915 74.9153 40.775 73.9253C42.635 72.9053 44.075 71.5253 45.095 69.7853C46.085 68.0153 46.58 66.0353 46.58 63.8453C46.58 60.7853 45.665 58.2653 43.835 56.2853C42.005 54.3053 39.53 53.1503 36.41 52.8203L36.41 65.3303L33.08 65.3303L33.08 48.4553L36.23 48.4553C38.81 48.6953 41.18 49.5053 43.34 50.8853C45.47 52.2653 47.165 54.0803 48.425 56.3303C49.655 58.5803 50.27 61.0853 50.27 63.8453C50.27 66.7553 49.595 69.4103 48.245 71.8103C46.865 74.2103 44.96 76.1153 42.53 77.5253C40.1 78.9053 37.355 79.5953 34.295 79.5953C31.235 79.5953 28.49 78.9053 26.06 77.5253C23.6 76.1153 21.695 74.2103 20.345 71.8103C18.965 69.4103 18.275 66.7553 18.275 63.8453C18.275 60.5153 19.1 57.5753 20.75 55.0253C22.4 52.4453 24.725 50.5703 27.725 49.4003L27.725 54.3053Z" fill="white"/>
<defs>
<linearGradient id="paint0_linear_258_28" x1="-168.179" y1="250.782" x2="-168.179" y2="-362.411" gradientUnits="userSpaceOnUse">
<stop stop-color="#FF1A55"/>
<stop offset="0.355769" stop-color="#A21F8A"/>
</linearGradient>
</defs>
</svg>
