<svg width="261" height="42" viewBox="0 0 261 42" fill="none" xmlns="http://www.w3.org/2000/svg">
<path d="M200 39.999L0 39.999" stroke="url(#paint0_linear_258_58)" stroke-width="3"/>
<path d="M14.0705 29.405C13.4638 29.615 12.7638 29.7667 11.9705 29.86C11.2005 29.9533 10.1272 30 8.75049 30L2.97549 30C3.27882 29.93 3.60549 29.6733 3.95549 29.23C4.30549 28.7633 4.48049 27.8767 4.48049 26.57L4.48049 9.245C4.48049 8.03167 4.31716 7.20333 3.99049 6.76C3.66382 6.29333 3.33716 6.01333 3.01049 5.92L8.75049 5.92C10.2438 5.92 11.3755 5.99 12.1455 6.13C12.9388 6.24667 13.6272 6.43333 14.2105 6.69C15.2372 7.18 16.0305 7.86833 16.5905 8.755C17.1505 9.64167 17.4305 10.5983 17.4305 11.625C17.4305 13.1883 16.9522 14.5417 15.9955 15.685C15.0622 16.805 13.8255 17.5283 12.2855 17.855C13.3355 17.9717 14.3272 18.275 15.2605 18.765C16.2172 19.255 16.9872 19.92 17.5705 20.76C18.1772 21.6 18.4805 22.5567 18.4805 23.63C18.4805 25.1233 18.0838 26.3483 17.2905 27.305C16.4972 28.2383 15.4238 28.9383 14.0705 29.405ZM13.0905 8.37C12.6238 8.02 12.1222 7.76333 11.5855 7.6C11.0488 7.41333 10.3255 7.32 9.41549 7.32L7.00049 7.32L7.00049 17.26H9.83549C10.6755 17.26 11.3755 17.1317 11.9355 16.875C12.4955 16.6183 12.9855 16.28 13.4055 15.86C13.8488 15.4167 14.1988 14.88 14.4555 14.25C14.7122 13.62 14.8405 12.9783 14.8405 12.325C14.8405 11.5317 14.6888 10.785 14.3855 10.085C14.1055 9.385 13.6738 8.81333 13.0905 8.37ZM13.8255 19.675C13.3822 19.325 12.8338 19.0683 12.1805 18.905C11.5272 18.7417 10.6405 18.66 9.52049 18.66H7.00049L7.00049 28.6H10.3255C12.0055 28.6 13.3122 28.2033 14.2455 27.41C15.2022 26.6167 15.6805 25.3567 15.6805 23.63C15.6805 22.02 15.0622 20.7017 13.8255 19.675ZM30.7234 17.89C31.7967 17.89 32.73 17.645 33.5234 17.155C34.3167 16.6417 34.9117 15.9883 35.3084 15.195C35.7284 14.3783 35.9384 13.5267 35.9384 12.64C35.9384 11.73 35.74 10.8783 35.3434 10.085C34.97 9.26833 34.3867 8.60333 33.5934 8.09C32.8 7.57667 31.8317 7.32 30.6884 7.32L27.7134 7.32L27.7134 26.78C27.7134 27.7133 27.83 28.425 28.0634 28.915C28.2967 29.3817 28.5534 29.6967 28.8334 29.86C29.1134 30 29.2534 30.0467 29.2534 30L23.6884 30C23.6884 30.0467 23.8284 29.9883 24.1084 29.825C24.3884 29.6617 24.6334 29.3467 24.8434 28.88C25.0767 28.4133 25.1934 27.7133 25.1934 26.78L25.1934 9.28C25.1934 8.32333 25.0767 7.6 24.8434 7.11C24.6334 6.59666 24.3884 6.25833 24.1084 6.095C23.8284 5.90833 23.6884 5.85 23.6884 5.92L30.6184 5.92C32.4384 5.92 33.9317 6.22333 35.0984 6.83C36.2884 7.41333 37.14 8.18333 37.6534 9.14C38.19 10.0733 38.4584 11.1 38.4584 12.22C38.4584 13.1533 38.2367 14.075 37.7934 14.985C37.35 15.8717 36.7084 16.6533 35.8684 17.33C35.0517 17.9833 34.095 18.4383 32.9984 18.695L32.4384 18.8L38.5984 26.64C39.415 27.55 40.0917 28.25 40.6284 28.74C41.165 29.23 41.55 29.5567 41.7834 29.72C42.04 29.8833 42.1917 29.9767 42.2384 30L38.1434 30L28.6234 17.89H30.7234ZM49.8025 20.655L47.5625 26.22C47.2125 27.0833 47.0375 27.795 47.0375 28.355C47.0375 29.125 47.3875 29.6733 48.0875 30H43.0825C43.3158 30 43.6541 29.7667 44.0975 29.3C44.5408 28.8333 45.0541 27.9117 45.6375 26.535L54.7725 4.8L63.8375 26.64C64.3508 27.9 64.8408 28.7633 65.3075 29.23C65.7975 29.6967 66.1825 29.9533 66.4625 30L60.6525 30C61.2358 29.72 61.5275 29.2883 61.5275 28.705C61.5275 28.215 61.3408 27.515 60.9675 26.605L58.5175 20.655L49.8025 20.655ZM57.9575 19.22L54.1425 9.875L50.3975 19.22L57.9575 19.22ZM92.0292 5.92C91.7025 5.99 91.3758 6.25833 91.0492 6.725C90.7458 7.16833 90.5942 7.96167 90.5942 9.105L90.5942 30.98L72.6742 10.085L72.6742 26.85C72.6742 27.97 72.8725 28.7633 73.2692 29.23C73.6658 29.6733 74.0508 29.93 74.4242 30L69.4892 30C69.8158 29.93 70.1425 29.6733 70.4692 29.23C70.8192 28.7633 70.9942 27.9583 70.9942 26.815L70.9942 9.315C70.9942 8.52167 70.7258 7.79833 70.1892 7.145C69.6525 6.49166 68.9758 6.08333 68.1592 5.92L72.4992 5.92L88.9142 25.065L88.9142 9.105C88.9142 7.30833 88.3075 6.24667 87.0942 5.92L92.0292 5.92ZM113.162 28.04C110.969 29.3467 108.041 30 104.377 30L97.4823 30C97.4823 30.07 97.6223 30.0117 97.9023 29.825C98.1823 29.615 98.4273 29.2417 98.6373 28.705C98.8707 28.1683 98.9873 27.3867 98.9873 26.36L98.9873 9.14C98.9873 8.23 98.8707 7.54167 98.6373 7.075C98.4273 6.585 98.1823 6.25833 97.9023 6.095C97.6223 5.93167 97.4823 5.87333 97.4823 5.92L104.342 5.92C107.912 5.92 110.736 6.50333 112.812 7.67C114.656 8.69667 116.079 10.085 117.082 11.835C118.086 13.585 118.587 15.5567 118.587 17.75C118.587 20.13 118.109 22.195 117.152 23.945C116.219 25.6717 114.889 27.0367 113.162 28.04ZM111.797 9.245C110.771 8.56833 109.674 8.07833 108.507 7.775C107.341 7.47167 105.952 7.32 104.342 7.32L101.507 7.32L101.507 28.6H104.342C106.256 28.6 107.819 28.4367 109.032 28.11C110.269 27.7833 111.331 27.2817 112.217 26.605C113.361 25.7183 114.236 24.5633 114.842 23.14C115.472 21.6933 115.787 20.0133 115.787 18.1C115.787 16.07 115.426 14.2967 114.702 12.78C114.002 11.24 113.034 10.0617 111.797 9.245ZM123.492 30C123.492 30.07 123.632 30.0233 123.912 29.86C124.192 29.6733 124.449 29.3467 124.682 28.88C124.916 28.39 125.032 27.6783 125.032 26.745L125.032 9.175C125.032 8.24167 124.916 7.54167 124.682 7.075C124.472 6.585 124.227 6.25833 123.947 6.095C123.667 5.93167 123.527 5.87333 123.527 5.92L129.092 5.92C129.092 5.87333 128.952 5.93167 128.672 6.095C128.392 6.25833 128.136 6.585 127.902 7.075C127.669 7.54167 127.552 8.24167 127.552 9.175L127.552 26.745C127.552 27.6783 127.669 28.39 127.902 28.88C128.136 29.3467 128.392 29.6617 128.672 29.825C128.952 29.9883 129.092 30.0467 129.092 30H123.492ZM156.971 5.92C156.644 5.99 156.317 6.25833 155.991 6.725C155.687 7.16833 155.536 7.96167 155.536 9.105L155.536 30.98L137.616 10.085L137.616 26.85C137.616 27.97 137.814 28.7633 138.211 29.23C138.607 29.6733 138.992 29.93 139.366 30L134.431 30C134.757 29.93 135.084 29.6733 135.411 29.23C135.761 28.7633 135.936 27.9583 135.936 26.815L135.936 9.315C135.936 8.52167 135.667 7.79833 135.131 7.145C134.594 6.49166 133.917 6.08333 133.101 5.92L137.441 5.92L153.856 25.065L153.856 9.105C153.856 7.30833 153.249 6.24667 152.036 5.92L156.971 5.92ZM174.114 30.385C171.897 30.385 169.844 29.9183 167.954 28.985C166.064 28.0517 164.547 26.6517 163.404 24.785C162.26 22.9183 161.689 20.6433 161.689 17.96C161.689 15.58 162.225 13.445 163.299 11.555C164.395 9.665 165.924 8.18333 167.884 7.11C169.867 6.03667 172.142 5.5 174.709 5.5C176.342 5.5 177.812 5.68667 179.119 6.06C180.449 6.43333 181.499 6.84167 182.269 7.285V11.17C181.545 9.91 180.46 8.895 179.014 8.125C177.59 7.355 176.132 6.97 174.639 6.97C172.562 6.97 170.754 7.41333 169.214 8.3C167.697 9.16333 166.53 10.4 165.714 12.01C164.897 13.62 164.489 15.51 164.489 17.68C164.489 20.0367 164.955 22.055 165.889 23.735C166.845 25.415 168.105 26.675 169.669 27.515C171.232 28.355 172.935 28.775 174.779 28.775C175.619 28.775 176.482 28.6817 177.369 28.495C178.279 28.285 179.119 27.9933 179.889 27.62L179.889 21.845C179.889 21.1217 179.772 20.5617 179.539 20.165C179.305 19.745 179.049 19.4533 178.769 19.29C178.489 19.1033 178.349 19.0333 178.349 19.08L183.949 19.08C183.949 19.0333 183.809 19.08 183.529 19.22C183.249 19.36 182.992 19.6283 182.759 20.025C182.525 20.3983 182.409 20.935 182.409 21.635L182.409 28.005C181.172 28.775 179.83 29.37 178.384 29.79C176.96 30.1867 175.537 30.385 174.114 30.385Z" fill="white"/>
<defs>
<linearGradient id="paint0_linear_258_58" x1="36.7769" y1="-12.9316" x2="931.033" y2="-12.9314" gradientUnits="userSpaceOnUse">
<stop stop-color="#FF1A55"/>
<stop offset="0.120192" stop-color="#A21F8A"/>
</linearGradient>
</defs>
</svg>
