<svg width="55" height="253" viewBox="0 0 55 253" fill="none" xmlns="http://www.w3.org/2000/svg">
<path d="M53 0L53 250" stroke="url(#paint0_linear_258_30)" stroke-width="3"/>
<path d="M39.54 240.985C39.54 242.545 39.33 244.045 38.91 245.485C38.46 246.925 37.845 248.215 37.065 249.355L31.62 249.355C33.63 248.575 35.16 247.39 36.21 245.8C37.23 244.18 37.74 242.5 37.74 240.76C37.74 239.02 37.17 237.565 36.03 236.395C34.86 235.225 33.42 234.64 31.71 234.64C30.57 234.64 29.595 234.88 28.785 235.36C27.975 235.81 27.225 236.545 26.535 237.565C25.815 238.585 25.02 240.025 24.15 241.885C22.95 244.495 21.705 246.4 20.415 247.6C19.095 248.77 17.505 249.355 15.645 249.355C14.055 249.355 12.645 248.98 11.415 248.23C10.155 247.45 9.195 246.415 8.535 245.125C7.845 243.805 7.5 242.365 7.5 240.805C7.5 239.455 7.695 238.135 8.085 236.845C8.445 235.555 8.97 234.355 9.66 233.245L14.52 233.245C12.87 233.965 11.595 235.06 10.695 236.53C9.765 237.97 9.3 239.44 9.3 240.94C9.3 242.65 9.855 244.03 10.965 245.08C12.075 246.13 13.395 246.655 14.925 246.655C16.035 246.655 16.995 246.34 17.805 245.71C18.585 245.08 19.245 244.315 19.785 243.415C20.325 242.485 20.985 241.195 21.765 239.545C22.575 237.865 23.325 236.485 24.015 235.405C24.705 234.325 25.605 233.425 26.715 232.705C27.825 231.985 29.175 231.625 30.765 231.625C32.565 231.625 34.125 232.06 35.445 232.93C36.765 233.77 37.785 234.91 38.505 236.35C39.195 237.76 39.54 239.305 39.54 240.985ZM39 225.401C39.09 225.401 39.03 225.221 38.82 224.861C38.58 224.501 38.13 224.186 37.47 223.916C36.78 223.616 35.79 223.466 34.5 223.466L12.405 223.466C11.175 223.466 10.245 223.616 9.615 223.916C8.955 224.186 8.505 224.501 8.265 224.861C8.025 225.221 7.95 225.401 8.04 225.401L8.04 209.111L12.54 209.111C10.74 209.651 9.84 211.271 9.84 213.971L9.84 220.226L22.62 220.226L22.62 212.486C22.62 211.886 22.53 211.376 22.35 210.956C22.14 210.536 21.93 210.221 21.72 210.011C21.51 209.801 21.375 209.681 21.315 209.651L25.68 209.651C25.62 209.681 25.485 209.801 25.275 210.011C25.065 210.221 24.87 210.536 24.69 210.956C24.51 211.346 24.42 211.841 24.42 212.441L24.42 220.226L37.2 220.226L37.2 213.206C37.2 211.856 36.93 210.701 36.39 209.741C35.82 208.751 35.1 208.046 34.23 207.626L39 208.436L39 225.401ZM23.88 202.571C20.7 202.571 17.865 201.896 15.375 200.546C12.885 199.166 10.95 197.246 9.57 194.786C8.19 192.296 7.5 189.431 7.49999 186.191C7.49999 183.491 8.1 180.971 9.3 178.631C10.47 176.261 12.24 174.371 14.61 172.961C16.98 171.521 19.83 170.801 23.16 170.801C26.34 170.801 29.175 171.491 31.665 172.871C34.155 174.221 36.09 176.141 37.47 178.631C38.85 181.091 39.54 183.941 39.54 187.181C39.54 189.881 38.955 192.416 37.785 194.786C36.585 197.126 34.8 199.016 32.43 200.456C30.06 201.866 27.21 202.571 23.88 202.571ZM23.835 174.401C21.105 174.401 18.645 174.971 16.455 176.111C14.235 177.221 12.51 178.766 11.28 180.746C10.02 182.696 9.38999 184.901 9.38999 187.361C9.38999 189.611 9.96 191.621 11.1 193.391C12.24 195.131 13.86 196.496 15.96 197.486C18.03 198.476 20.445 198.971 23.205 198.971C25.935 198.971 28.41 198.416 30.63 197.306C32.82 196.166 34.545 194.621 35.805 192.671C37.035 190.691 37.65 188.471 37.65 186.011C37.65 183.761 37.08 181.766 35.94 180.026C34.8 178.256 33.195 176.876 31.125 175.886C29.025 174.896 26.595 174.401 23.835 174.401ZM40.305 154.771L6.28499 140.596L6.28499 138.571L40.305 152.611L40.305 154.771ZM39.54 115.038C39.54 116.598 39.33 118.098 38.91 119.538C38.46 120.978 37.845 122.268 37.065 123.408L31.62 123.408C33.63 122.628 35.16 121.443 36.21 119.853C37.23 118.233 37.74 116.553 37.74 114.813C37.74 113.073 37.17 111.618 36.03 110.448C34.86 109.278 33.42 108.693 31.71 108.693C30.57 108.693 29.595 108.933 28.785 109.413C27.975 109.863 27.225 110.598 26.535 111.618C25.815 112.638 25.02 114.078 24.15 115.938C22.95 118.548 21.705 120.453 20.415 121.653C19.095 122.823 17.505 123.408 15.645 123.408C14.055 123.408 12.645 123.033 11.415 122.283C10.155 121.503 9.19499 120.468 8.53499 119.178C7.84499 117.858 7.49999 116.418 7.49999 114.858C7.49999 113.508 7.69499 112.188 8.08499 110.898C8.44499 109.608 8.96999 108.408 9.65999 107.298L14.52 107.298C12.87 108.018 11.595 109.113 10.695 110.583C9.76499 112.023 9.29999 113.493 9.29999 114.993C9.29999 116.703 9.85499 118.083 10.965 119.133C12.075 120.183 13.395 120.708 14.925 120.708C16.035 120.708 16.995 120.393 17.805 119.763C18.585 119.133 19.245 118.368 19.785 117.468C20.325 116.538 20.985 115.248 21.765 113.598C22.575 111.918 23.325 110.538 24.015 109.458C24.705 108.378 25.605 107.478 26.715 106.758C27.825 106.038 29.175 105.678 30.765 105.678C32.565 105.678 34.125 106.113 35.445 106.983C36.765 107.823 37.785 108.963 38.505 110.403C39.195 111.813 39.54 113.358 39.54 115.038ZM39 99.4533C39.09 99.4533 39.03 99.2733 38.82 98.9133C38.58 98.5533 38.13 98.2383 37.47 97.9683C36.78 97.6683 35.79 97.5183 34.5 97.5183L12.405 97.5183C11.175 97.5183 10.245 97.6683 9.61499 97.9683C8.95499 98.2383 8.50499 98.5533 8.26499 98.9133C8.02499 99.2733 7.94999 99.4533 8.03999 99.4533L8.03999 83.1633L12.54 83.1633C10.74 83.7033 9.83999 85.3233 9.83999 88.0233L9.83999 94.2783L22.62 94.2783L22.62 86.5383C22.62 85.9383 22.53 85.4283 22.35 85.0083C22.14 84.5883 21.93 84.2733 21.72 84.0633C21.51 83.8533 21.375 83.7333 21.315 83.7033L25.68 83.7033C25.62 83.7333 25.485 83.8533 25.275 84.0633C25.065 84.2733 24.87 84.5883 24.69 85.0083C24.51 85.3983 24.42 85.8933 24.42 86.4933L24.42 94.2783L37.2 94.2783L37.2 87.2583C37.2 85.9083 36.93 84.7533 36.39 83.7933C35.82 82.8033 35.1 82.0983 34.23 81.6783L39 82.4883L39 99.4533ZM39 49.6239C38.94 49.2639 38.625 48.8739 38.055 48.4539C37.455 48.0339 36.36 47.8239 34.77 47.8239L12.27 47.8239L39.495 59.6139L12.315 71.5839L34.545 71.5839C36.165 71.5839 37.305 71.3289 37.965 70.8189C38.595 70.2789 38.94 69.7989 39 69.3789L39 76.0389C38.94 75.5889 38.61 75.0939 38.01 74.5539C37.38 74.0139 36.225 73.7439 34.545 73.7439L12 73.7439C10.56 73.7439 9.56999 73.9989 9.02999 74.5089C8.48999 75.0189 8.15999 75.5289 8.03999 76.0389L8.03999 69.9639L33.195 58.9389L8.03999 48.0939L8.03999 42.6489C8.09999 43.0389 8.41499 43.4589 8.98499 43.9089C9.55499 44.3589 10.605 44.5839 12.135 44.5839L34.95 44.5839C36.45 44.5839 37.485 44.3589 38.055 43.9089C38.625 43.4589 38.94 43.0389 39 42.6489L39 49.6239Z" fill="white"/>
<defs>
<linearGradient id="paint0_linear_258_30" x1="-90.1138" y1="238.878" x2="-90.1138" y2="-31.571" gradientUnits="userSpaceOnUse">
<stop stop-color="#FF1A55"/>
<stop offset="0.567308" stop-color="#A21F8A"/>
</linearGradient>
</defs>
</svg>
