<svg width="66" height="452" viewBox="0 0 66 452" fill="none" xmlns="http://www.w3.org/2000/svg">
<path d="M64 0L64 452" stroke="url(#paint0_linear_373_27)" stroke-width="3"/>
<path d="M27.725 421.775C25.895 422.645 24.485 423.905 23.495 425.555C22.475 427.205 21.965 429.125 21.965 431.315C21.965 433.505 22.475 435.485 23.495 437.255C24.485 438.995 25.925 440.375 27.815 441.395C29.675 442.385 31.835 442.88 34.295 442.88C36.755 442.88 38.915 442.385 40.775 441.395C42.635 440.375 44.075 438.995 45.095 437.255C46.085 435.485 46.58 433.505 46.58 431.315C46.58 428.255 45.665 425.735 43.835 423.755C42.005 421.775 39.53 420.62 36.41 420.29L36.41 432.8L33.08 432.8L33.08 415.925L36.23 415.925C38.81 416.165 41.18 416.975 43.34 418.355C45.47 419.735 47.165 421.55 48.425 423.8C49.655 426.05 50.27 428.555 50.27 431.315C50.27 434.225 49.595 436.88 48.245 439.28C46.865 441.68 44.96 443.585 42.53 444.995C40.1 446.375 37.355 447.065 34.295 447.065C31.235 447.065 28.49 446.375 26.06 444.995C23.6 443.585 21.695 441.68 20.345 439.28C18.965 436.88 18.275 434.225 18.275 431.315C18.275 427.985 19.1 425.045 20.75 422.495C22.4 419.915 24.725 418.04 27.725 416.87L27.725 421.775ZM50.315 396.291C50.315 399.201 49.64 401.856 48.29 404.256C46.91 406.656 45.005 408.561 42.575 409.971C40.115 411.351 37.355 412.041 34.295 412.041C31.235 412.041 28.49 411.351 26.06 409.971C23.6 408.561 21.695 406.656 20.345 404.256C18.965 401.856 18.275 399.201 18.275 396.291C18.275 393.351 18.965 390.681 20.345 388.281C21.695 385.881 23.585 383.991 26.015 382.611C28.445 381.231 31.205 380.541 34.295 380.541C37.385 380.541 40.145 381.231 42.575 382.611C45.005 383.991 46.91 385.881 48.29 388.281C49.64 390.681 50.315 393.351 50.315 396.291ZM46.76 396.291C46.76 394.101 46.25 392.136 45.23 390.396C44.21 388.626 42.755 387.246 40.865 386.256C38.975 385.236 36.785 384.726 34.295 384.726C31.775 384.726 29.585 385.236 27.725 386.256C25.835 387.246 24.38 388.611 23.36 390.351C22.34 392.091 21.83 394.071 21.83 396.291C21.83 398.511 22.34 400.491 23.36 402.231C24.38 403.971 25.835 405.351 27.725 406.371C29.585 407.361 31.775 407.856 34.295 407.856C36.785 407.856 38.975 407.361 40.865 406.371C42.755 405.351 44.21 403.971 45.23 402.231C46.25 400.461 46.76 398.481 46.76 396.291ZM50.315 360.915C50.315 363.825 49.64 366.48 48.29 368.88C46.91 371.28 45.005 373.185 42.575 374.595C40.115 375.975 37.355 376.665 34.295 376.665C31.235 376.665 28.49 375.975 26.06 374.595C23.6 373.185 21.695 371.28 20.345 368.88C18.965 366.48 18.275 363.825 18.275 360.915C18.275 357.975 18.965 355.305 20.345 352.905C21.695 350.505 23.585 348.615 26.015 347.235C28.445 345.855 31.205 345.165 34.295 345.165C37.385 345.165 40.145 345.855 42.575 347.235C45.005 348.615 46.91 350.505 48.29 352.905C49.64 355.305 50.315 357.975 50.315 360.915ZM46.76 360.915C46.76 358.725 46.25 356.76 45.23 355.02C44.21 353.25 42.755 351.87 40.865 350.88C38.975 349.86 36.785 349.35 34.295 349.35C31.775 349.35 29.585 349.86 27.725 350.88C25.835 351.87 24.38 353.235 23.36 354.975C22.34 356.715 21.83 358.695 21.83 360.915C21.83 363.135 22.34 365.115 23.36 366.855C24.38 368.595 25.835 369.975 27.725 370.995C29.585 371.985 31.775 372.48 34.295 372.48C36.785 372.48 38.975 371.985 40.865 370.995C42.755 369.975 44.21 368.595 45.23 366.855C46.25 365.085 46.76 363.105 46.76 360.915ZM27.725 315.999C25.895 316.869 24.485 318.129 23.495 319.779C22.475 321.429 21.965 323.349 21.965 325.539C21.965 327.729 22.475 329.709 23.495 331.479C24.485 333.219 25.925 334.599 27.815 335.619C29.675 336.609 31.835 337.104 34.295 337.104C36.755 337.104 38.915 336.609 40.775 335.619C42.635 334.599 44.075 333.219 45.095 331.479C46.085 329.709 46.58 327.729 46.58 325.539C46.58 322.479 45.665 319.959 43.835 317.979C42.005 315.999 39.53 314.844 36.41 314.514L36.41 327.024L33.08 327.024L33.08 310.149L36.23 310.149C38.81 310.389 41.18 311.199 43.34 312.579C45.47 313.959 47.165 315.774 48.425 318.024C49.655 320.274 50.27 322.779 50.27 325.539C50.27 328.449 49.595 331.104 48.245 333.504C46.865 335.904 44.96 337.809 42.53 339.219C40.1 340.599 37.355 341.289 34.295 341.289C31.235 341.289 28.49 340.599 26.06 339.219C23.6 337.809 21.695 335.904 20.345 333.504C18.965 331.104 18.275 328.449 18.275 325.539C18.275 322.209 19.1 319.269 20.75 316.719C22.4 314.139 24.725 312.264 27.725 311.094L27.725 315.999ZM46.67 300.639L46.67 289.659L50 289.659L50 304.734L18.635 304.734L18.635 300.639L46.67 300.639ZM21.965 281.215L32.45 281.215L32.45 269.785L35.825 269.785L35.825 281.215L46.625 281.215L46.625 268.435L50 268.435L50 285.31L18.59 285.31L18.59 268.435L21.965 268.435L21.965 281.215ZM50.315 240.297C50.315 242.367 49.955 244.227 49.235 245.877C48.485 247.497 47.465 248.772 46.175 249.702C44.855 250.632 43.34 251.112 41.63 251.142L41.63 246.777C43.1 246.627 44.345 246.027 45.365 244.977C46.355 243.897 46.85 242.337 46.85 240.297C46.85 238.347 46.37 236.817 45.41 235.707C44.42 234.567 43.16 233.997 41.63 233.997C40.43 233.997 39.455 234.327 38.705 234.987C37.955 235.647 37.385 236.472 36.995 237.462C36.605 238.452 36.185 239.787 35.735 241.467C35.195 243.537 34.655 245.202 34.115 246.462C33.575 247.692 32.735 248.757 31.595 249.657C30.425 250.527 28.865 250.962 26.915 250.962C25.205 250.962 23.69 250.527 22.37 249.657C21.05 248.787 20.03 247.572 19.31 246.012C18.59 244.422 18.23 242.607 18.23 240.567C18.23 237.627 18.965 235.227 20.435 233.367C21.905 231.477 23.855 230.412 26.285 230.172L26.285 234.672C25.085 234.822 24.035 235.452 23.135 236.562C22.205 237.672 21.74 239.142 21.74 240.972C21.74 242.682 22.19 244.077 23.09 245.157C23.96 246.237 25.19 246.777 26.78 246.777C27.92 246.777 28.85 246.462 29.57 245.832C30.29 245.172 30.845 244.377 31.235 243.447C31.595 242.487 32.015 241.152 32.495 239.442C33.065 237.372 33.635 235.707 34.205 234.447C34.745 233.187 35.6 232.107 36.77 231.207C37.91 230.307 39.47 229.857 41.45 229.857C42.98 229.857 44.42 230.262 45.77 231.072C47.12 231.882 48.215 233.082 49.055 234.672C49.895 236.262 50.315 238.137 50.315 240.297ZM21.965 219.736L32.45 219.736L32.45 208.306L35.825 208.306L35.825 219.736L46.625 219.736L46.625 206.956L50 206.956L50 223.831L18.59 223.831L18.59 206.956L21.965 206.956L21.965 219.736ZM50.315 186.54C50.315 189.45 49.64 192.105 48.29 194.505C46.91 196.905 45.005 198.81 42.575 200.22C40.115 201.6 37.355 202.29 34.295 202.29C31.235 202.29 28.49 201.6 26.06 200.22C23.6 198.81 21.695 196.905 20.345 194.505C18.965 192.105 18.275 189.45 18.275 186.54C18.275 183.6 18.965 180.93 20.345 178.53C21.695 176.13 23.585 174.24 26.015 172.86C28.445 171.48 31.205 170.79 34.295 170.79C37.385 170.79 40.145 171.48 42.575 172.86C45.005 174.24 46.91 176.13 48.29 178.53C49.64 180.93 50.315 183.6 50.315 186.54ZM46.76 186.54C46.76 184.35 46.25 182.385 45.23 180.645C44.21 178.875 42.755 177.495 40.865 176.505C38.975 175.485 36.785 174.975 34.295 174.975C31.775 174.975 29.585 175.485 27.725 176.505C25.835 177.495 24.38 178.86 23.36 180.6C22.34 182.34 21.83 184.32 21.83 186.54C21.83 188.76 22.34 190.74 23.36 192.48C24.38 194.22 25.835 195.6 27.725 196.62C29.585 197.61 31.775 198.105 34.295 198.105C36.785 198.105 38.975 197.61 40.865 196.62C42.755 195.6 44.21 194.22 45.23 192.48C46.25 190.71 46.76 188.73 46.76 186.54ZM7.60999 138.087L57.65 150.417L57.65 154.467L7.60999 142.182L7.60999 138.087ZM50.315 110.043C50.315 112.113 49.955 113.973 49.235 115.623C48.485 117.243 47.465 118.518 46.175 119.448C44.855 120.378 43.34 120.858 41.63 120.888L41.63 116.523C43.1 116.373 44.345 115.773 45.365 114.723C46.355 113.643 46.85 112.083 46.85 110.043C46.85 108.093 46.37 106.563 45.41 105.453C44.42 104.313 43.16 103.743 41.63 103.743C40.43 103.743 39.455 104.073 38.705 104.733C37.955 105.393 37.385 106.218 36.995 107.208C36.605 108.198 36.185 109.533 35.735 111.213C35.195 113.283 34.655 114.948 34.115 116.208C33.575 117.438 32.735 118.503 31.595 119.403C30.425 120.273 28.865 120.708 26.915 120.708C25.205 120.708 23.69 120.273 22.37 119.403C21.05 118.533 20.03 117.318 19.31 115.758C18.59 114.168 18.23 112.353 18.23 110.313C18.23 107.373 18.965 104.973 20.435 103.113C21.905 101.223 23.855 100.158 26.285 99.9181L26.285 104.418C25.085 104.568 24.035 105.198 23.135 106.308C22.205 107.418 21.74 108.888 21.74 110.718C21.74 112.428 22.19 113.823 23.09 114.903C23.96 115.983 25.19 116.523 26.78 116.523C27.92 116.523 28.85 116.208 29.57 115.578C30.29 114.918 30.845 114.123 31.235 113.193C31.595 112.233 32.015 110.898 32.495 109.188C33.065 107.118 33.635 105.453 34.205 104.193C34.745 102.933 35.6 101.853 36.77 100.953C37.91 100.053 39.47 99.6031 41.45 99.6031C42.98 99.6031 44.42 100.008 45.77 100.818C47.12 101.628 48.215 102.828 49.055 104.418C49.895 106.008 50.315 107.883 50.315 110.043ZM21.965 89.482L32.45 89.482L32.45 78.052L35.825 78.052L35.825 89.482L46.625 89.482L46.625 76.702L50 76.702L50 93.577L18.59 93.577L18.59 76.702L21.965 76.702L21.965 89.482ZM18.86 38.6907L50 38.6907L50 42.7857L26.78 42.7857L50 53.1357L50 56.0157L26.735 66.4107L50 66.4107L50 70.5057L18.86 70.5057L18.86 66.0957L44.6 54.5757L18.86 43.0557L18.86 38.6907Z" fill="white"/>
<defs>
<linearGradient id="paint0_linear_373_27" x1="-194.75" y1="431.891" x2="-194.75" y2="-57.0804" gradientUnits="userSpaceOnUse">
<stop stop-color="#FF1A55"/>
<stop offset="0.567308" stop-color="#A21F8A"/>
</linearGradient>
</defs>
</svg>
