<svg width="375" height="53" viewBox="0 0 375 53" fill="none" xmlns="http://www.w3.org/2000/svg">
<path d="M374.58 51L3.76084e-05 51" stroke="url(#paint0_linear_373_28)" stroke-width="3"/>
<path d="M22.5688 21.675C21.8921 20.2517 20.9121 19.155 19.6288 18.385C18.3455 17.5917 16.8521 17.195 15.1488 17.195C13.4455 17.195 11.9055 17.5917 10.5288 18.385C9.17547 19.155 8.10213 20.275 7.3088 21.745C6.5388 23.1917 6.1538 24.8717 6.1538 26.785C6.1538 28.6983 6.5388 30.3783 7.3088 31.825C8.10214 33.2717 9.17547 34.3917 10.5288 35.185C11.9055 35.955 13.4455 36.34 15.1488 36.34C17.5288 36.34 19.4888 35.6283 21.0288 34.205C22.5688 32.7817 23.4671 30.8567 23.7238 28.43L13.9938 28.43L13.9938 25.84L27.1188 25.84L27.1188 28.29C26.9321 30.2967 26.3021 32.14 25.2288 33.82C24.1555 35.4767 22.7438 36.795 20.9938 37.775C19.2438 38.7317 17.2955 39.21 15.1488 39.21C12.8855 39.21 10.8205 38.685 8.9538 37.635C7.08714 36.5617 5.60547 35.08 4.5088 33.19C3.43547 31.3 2.8988 29.165 2.8988 26.785C2.8988 24.405 3.43547 22.27 4.5088 20.38C5.60547 18.4667 7.08713 16.985 8.9538 15.935C10.8205 14.8617 12.8855 14.325 15.1488 14.325C17.7388 14.325 20.0255 14.9667 22.0088 16.25C24.0155 17.5333 25.4738 19.3417 26.3838 21.675L22.5688 21.675ZM42.39 39.245C40.1267 39.245 38.0617 38.72 36.195 37.67C34.3283 36.5967 32.8467 35.115 31.75 33.225C30.6767 31.3117 30.14 29.165 30.14 26.785C30.14 24.405 30.6767 22.27 31.75 20.38C32.8467 18.4667 34.3283 16.985 36.195 15.935C38.0617 14.8617 40.1267 14.325 42.39 14.325C44.6767 14.325 46.7533 14.8617 48.62 15.935C50.4867 16.985 51.9567 18.455 53.03 20.345C54.1033 22.235 54.64 24.3817 54.64 26.785C54.64 29.1883 54.1033 31.335 53.03 33.225C51.9567 35.115 50.4867 36.5967 48.62 37.67C46.7533 38.72 44.6767 39.245 42.39 39.245ZM42.39 36.48C44.0933 36.48 45.6217 36.0833 46.975 35.29C48.3517 34.4967 49.425 33.365 50.195 31.895C50.9883 30.425 51.385 28.7217 51.385 26.785C51.385 24.825 50.9883 23.1217 50.195 21.675C49.425 20.205 48.3633 19.0733 47.01 18.28C45.6567 17.4867 44.1167 17.09 42.39 17.09C40.6633 17.09 39.1233 17.4867 37.77 18.28C36.4167 19.0733 35.3433 20.205 34.55 21.675C33.78 23.1217 33.395 24.825 33.395 26.785C33.395 28.7217 33.78 30.425 34.55 31.895C35.3433 33.365 36.4167 34.4967 37.77 35.29C39.1467 36.0833 40.6867 36.48 42.39 36.48ZM69.9047 39.245C67.6413 39.245 65.5763 38.72 63.7097 37.67C61.843 36.5967 60.3613 35.115 59.2647 33.225C58.1913 31.3117 57.6547 29.165 57.6547 26.785C57.6547 24.405 58.1913 22.27 59.2647 20.38C60.3613 18.4667 61.843 16.985 63.7097 15.935C65.5763 14.8617 67.6413 14.325 69.9047 14.325C72.1913 14.325 74.268 14.8617 76.1347 15.935C78.0013 16.985 79.4713 18.455 80.5447 20.345C81.618 22.235 82.1547 24.3817 82.1547 26.785C82.1547 29.1883 81.618 31.335 80.5447 33.225C79.4713 35.115 78.0013 36.5967 76.1347 37.67C74.268 38.72 72.1913 39.245 69.9047 39.245ZM69.9047 36.48C71.608 36.48 73.1363 36.0833 74.4897 35.29C75.8663 34.4967 76.9397 33.365 77.7097 31.895C78.503 30.425 78.8997 28.7217 78.8997 26.785C78.8997 24.825 78.503 23.1217 77.7097 21.675C76.9397 20.205 75.878 19.0733 74.5247 18.28C73.1713 17.4867 71.6313 17.09 69.9047 17.09C68.178 17.09 66.638 17.4867 65.2847 18.28C63.9313 19.0733 62.858 20.205 62.0647 21.675C61.2947 23.1217 60.9097 24.825 60.9097 26.785C60.9097 28.7217 61.2947 30.425 62.0647 31.895C62.858 33.365 63.9313 34.4967 65.2847 35.29C66.6613 36.0833 68.2013 36.48 69.9047 36.48ZM104.839 21.675C104.163 20.2517 103.183 19.155 101.899 18.385C100.616 17.5917 99.1226 17.195 97.4193 17.195C95.716 17.195 94.176 17.5917 92.7993 18.385C91.446 19.155 90.3726 20.275 89.5793 21.745C88.8093 23.1917 88.4243 24.8717 88.4243 26.785C88.4243 28.6983 88.8093 30.3783 89.5793 31.825C90.3726 33.2717 91.446 34.3917 92.7993 35.185C94.176 35.955 95.716 36.34 97.4193 36.34C99.7993 36.34 101.759 35.6283 103.299 34.205C104.839 32.7817 105.738 30.8567 105.994 28.43L96.2643 28.43L96.2643 25.84L109.389 25.84L109.389 28.29C109.203 30.2967 108.573 32.14 107.499 33.82C106.426 35.4767 105.014 36.795 103.264 37.775C101.514 38.7317 99.566 39.21 97.4193 39.21C95.156 39.21 93.091 38.685 91.2243 37.635C89.3576 36.5617 87.876 35.08 86.7793 33.19C85.706 31.3 85.1693 29.165 85.1693 26.785C85.1693 24.405 85.706 22.27 86.7793 20.38C87.876 18.4667 89.3576 16.985 91.2243 15.935C93.091 14.8617 95.156 14.325 97.4193 14.325C100.009 14.325 102.296 14.9667 104.279 16.25C106.286 17.5333 107.744 19.3417 108.654 21.675L104.839 21.675ZM116.786 36.41L125.326 36.41L125.326 39L113.601 39L113.601 14.605L116.786 14.605L116.786 36.41ZM131.893 17.195L131.893 25.35L140.783 25.35L140.783 27.975L131.893 27.975L131.893 36.375L141.833 36.375L141.833 39L128.708 39L128.708 14.57L141.833 14.57L141.833 17.195L131.893 17.195ZM163.718 39.245C162.108 39.245 160.662 38.965 159.378 38.405C158.118 37.8217 157.127 37.0283 156.403 36.025C155.68 34.9983 155.307 33.82 155.283 32.49L158.678 32.49C158.795 33.6333 159.262 34.6017 160.078 35.395C160.918 36.165 162.132 36.55 163.718 36.55C165.235 36.55 166.425 36.1767 167.288 35.43C168.175 34.66 168.618 33.68 168.618 32.49C168.618 31.5567 168.362 30.7983 167.848 30.215C167.335 29.6317 166.693 29.1883 165.923 28.885C165.153 28.5817 164.115 28.255 162.808 27.905C161.198 27.485 159.903 27.065 158.923 26.645C157.967 26.225 157.138 25.5717 156.438 24.685C155.762 23.775 155.423 22.5617 155.423 21.045C155.423 19.715 155.762 18.5367 156.438 17.51C157.115 16.4833 158.06 15.69 159.273 15.13C160.51 14.57 161.922 14.29 163.508 14.29C165.795 14.29 167.662 14.8617 169.108 16.005C170.578 17.1483 171.407 18.665 171.593 20.555L168.093 20.555C167.977 19.6217 167.487 18.805 166.623 18.105C165.76 17.3817 164.617 17.02 163.193 17.02C161.863 17.02 160.778 17.37 159.938 18.07C159.098 18.7467 158.678 19.7033 158.678 20.94C158.678 21.8267 158.923 22.55 159.413 23.11C159.927 23.67 160.545 24.1017 161.268 24.405C162.015 24.685 163.053 25.0117 164.383 25.385C165.993 25.8283 167.288 26.2717 168.268 26.715C169.248 27.135 170.088 27.8 170.788 28.71C171.488 29.5967 171.838 30.81 171.838 32.35C171.838 33.54 171.523 34.66 170.893 35.71C170.263 36.76 169.33 37.6117 168.093 38.265C166.857 38.9183 165.398 39.245 163.718 39.245ZM179.71 17.195L179.71 25.35L188.6 25.35L188.6 27.975L179.71 27.975L179.71 36.375L189.65 36.375L189.65 39L176.525 39L176.525 14.57L189.65 14.57L189.65 17.195L179.71 17.195ZM205.53 39.245C203.266 39.245 201.201 38.72 199.335 37.67C197.468 36.5967 195.986 35.115 194.89 33.225C193.816 31.3117 193.28 29.165 193.28 26.785C193.28 24.405 193.816 22.27 194.89 20.38C195.986 18.4667 197.468 16.985 199.335 15.935C201.201 14.8617 203.266 14.325 205.53 14.325C207.816 14.325 209.893 14.8617 211.76 15.935C213.626 16.985 215.096 18.455 216.17 20.345C217.243 22.235 217.78 24.3817 217.78 26.785C217.78 29.1883 217.243 31.335 216.17 33.225C215.096 35.115 213.626 36.5967 211.76 37.67C209.893 38.72 207.816 39.245 205.53 39.245ZM205.53 36.48C207.233 36.48 208.761 36.0833 210.115 35.29C211.491 34.4967 212.565 33.365 213.335 31.895C214.128 30.425 214.525 28.7217 214.525 26.785C214.525 24.825 214.128 23.1217 213.335 21.675C212.565 20.205 211.503 19.0733 210.15 18.28C208.796 17.4867 207.256 17.09 205.53 17.09C203.803 17.09 202.263 17.4867 200.91 18.28C199.556 19.0733 198.483 20.205 197.69 21.675C196.92 23.1217 196.535 24.825 196.535 26.785C196.535 28.7217 196.92 30.425 197.69 31.895C198.483 33.365 199.556 34.4967 200.91 35.29C202.286 36.0833 203.826 36.48 205.53 36.48ZM243.215 6.03L233.625 44.95L230.475 44.95L240.03 6.03L243.215 6.03ZM265.027 39.245C263.417 39.245 261.97 38.965 260.687 38.405C259.427 37.8217 258.435 37.0283 257.712 36.025C256.989 34.9983 256.615 33.82 256.592 32.49L259.987 32.49C260.104 33.6333 260.57 34.6017 261.387 35.395C262.227 36.165 263.44 36.55 265.027 36.55C266.544 36.55 267.734 36.1767 268.597 35.43C269.484 34.66 269.927 33.68 269.927 32.49C269.927 31.5567 269.67 30.7983 269.157 30.215C268.644 29.6317 268.002 29.1883 267.232 28.885C266.462 28.5817 265.424 28.255 264.117 27.905C262.507 27.485 261.212 27.065 260.232 26.645C259.275 26.225 258.447 25.5717 257.747 24.685C257.07 23.775 256.732 22.5617 256.732 21.045C256.732 19.715 257.07 18.5367 257.747 17.51C258.424 16.4833 259.369 15.69 260.582 15.13C261.819 14.57 263.23 14.29 264.817 14.29C267.104 14.29 268.97 14.8617 270.417 16.005C271.887 17.1483 272.715 18.665 272.902 20.555L269.402 20.555C269.285 19.6217 268.795 18.805 267.932 18.105C267.069 17.3817 265.925 17.02 264.502 17.02C263.172 17.02 262.087 17.37 261.247 18.07C260.407 18.7467 259.987 19.7033 259.987 20.94C259.987 21.8267 260.232 22.55 260.722 23.11C261.235 23.67 261.854 24.1017 262.577 24.405C263.324 24.685 264.362 25.0117 265.692 25.385C267.302 25.8283 268.597 26.2717 269.577 26.715C270.557 27.135 271.397 27.8 272.097 28.71C272.797 29.5967 273.147 30.81 273.147 32.35C273.147 33.54 272.832 34.66 272.202 35.71C271.572 36.76 270.639 37.6117 269.402 38.265C268.165 38.9183 266.707 39.245 265.027 39.245ZM281.019 17.195L281.019 25.35L289.909 25.35L289.909 27.975L281.019 27.975L281.019 36.375L290.959 36.375L290.959 39L277.834 39L277.834 14.57L290.959 14.57L290.959 17.195L281.019 17.195ZM320.523 14.78L320.523 39L317.338 39L317.338 20.94L309.288 39L307.048 39L298.963 20.905L298.963 39L295.778 39L295.778 14.78L299.208 14.78L308.168 34.8L317.128 14.78L320.523 14.78Z" fill="white"/>
<defs>
<linearGradient id="paint0_linear_373_28" x1="37.5873" y1="211.167" x2="951.549" y2="211.167" gradientUnits="userSpaceOnUse">
<stop stop-color="#FF1A55"/>
<stop offset="0.158004" stop-color="#D81C6B"/>
<stop offset="0.375058" stop-color="#A21F8A"/>
</linearGradient>
</defs>
</svg>
