<svg width="196" height="47" viewBox="0 0 196 47" fill="none" xmlns="http://www.w3.org/2000/svg">
<path d="M187.769 44.9697L-0.000100522 44.9697" stroke="url(#paint0_linear_258_54)" stroke-width="3"/>
<path d="M11.1287 33.2147C9.51874 33.2147 8.07207 32.9347 6.78874 32.3747C5.52874 31.7914 4.53707 30.9981 3.81374 29.9947C3.0904 28.9681 2.71707 27.7897 2.69374 26.4597L6.08874 26.4597C6.2054 27.6031 6.67207 28.5714 7.48874 29.3647C8.32874 30.1347 9.54207 30.5197 11.1287 30.5197C12.6454 30.5197 13.8354 30.1464 14.6987 29.3997C15.5854 28.6297 16.0287 27.6497 16.0287 26.4597C16.0287 25.5264 15.7721 24.7681 15.2587 24.1847C14.7454 23.6014 14.1037 23.1581 13.3337 22.8547C12.5637 22.5514 11.5254 22.2247 10.2187 21.8747C8.60874 21.4547 7.31374 21.0347 6.33374 20.6147C5.37707 20.1947 4.54874 19.5414 3.84874 18.6547C3.17207 17.7447 2.83374 16.5314 2.83374 15.0147C2.83374 13.6847 3.17207 12.5064 3.84874 11.4797C4.5254 10.4531 5.4704 9.65972 6.68374 9.09973C7.9204 8.53973 9.33207 8.25973 10.9187 8.25973C13.2054 8.25973 15.0721 8.83139 16.5187 9.97473C17.9887 11.1181 18.8171 12.6347 19.0037 14.5247L15.5037 14.5247C15.3871 13.5914 14.8971 12.7747 14.0337 12.0747C13.1704 11.3514 12.0271 10.9897 10.6037 10.9897C9.27374 10.9897 8.18874 11.3397 7.34874 12.0397C6.50874 12.7164 6.08874 13.6731 6.08874 14.9097C6.08874 15.7964 6.33374 16.5197 6.82374 17.0797C7.33707 17.6397 7.9554 18.0714 8.67874 18.3747C9.4254 18.6547 10.4637 18.9814 11.7937 19.3547C13.4037 19.7981 14.6987 20.2414 15.6787 20.6847C16.6587 21.1047 17.4987 21.7697 18.1987 22.6797C18.8987 23.5664 19.2487 24.7797 19.2487 26.3197C19.2487 27.5097 18.9337 28.6297 18.3037 29.6797C17.6737 30.7297 16.7404 31.5814 15.5037 32.2347C14.2671 32.8881 12.8087 33.2147 11.1287 33.2147ZM27.1207 11.1647L27.1207 19.3197L36.0107 19.3197L36.0107 21.9447L27.1207 21.9447L27.1207 30.3447L37.0607 30.3447L37.0607 32.9697L23.9357 32.9697L23.9357 8.53973L37.0607 8.53973L37.0607 11.1647L27.1207 11.1647ZM52.9401 33.2147C50.6767 33.2147 48.6117 32.6897 46.7451 31.6397C44.8784 30.5664 43.3967 29.0847 42.3001 27.1947C41.2267 25.2814 40.6901 23.1347 40.6901 20.7547C40.6901 18.3747 41.2267 16.2397 42.3001 14.3497C43.3967 12.4364 44.8784 10.9547 46.7451 9.90473C48.6117 8.83139 50.6767 8.29472 52.9401 8.29472C55.2267 8.29472 57.3034 8.83139 59.1701 9.90472C61.0367 10.9547 62.5067 12.4247 63.5801 14.3147C64.6534 16.2047 65.1901 18.3514 65.1901 20.7547C65.1901 23.1581 64.6534 25.3047 63.5801 27.1947C62.5067 29.0847 61.0367 30.5664 59.1701 31.6397C57.3034 32.6897 55.2267 33.2147 52.9401 33.2147ZM52.9401 30.4497C54.6434 30.4497 56.1717 30.0531 57.5251 29.2597C58.9017 28.4664 59.9751 27.3347 60.7451 25.8647C61.5384 24.3947 61.9351 22.6914 61.9351 20.7547C61.9351 18.7947 61.5384 17.0914 60.7451 15.6447C59.9751 14.1747 58.9134 13.0431 57.5601 12.2497C56.2067 11.4564 54.6667 11.0597 52.9401 11.0597C51.2134 11.0597 49.6734 11.4564 48.3201 12.2497C46.9667 13.0431 45.8934 14.1747 45.1001 15.6447C44.3301 17.0914 43.9451 18.7947 43.9451 20.7547C43.9451 22.6914 44.3301 24.3947 45.1001 25.8647C45.8934 27.3347 46.9667 28.4664 48.3201 29.2597C49.6967 30.0531 51.2367 30.4497 52.9401 30.4497ZM90.6258 -0.000274917L81.0358 38.9197L77.8858 38.9197L87.4408 -0.000274904L90.6258 -0.000274917ZM112.437 33.2147C110.827 33.2147 109.381 32.9347 108.097 32.3747C106.837 31.7914 105.846 30.9981 105.122 29.9947C104.399 28.9681 104.026 27.7897 104.002 26.4597L107.397 26.4597C107.514 27.6031 107.981 28.5714 108.797 29.3647C109.637 30.1347 110.851 30.5197 112.437 30.5197C113.954 30.5197 115.144 30.1464 116.007 29.3997C116.894 28.6297 117.337 27.6497 117.337 26.4597C117.337 25.5264 117.081 24.7681 116.567 24.1847C116.054 23.6014 115.412 23.1581 114.642 22.8547C113.872 22.5514 112.834 22.2247 111.527 21.8747C109.917 21.4547 108.622 21.0347 107.642 20.6147C106.686 20.1947 105.857 19.5414 105.157 18.6547C104.481 17.7447 104.142 16.5314 104.142 15.0147C104.142 13.6847 104.481 12.5064 105.157 11.4797C105.834 10.4531 106.779 9.65972 107.992 9.09972C109.229 8.53972 110.641 8.25973 112.227 8.25973C114.514 8.25973 116.381 8.83139 117.827 9.97473C119.297 11.1181 120.126 12.6347 120.312 14.5247L116.812 14.5247C116.696 13.5914 116.206 12.7747 115.342 12.0747C114.479 11.3514 113.336 10.9897 111.912 10.9897C110.582 10.9897 109.497 11.3397 108.657 12.0397C107.817 12.7164 107.397 13.6731 107.397 14.9097C107.397 15.7964 107.642 16.5197 108.132 17.0797C108.646 17.6397 109.264 18.0714 109.987 18.3747C110.734 18.6547 111.772 18.9814 113.102 19.3547C114.712 19.7981 116.007 20.2414 116.987 20.6847C117.967 21.1047 118.807 21.7697 119.507 22.6797C120.207 23.5664 120.557 24.7797 120.557 26.3197C120.557 27.5097 120.242 28.6297 119.612 29.6797C118.982 30.7297 118.049 31.5814 116.812 32.2347C115.576 32.8881 114.117 33.2147 112.437 33.2147ZM128.429 11.1647L128.429 19.3197L137.319 19.3197L137.319 21.9447L128.429 21.9447L128.429 30.3447L138.369 30.3447L138.369 32.9697L125.244 32.9697L125.244 8.53973L138.369 8.53973L138.369 11.1647L128.429 11.1647ZM167.934 8.74972L167.934 32.9697L164.749 32.9697L164.749 14.9097L156.699 32.9697L154.459 32.9697L146.374 14.8747L146.374 32.9697L143.189 32.9697L143.189 8.74972L146.619 8.74972L155.579 28.7697L164.539 8.74972L167.934 8.74972Z" fill="white"/>
<defs>
<linearGradient id="paint0_linear_258_54" x1="18.8416" y1="205.136" x2="476.991" y2="205.137" gradientUnits="userSpaceOnUse">
<stop stop-color="#FF1A55"/>
<stop offset="0.158004" stop-color="#D81C6B"/>
<stop offset="0.375058" stop-color="#A21F8A"/>
</linearGradient>
</defs>
</svg>
