<svg width="58" height="250" viewBox="0 0 58 250" fill="none" xmlns="http://www.w3.org/2000/svg">
<path d="M56.3899 0L56.3899 250" stroke="url(#paint0_linear_258_30)" stroke-width="3"/>
<path d="M42.7049 233.59C42.7049 235.66 42.3449 237.52 41.6249 239.17C40.8749 240.79 39.8549 242.065 38.5649 242.995C37.2449 243.925 35.7299 244.405 34.0199 244.435L34.0199 240.07C35.4899 239.92 36.7349 239.32 37.7549 238.27C38.7449 237.19 39.2399 235.63 39.2399 233.59C39.2399 231.64 38.7599 230.11 37.7999 229C36.8099 227.86 35.5499 227.29 34.0199 227.29C32.8199 227.29 31.8449 227.62 31.0949 228.28C30.3449 228.94 29.7749 229.765 29.3849 230.755C28.9949 231.745 28.5749 233.08 28.1249 234.76C27.5849 236.83 27.0449 238.495 26.5049 239.755C25.9649 240.985 25.1249 242.05 23.9849 242.95C22.8149 243.82 21.2549 244.255 19.3049 244.255C17.5949 244.255 16.0799 243.82 14.7599 242.95C13.4399 242.08 12.4199 240.865 11.6999 239.305C10.9799 237.715 10.6199 235.9 10.6199 233.86C10.6199 230.92 11.3549 228.52 12.8249 226.66C14.2949 224.77 16.2449 223.705 18.6749 223.465L18.6749 227.965C17.4749 228.115 16.4249 228.745 15.5249 229.855C14.5949 230.965 14.1299 232.435 14.1299 234.265C14.1299 235.975 14.5799 237.37 15.4799 238.45C16.3499 239.53 17.5799 240.07 19.1699 240.07C20.3099 240.07 21.2399 239.755 21.9599 239.125C22.6799 238.465 23.2349 237.67 23.6249 236.74C23.9849 235.78 24.4049 234.445 24.8849 232.735C25.4549 230.665 26.0249 229 26.5949 227.74C27.1349 226.48 27.9899 225.4 29.1599 224.5C30.2999 223.6 31.8599 223.15 33.8399 223.15C35.3699 223.15 36.8099 223.555 38.1599 224.365C39.5099 225.175 40.6049 226.375 41.4449 227.965C42.2849 229.555 42.7049 231.43 42.7049 233.59ZM14.3549 213.029L24.8399 213.029L24.8399 201.599L28.2149 201.599L28.2149 213.029L39.0149 213.029L39.0149 200.249L42.3899 200.249L42.3899 217.124L10.9799 217.124L10.9799 200.249L14.3549 200.249L14.3549 213.029ZM42.7049 179.833C42.7049 182.743 42.0299 185.398 40.6799 187.798C39.2999 190.198 37.3949 192.103 34.9649 193.513C32.5049 194.893 29.7449 195.583 26.6849 195.583C23.6249 195.583 20.8799 194.893 18.4499 193.513C15.9899 192.103 14.0849 190.198 12.7349 187.798C11.3549 185.398 10.6649 182.743 10.6649 179.833C10.6649 176.893 11.3549 174.223 12.7349 171.823C14.0849 169.423 15.9749 167.533 18.4049 166.153C20.8349 164.773 23.5949 164.083 26.6849 164.083C29.7749 164.083 32.5349 164.773 34.9649 166.153C37.3949 167.533 39.2999 169.423 40.6799 171.823C42.0299 174.223 42.7049 176.893 42.7049 179.833ZM39.1499 179.833C39.1499 177.643 38.6399 175.678 37.6199 173.938C36.5999 172.168 35.1449 170.788 33.2549 169.798C31.3649 168.778 29.1749 168.268 26.6849 168.268C24.1649 168.268 21.9749 168.778 20.1149 169.798C18.2249 170.788 16.7699 172.153 15.7499 173.893C14.7299 175.633 14.2199 177.613 14.2199 179.833C14.2199 182.053 14.7299 184.033 15.7499 185.773C16.7699 187.513 18.2249 188.893 20.1149 189.913C21.9749 190.903 24.1649 191.398 26.6849 191.398C29.1749 191.398 31.3649 190.903 33.2549 189.913C35.1449 188.893 36.5999 187.513 37.6199 185.773C38.6399 184.003 39.1499 182.023 39.1499 179.833ZM-0.000114256 131.38L50.0399 143.71L50.0399 147.76L-0.000114064 135.475L-0.000114256 131.38ZM42.7049 103.336C42.7049 105.406 42.3449 107.266 41.6249 108.916C40.8749 110.536 39.8549 111.811 38.5649 112.741C37.2449 113.671 35.7299 114.151 34.0199 114.181L34.0199 109.816C35.4899 109.666 36.7349 109.066 37.7549 108.016C38.7449 106.936 39.2399 105.376 39.2399 103.336C39.2399 101.386 38.7599 99.8561 37.7999 98.7461C36.8099 97.6061 35.5499 97.0361 34.0199 97.0361C32.8199 97.0361 31.8449 97.3661 31.0949 98.0261C30.3449 98.6861 29.7749 99.5111 29.3849 100.501C28.9949 101.491 28.5749 102.826 28.1249 104.506C27.5849 106.576 27.0449 108.241 26.5049 109.501C25.9649 110.731 25.1249 111.796 23.9849 112.696C22.8149 113.566 21.2549 114.001 19.3049 114.001C17.5949 114.001 16.0799 113.566 14.7599 112.696C13.4399 111.826 12.4199 110.611 11.6999 109.051C10.9799 107.461 10.6199 105.646 10.6199 103.606C10.6199 100.666 11.3549 98.2661 12.8249 96.4061C14.2949 94.5161 16.2449 93.4511 18.6749 93.2111L18.6749 97.7111C17.4749 97.8611 16.4249 98.4911 15.5249 99.6011C14.5949 100.711 14.1299 102.181 14.1299 104.011C14.1299 105.721 14.5799 107.116 15.4799 108.196C16.3499 109.276 17.5799 109.816 19.1699 109.816C20.3099 109.816 21.2399 109.501 21.9599 108.871C22.6799 108.211 23.2349 107.416 23.6249 106.486C23.9849 105.526 24.4049 104.191 24.8849 102.481C25.4549 100.411 26.0249 98.7461 26.5949 97.4861C27.1349 96.2261 27.9899 95.1461 29.1599 94.2461C30.2999 93.3461 31.8599 92.8961 33.8399 92.8961C35.3699 92.8961 36.8099 93.3011 38.1599 94.1111C39.5099 94.9211 40.6049 96.1211 41.4449 97.7111C42.2849 99.3011 42.7049 101.176 42.7049 103.336ZM14.3549 82.775L24.8399 82.775L24.8399 71.345L28.2149 71.345L28.2149 82.775L39.0149 82.775L39.0149 69.995L42.3899 69.995L42.3899 86.87L10.9799 86.87L10.9799 69.995L14.3549 69.995L14.3549 82.775ZM11.2499 31.9837L42.3899 31.9837L42.3899 36.0787L19.1699 36.0787L42.3899 46.4287L42.3899 49.3087L19.1249 59.7037L42.3899 59.7037L42.3899 63.7987L11.2499 63.7987L11.2499 59.3887L36.9899 47.8687L11.2499 36.3487L11.2499 31.9837Z" fill="white"/>
<defs>
<linearGradient id="paint0_linear_258_30" x1="-86.7239" y1="238.878" x2="-86.7239" y2="-31.571" gradientUnits="userSpaceOnUse">
<stop stop-color="#FF1A55"/>
<stop offset="0.567308" stop-color="#A21F8A"/>
</linearGradient>
</defs>
</svg>
