<svg width="196" height="42" viewBox="0 0 196 42" fill="none" xmlns="http://www.w3.org/2000/svg">
<path d="M187.769 40L-0.000100522 40" stroke="url(#paint0_linear_258_54)" stroke-width="3"/>
<path d="M10.0437 30.42C8.8304 30.42 7.66374 30.2567 6.54374 29.93C5.42374 29.58 4.4204 29.1017 3.53374 28.495L3.53374 24.26C4.1404 25.8233 5.06207 27.0133 6.29874 27.83C7.55874 28.6233 8.8654 29.02 10.2187 29.02C11.5721 29.02 12.7037 28.5767 13.6137 27.69C14.5237 26.78 14.9787 25.66 14.9787 24.33C14.9787 23.4433 14.7921 22.685 14.4187 22.055C14.0687 21.425 13.4971 20.8417 12.7037 20.305C11.9104 19.745 10.7904 19.1267 9.34374 18.45C7.31374 17.5167 5.83207 16.5483 4.89874 15.545C3.98874 14.5183 3.53374 13.2817 3.53374 11.835C3.53374 10.5983 3.8254 9.50167 4.40874 8.545C5.0154 7.565 5.8204 6.81833 6.82374 6.305C7.8504 5.76833 8.9704 5.5 10.1837 5.5C11.2337 5.5 12.2604 5.65167 13.2637 5.955C14.2671 6.235 15.2004 6.64334 16.0637 7.18L16.0637 10.96C15.5037 9.67667 14.6521 8.685 13.5087 7.985C12.3887 7.26167 11.2454 6.9 10.0787 6.9C8.74874 6.9 7.6754 7.33167 6.85874 8.195C6.04207 9.05833 5.63374 10.085 5.63374 11.275C5.63374 12.1383 5.87874 12.885 6.36874 13.515C6.85874 14.1217 7.45374 14.635 8.15374 15.055C8.87707 15.475 9.8804 15.9883 11.1637 16.595C12.4704 17.225 13.5437 17.8083 14.3837 18.345C15.2237 18.8817 15.9237 19.5817 16.4837 20.445C17.0437 21.3083 17.3237 22.3583 17.3237 23.595C17.3237 24.995 16.9854 26.2083 16.3087 27.235C15.6554 28.2617 14.7687 29.055 13.6487 29.615C12.5521 30.1517 11.3504 30.42 10.0437 30.42ZM22.1649 30C22.1649 30.07 22.3049 30.0233 22.5849 29.86C22.8649 29.6733 23.1099 29.3233 23.3199 28.81C23.5533 28.2733 23.6699 27.5033 23.6699 26.5L23.6699 9.315C23.6699 8.35833 23.5533 7.635 23.3199 7.145C23.1099 6.63167 22.8649 6.28167 22.5849 6.095C22.3049 5.90833 22.1649 5.85 22.1649 5.92L34.8349 5.92L34.8349 9.42C34.4149 8.02 33.1549 7.32 31.0549 7.32L26.1899 7.32L26.1899 17.26L32.2099 17.26C32.6766 17.26 33.0733 17.19 33.3999 17.05C33.7266 16.8867 33.9716 16.7233 34.1349 16.56C34.2983 16.3967 34.3916 16.2917 34.4149 16.245L34.4149 19.64C34.3916 19.5933 34.2983 19.4883 34.1349 19.325C33.9716 19.1617 33.7266 19.01 33.3999 18.87C33.0966 18.73 32.7116 18.66 32.2449 18.66L26.1899 18.66L26.1899 28.6L31.6499 28.6C32.6999 28.6 33.5983 28.39 34.3449 27.97C35.1149 27.5267 35.6633 26.9667 35.9899 26.29L35.3599 30L22.1649 30ZM39.9212 18.24C39.9212 15.7667 40.4462 13.5617 41.4962 11.625C42.5695 9.68833 44.0628 8.18333 45.9762 7.11C47.9128 6.03667 50.1412 5.5 52.6612 5.5C54.7612 5.5 56.7212 5.96667 58.5412 6.9C60.3845 7.81 61.8545 9.18667 62.9512 11.03C64.0712 12.8733 64.6312 15.09 64.6312 17.68C64.6312 20.1533 64.0945 22.3583 63.0212 24.295C61.9712 26.2317 60.4778 27.7367 58.5412 28.81C56.6278 29.8833 54.4112 30.42 51.8912 30.42C49.7912 30.42 47.8195 29.965 45.9762 29.055C44.1562 28.1217 42.6862 26.7333 41.5662 24.89C40.4695 23.0467 39.9212 20.83 39.9212 18.24ZM61.8312 18.205C61.8312 16.0817 61.3878 14.1683 60.5012 12.465C59.6378 10.7383 58.4362 9.39667 56.8962 8.44C55.3795 7.46 53.6645 6.97 51.7512 6.97C50.0012 6.97 48.4378 7.41333 47.0612 8.3C45.7078 9.18667 44.6462 10.4467 43.8762 12.08C43.1062 13.69 42.7212 15.5683 42.7212 17.715C42.7212 19.8383 43.1528 21.7633 44.0162 23.49C44.9028 25.1933 46.1045 26.535 47.6212 27.515C49.1612 28.4717 50.8878 28.95 52.8012 28.95C54.5512 28.95 56.1028 28.5067 57.4562 27.62C58.8328 26.7333 59.9062 25.485 60.6762 23.875C61.4462 22.2417 61.8312 20.3517 61.8312 18.205ZM77.0988 31.015L88.1238 4.555L89.6988 4.555L78.7788 31.015L77.0988 31.015ZM108.003 30.42C106.789 30.42 105.623 30.2567 104.503 29.93C103.383 29.58 102.379 29.1017 101.493 28.495L101.493 24.26C102.099 25.8233 103.021 27.0133 104.258 27.83C105.518 28.6233 106.824 29.02 108.178 29.02C109.531 29.02 110.663 28.5767 111.573 27.69C112.483 26.78 112.938 25.66 112.938 24.33C112.938 23.4433 112.751 22.685 112.378 22.055C112.028 21.425 111.456 20.8417 110.663 20.305C109.869 19.745 108.749 19.1267 107.303 18.45C105.273 17.5167 103.791 16.5483 102.858 15.545C101.948 14.5183 101.493 13.2817 101.493 11.835C101.493 10.5983 101.784 9.50167 102.368 8.545C102.974 7.565 103.779 6.81833 104.783 6.305C105.809 5.76833 106.929 5.5 108.143 5.5C109.193 5.5 110.219 5.65167 111.223 5.955C112.226 6.235 113.159 6.64333 114.023 7.18L114.023 10.96C113.463 9.67667 112.611 8.685 111.468 7.985C110.348 7.26167 109.204 6.9 108.038 6.9C106.708 6.9 105.634 7.33167 104.818 8.195C104.001 9.05833 103.593 10.085 103.593 11.275C103.593 12.1383 103.838 12.885 104.328 13.515C104.818 14.1217 105.413 14.635 106.113 15.055C106.836 15.475 107.839 15.9883 109.123 16.595C110.429 17.225 111.503 17.8083 112.343 18.345C113.183 18.8817 113.883 19.5817 114.443 20.445C115.003 21.3083 115.283 22.3583 115.283 23.595C115.283 24.995 114.944 26.2083 114.268 27.235C113.614 28.2617 112.728 29.055 111.608 29.615C110.511 30.1517 109.309 30.42 108.003 30.42ZM120.124 30C120.124 30.07 120.264 30.0233 120.544 29.86C120.824 29.6733 121.069 29.3233 121.279 28.81C121.512 28.2733 121.629 27.5033 121.629 26.5L121.629 9.315C121.629 8.35833 121.512 7.635 121.279 7.145C121.069 6.63167 120.824 6.28167 120.544 6.095C120.264 5.90833 120.124 5.85 120.124 5.92L132.794 5.92L132.794 9.42C132.374 8.02 131.114 7.32 129.014 7.32L124.149 7.32L124.149 17.26L130.169 17.26C130.636 17.26 131.032 17.19 131.359 17.05C131.686 16.8867 131.931 16.7233 132.094 16.56C132.257 16.3967 132.351 16.2917 132.374 16.245L132.374 19.64C132.351 19.5933 132.257 19.4883 132.094 19.325C131.931 19.1617 131.686 19.01 131.359 18.87C131.056 18.73 130.671 18.66 130.204 18.66L124.149 18.66L124.149 28.6L129.609 28.6C130.659 28.6 131.557 28.39 132.304 27.97C133.074 27.5267 133.622 26.9667 133.949 26.29L133.319 30L120.124 30ZM158.88 30C159.16 29.9533 159.463 29.7083 159.79 29.265C160.117 28.7983 160.28 27.9467 160.28 26.71L160.28 9.21L151.11 30.385L141.8 9.245L141.8 26.535C141.8 27.795 141.998 28.6817 142.395 29.195C142.815 29.685 143.188 29.9533 143.515 30L138.335 30C138.685 29.9533 139.07 29.6967 139.49 29.23C139.91 28.74 140.12 27.8417 140.12 26.535L140.12 9C140.12 7.88 139.922 7.11 139.525 6.69C139.128 6.27 138.732 6.01333 138.335 5.92L143.06 5.92L151.635 25.485L160.07 5.92L164.305 5.92C164.002 5.96667 163.675 6.21167 163.325 6.655C162.975 7.09833 162.8 7.915 162.8 9.105L162.8 26.85C162.8 28.0167 162.975 28.8217 163.325 29.265C163.675 29.7083 164.002 29.9533 164.305 30L158.88 30Z" fill="white"/>
<defs>
<linearGradient id="paint0_linear_258_54" x1="18.8416" y1="200.167" x2="476.991" y2="200.167" gradientUnits="userSpaceOnUse">
<stop stop-color="#FF1A55"/>
<stop offset="0.158004" stop-color="#D81C6B"/>
<stop offset="0.375058" stop-color="#A21F8A"/>
</linearGradient>
</defs>
</svg>
