<svg width="380" height="76" viewBox="0 0 380 76" fill="none" xmlns="http://www.w3.org/2000/svg">
<path d="M93.2886 1.5L5.10216e-05 1.49999" stroke="url(#paint0_linear_258_57)" stroke-width="3"/>
<path d="M12.7652 55.9248C11.2052 55.9248 9.70524 55.7148 8.26524 55.2948C6.82524 54.8448 5.53524 54.2298 4.39524 53.4498L4.39524 48.0048C5.17524 50.0148 6.36024 51.5448 7.95024 52.5948C9.57024 53.6148 11.2502 54.1248 12.9902 54.1248C14.7302 54.1248 16.1852 53.5548 17.3552 52.4148C18.5252 51.2448 19.1102 49.8048 19.1102 48.0948C19.1102 46.9548 18.8702 45.9798 18.3902 45.1698C17.9402 44.3598 17.2052 43.6098 16.1852 42.9198C15.1652 42.1998 13.7252 41.4048 11.8652 40.5348C9.25524 39.3348 7.35024 38.0898 6.15024 36.7998C4.98024 35.4798 4.39524 33.8898 4.39524 32.0298C4.39524 30.4398 4.77024 29.0298 5.52024 27.7998C6.30024 26.5398 7.33524 25.5798 8.62524 24.9198C9.94524 24.2298 11.3852 23.8848 12.9452 23.8848C14.2952 23.8848 15.6152 24.0798 16.9052 24.4698C18.1952 24.8298 19.3952 25.3548 20.5052 26.0448L20.5052 30.9048C19.7852 29.2548 18.6902 27.9798 17.2202 27.0798C15.7802 26.1498 14.3102 25.6848 12.8102 25.6848C11.1002 25.6848 9.72024 26.2398 8.67024 27.3498C7.62024 28.4598 7.09524 29.7798 7.09524 31.3098C7.09524 32.4198 7.41024 33.3798 8.04024 34.1898C8.67024 34.9698 9.43524 35.6298 10.3352 36.1698C11.2652 36.7098 12.5552 37.3698 14.2052 38.1498C15.8852 38.9598 17.2652 39.7098 18.3452 40.3998C19.4252 41.0898 20.3252 41.9898 21.0452 43.0998C21.7652 44.2098 22.1252 45.5598 22.1252 47.1498C22.1252 48.9498 21.6902 50.5098 20.8202 51.8298C19.9802 53.1498 18.8402 54.1698 17.4002 54.8898C15.9902 55.5798 14.4452 55.9248 12.7652 55.9248ZM28.3497 55.3848C28.3497 55.4748 28.5297 55.4148 28.8897 55.2048C29.2497 54.9648 29.5647 54.5148 29.8347 53.8548C30.1347 53.1648 30.2847 52.1748 30.2847 50.8848L30.2847 28.7898C30.2847 27.5598 30.1347 26.6298 29.8347 25.9998C29.5647 25.3398 29.2497 24.8898 28.8897 24.6498C28.5297 24.4098 28.3497 24.3348 28.3497 24.4248L44.6397 24.4248L44.6397 28.9248C44.0997 27.1248 42.4797 26.2248 39.7797 26.2248L33.5247 26.2248L33.5247 39.0048L41.2647 39.0048C41.8647 39.0048 42.3747 38.9148 42.7947 38.7348C43.2147 38.5248 43.5297 38.3148 43.7397 38.1048C43.9497 37.8948 44.0697 37.7598 44.0997 37.6998L44.0997 42.0648C44.0697 42.0048 43.9497 41.8698 43.7397 41.6598C43.5297 41.4498 43.2147 41.2548 42.7947 41.0748C42.4047 40.8948 41.9097 40.8048 41.3097 40.8048L33.5247 40.8048L33.5247 53.5848L40.5447 53.5848C41.8947 53.5848 43.0497 53.3148 44.0097 52.7748C44.9997 52.2048 45.7047 51.4848 46.1247 50.6148L45.3147 55.3848L28.3497 55.3848ZM61.1691 39.8148C62.5491 39.8148 63.7491 39.4998 64.7691 38.8698C65.7891 38.2098 66.5541 37.3698 67.0641 36.3498C67.6041 35.2998 67.8741 34.2048 67.8741 33.0648C67.8741 31.8948 67.6191 30.7998 67.1091 29.7798C66.6291 28.7298 65.8791 27.8748 64.8591 27.2148C63.8391 26.5548 62.5941 26.2248 61.1241 26.2248L57.2991 26.2248L57.2991 51.2448C57.2991 52.4448 57.4491 53.3598 57.7491 53.9898C58.0491 54.5898 58.3791 54.9948 58.7391 55.2048C59.0991 55.3848 59.2791 55.4448 59.2791 55.3848L52.1241 55.3848C52.1241 55.4448 52.3041 55.3698 52.6641 55.1598C53.0241 54.9498 53.3391 54.5448 53.6091 53.9448C53.9091 53.3448 54.0591 52.4448 54.0591 51.2448L54.0591 28.7448C54.0591 27.5148 53.9091 26.5848 53.6091 25.9548C53.3391 25.2948 53.0241 24.8598 52.6641 24.6498C52.3041 24.4098 52.1241 24.3348 52.1241 24.4248L61.0341 24.4248C63.3741 24.4248 65.2941 24.8148 66.7941 25.5948C68.3241 26.3448 69.4191 27.3348 70.0791 28.5648C70.7691 29.7648 71.1141 31.0848 71.1141 32.5248C71.1141 33.7248 70.8291 34.9098 70.2591 36.0798C69.6891 37.2198 68.8641 38.2248 67.7841 39.0948C66.7341 39.9348 65.5041 40.5198 64.0941 40.8498L63.3741 40.9848L71.2941 51.0648C72.3441 52.2348 73.2141 53.1348 73.9041 53.7648C74.5941 54.3948 75.0891 54.8148 75.3891 55.0248C75.7191 55.2348 75.9141 55.3548 75.9741 55.3848L70.7091 55.3848L58.4691 39.8148L61.1691 39.8148ZM100.234 26.8098C100.234 26.2098 100.069 25.6998 99.7393 25.2798C99.4093 24.8298 98.8993 24.5448 98.2093 24.4248L105.769 24.4248C105.379 24.4848 104.854 24.8298 104.194 25.4598C103.534 26.0898 102.844 27.2598 102.124 28.9698L90.7393 56.4648L79.1743 28.8348C78.5143 27.2448 77.8543 26.1498 77.1943 25.5498C76.5643 24.9198 76.0393 24.5448 75.6193 24.4248L83.1343 24.4248C82.3243 24.6348 81.9193 25.1598 81.9193 25.9998C81.9193 26.4498 82.0243 26.9298 82.2343 27.4398C82.4443 27.9498 82.5643 28.2498 82.5943 28.3398L91.3243 49.7148L99.7843 28.9248C100.084 28.2348 100.234 27.5298 100.234 26.8098ZM108.241 55.3848C108.241 55.4748 108.421 55.4148 108.781 55.2048C109.141 54.9648 109.471 54.5448 109.771 53.9448C110.071 53.3148 110.221 52.3998 110.221 51.1998L110.221 28.6098C110.221 27.4098 110.071 26.5098 109.771 25.9098C109.501 25.2798 109.186 24.8598 108.826 24.6498C108.466 24.4398 108.286 24.3648 108.286 24.4248L115.441 24.4248C115.441 24.3648 115.261 24.4398 114.901 24.6498C114.541 24.8598 114.211 25.2798 113.911 25.9098C113.611 26.5098 113.461 27.4098 113.461 28.6098L113.461 51.1998C113.461 52.3998 113.611 53.3148 113.911 53.9448C114.211 54.5448 114.541 54.9498 114.901 55.1598C115.261 55.3698 115.441 55.4448 115.441 55.3848L108.241 55.3848ZM147.1 52.6398C145.96 53.5698 144.475 54.3498 142.645 54.9798C140.815 55.6098 138.97 55.9248 137.11 55.9248C134.32 55.9248 131.725 55.2798 129.325 53.9898C126.925 52.6998 124.99 50.8398 123.52 48.4098C122.08 45.9798 121.36 43.1298 121.36 39.8598C121.36 36.7998 122.02 34.0548 123.34 31.6248C124.69 29.1948 126.595 27.3048 129.055 25.9548C131.545 24.5748 134.44 23.8848 137.74 23.8848C141.25 23.8848 144.37 24.6498 147.1 26.1798V31.1748C146.17 29.5248 144.82 28.2198 143.05 27.2598C141.28 26.2698 139.39 25.7748 137.38 25.7748C134.83 25.7748 132.61 26.3748 130.72 27.5748C128.86 28.7748 127.435 30.4248 126.445 32.5248C125.455 34.5948 124.96 36.9198 124.96 39.4998C124.96 42.4098 125.515 44.9448 126.625 47.1048C127.765 49.2648 129.295 50.9298 131.215 52.0998C133.135 53.2398 135.28 53.8098 137.65 53.8098C141.46 53.8098 144.61 52.6998 147.1 50.4798V52.6398ZM153.944 55.3848C153.944 55.4748 154.124 55.4148 154.484 55.2048C154.844 54.9648 155.174 54.5448 155.474 53.9448C155.774 53.3148 155.924 52.3998 155.924 51.1998L155.924 28.6098C155.924 27.4098 155.774 26.5098 155.474 25.9098C155.204 25.2798 154.889 24.8598 154.529 24.6498C154.169 24.4398 153.989 24.3648 153.989 24.4248L161.144 24.4248C161.144 24.3648 160.964 24.4398 160.604 24.6498C160.244 24.8598 159.914 25.2798 159.614 25.9098C159.314 26.5098 159.164 27.4098 159.164 28.6098L159.164 51.1998C159.164 52.3998 159.314 53.3148 159.614 53.9448C159.914 54.5448 160.244 54.9498 160.604 55.1598C160.964 55.3698 161.144 55.4448 161.144 55.3848L153.944 55.3848ZM167.063 40.2648C167.063 37.0848 167.738 34.2498 169.088 31.7598C170.468 29.2698 172.388 27.3348 174.848 25.9548C177.338 24.5748 180.203 23.8848 183.443 23.8848C186.143 23.8848 188.663 24.4848 191.003 25.6848C193.373 26.8548 195.263 28.6248 196.673 30.9948C198.113 33.3648 198.833 36.2148 198.833 39.5448C198.833 42.7248 198.143 45.5598 196.763 48.0498C195.413 50.5398 193.493 52.4748 191.003 53.8548C188.543 55.2348 185.693 55.9248 182.453 55.9248C179.753 55.9248 177.218 55.3398 174.848 54.1698C172.508 52.9698 170.618 51.1848 169.178 48.8148C167.768 46.4448 167.063 43.5948 167.063 40.2648ZM195.233 40.2198C195.233 37.4898 194.663 35.0298 193.523 32.8398C192.413 30.6198 190.868 28.8948 188.888 27.6648C186.938 26.4048 184.733 25.7748 182.273 25.7748C180.023 25.7748 178.013 26.3448 176.243 27.4848C174.503 28.6248 173.138 30.2448 172.148 32.3448C171.158 34.4148 170.663 36.8298 170.663 39.5898C170.663 42.3198 171.218 44.7948 172.328 47.0148C173.468 49.2048 175.013 50.9298 176.963 52.1898C178.943 53.4198 181.163 54.0348 183.623 54.0348C185.873 54.0348 187.868 53.4648 189.608 52.3248C191.378 51.1848 192.758 49.5798 193.748 47.5098C194.738 45.4098 195.233 42.9798 195.233 40.2198ZM213.024 55.9248C211.464 55.9248 209.964 55.7148 208.524 55.2948C207.084 54.8448 205.794 54.2298 204.654 53.4498V48.0048C205.434 50.0148 206.619 51.5448 208.209 52.5948C209.829 53.6148 211.509 54.1248 213.249 54.1248C214.989 54.1248 216.444 53.5548 217.614 52.4148C218.784 51.2448 219.369 49.8048 219.369 48.0948C219.369 46.9548 219.129 45.9798 218.649 45.1698C218.199 44.3598 217.464 43.6098 216.444 42.9198C215.424 42.1998 213.984 41.4048 212.124 40.5348C209.514 39.3348 207.609 38.0898 206.409 36.7998C205.239 35.4798 204.654 33.8898 204.654 32.0298C204.654 30.4398 205.029 29.0298 205.779 27.7998C206.559 26.5398 207.594 25.5798 208.884 24.9198C210.204 24.2298 211.644 23.8848 213.204 23.8848C214.554 23.8848 215.874 24.0798 217.164 24.4698C218.454 24.8298 219.654 25.3548 220.764 26.0448V30.9048C220.044 29.2548 218.949 27.9798 217.479 27.0798C216.039 26.1498 214.569 25.6848 213.069 25.6848C211.359 25.6848 209.979 26.2398 208.929 27.3498C207.879 28.4598 207.354 29.7798 207.354 31.3098C207.354 32.4198 207.669 33.3798 208.299 34.1898C208.929 34.9698 209.694 35.6298 210.594 36.1698C211.524 36.7098 212.814 37.3698 214.464 38.1498C216.144 38.9598 217.524 39.7098 218.604 40.3998C219.684 41.0898 220.584 41.9898 221.304 43.0998C222.024 44.2098 222.384 45.5598 222.384 47.1498C222.384 48.9498 221.949 50.5098 221.079 51.8298C220.239 53.1498 219.099 54.1698 217.659 54.8898C216.249 55.5798 214.704 55.9248 213.024 55.9248Z" fill="white"/>
<defs>
<linearGradient id="paint0_linear_258_57" x1="8.7132" y1="161.667" x2="220.579" y2="161.667" gradientUnits="userSpaceOnUse">
<stop stop-color="#FF1A55"/>
<stop offset="0.298077" stop-color="#A21F8A"/>
</linearGradient>
</defs>
</svg>
