<svg width="162" height="572" viewBox="0 0 162 572" fill="none" xmlns="http://www.w3.org/2000/svg">
<path d="M1.5 405.495L1.49999 571.495" stroke="url(#paint0_linear_258_27)" stroke-width="3"/>
<path d="M149.06 547.16C149.06 550.84 148.42 554.147 147.14 557.08C145.807 559.96 143.993 562.227 141.7 563.88C139.353 565.533 136.66 566.387 133.62 566.44L133.62 558.68C136.233 558.413 138.447 557.347 140.26 555.48C142.02 553.56 142.9 550.787 142.9 547.16C142.9 543.693 142.047 540.973 140.34 539C138.58 536.973 136.34 535.96 133.62 535.96C131.487 535.96 129.753 536.547 128.42 537.72C127.087 538.893 126.073 540.36 125.38 542.12C124.687 543.88 123.94 546.253 123.14 549.24C122.18 552.92 121.22 555.88 120.26 558.12C119.3 560.307 117.807 562.2 115.78 563.8C113.7 565.347 110.927 566.12 107.46 566.12C104.42 566.12 101.727 565.347 99.38 563.8C97.0333 562.253 95.22 560.093 93.94 557.32C92.66 554.493 92.02 551.267 92.02 547.64C92.02 542.413 93.3267 538.147 95.94 534.84C98.5533 531.48 102.02 529.587 106.34 529.16L106.34 537.16C104.207 537.427 102.34 538.547 100.74 540.52C99.0867 542.493 98.26 545.107 98.26 548.36C98.26 551.4 99.06 553.88 100.66 555.8C102.207 557.72 104.393 558.68 107.22 558.68C109.247 558.68 110.9 558.12 112.18 557C113.46 555.827 114.447 554.413 115.14 552.76C115.78 551.053 116.527 548.68 117.38 545.64C118.393 541.96 119.407 539 120.42 536.76C121.38 534.52 122.9 532.6 124.98 531C127.007 529.4 129.78 528.6 133.3 528.6C136.02 528.6 138.58 529.32 140.98 530.76C143.38 532.2 145.327 534.333 146.82 537.16C148.313 539.987 149.06 543.32 149.06 547.16ZM98.66 510.607L117.3 510.607L117.3 490.287L123.3 490.287L123.3 510.607L142.5 510.607L142.5 487.887L148.5 487.887L148.5 517.887L92.66 517.887L92.66 487.887L98.66 487.887L98.66 510.607ZM148.5 447.511L125.7 460.791L125.7 469.591L148.5 469.591L148.5 476.871L92.74 476.871L92.74 458.871C92.74 454.658 93.46 451.111 94.9 448.231C96.34 445.298 98.2867 443.111 100.74 441.671C103.193 440.231 105.993 439.511 109.14 439.511C112.98 439.511 116.367 440.631 119.3 442.871C122.233 445.058 124.18 448.365 125.14 452.791L148.5 438.791L148.5 447.511ZM119.86 469.591L119.86 458.871C119.86 454.925 118.9 451.965 116.98 449.991C115.007 448.018 112.393 447.031 109.14 447.031C105.833 447.031 103.273 448.018 101.46 449.991C99.6467 451.911 98.74 454.871 98.74 458.871L98.74 469.591L119.86 469.591ZM92.74 382.119L148.5 403.159L148.5 411.559L92.74 432.599L92.74 424.839L140.82 407.319L92.74 389.799L92.74 382.119ZM92.74 366.857L148.5 366.857L148.5 374.137L92.74 374.137L92.74 366.857ZM120.58 357.169C115.14 357.169 110.26 355.943 105.94 353.489C101.567 351.036 98.1533 347.703 95.7 343.489C93.2467 339.223 92.02 334.503 92.02 329.329C92.02 323.249 93.4867 317.943 96.42 313.409C99.3533 308.876 103.513 305.569 108.9 303.489L108.9 312.209C105.54 313.756 102.953 315.996 101.14 318.929C99.3267 321.809 98.42 325.276 98.42 329.329C98.42 333.223 99.3267 336.716 101.14 339.809C102.953 342.903 105.54 345.329 108.9 347.089C112.207 348.849 116.1 349.729 120.58 349.729C125.007 349.729 128.9 348.849 132.26 347.089C135.567 345.329 138.127 342.903 139.94 339.809C141.753 336.716 142.66 333.223 142.66 329.329C142.66 325.276 141.78 321.809 140.02 318.929C138.207 315.996 135.62 313.756 132.26 312.209L132.26 303.489C137.593 305.569 141.727 308.876 144.66 313.409C147.54 317.943 148.98 323.249 148.98 329.329C148.98 334.503 147.78 339.223 145.38 343.489C142.927 347.703 139.54 351.036 135.22 353.489C130.9 355.943 126.02 357.169 120.58 357.169ZM98.66 285.372L117.3 285.372L117.3 265.052L123.3 265.052L123.3 285.372L142.5 285.372L142.5 262.652L148.5 262.652L148.5 292.652L92.66 292.652L92.66 262.652L98.66 262.652L98.66 285.372ZM149.06 233.957C149.06 237.637 148.42 240.944 147.14 243.877C145.807 246.757 143.993 249.024 141.7 250.677C139.353 252.33 136.66 253.184 133.62 253.237L133.62 245.477C136.233 245.21 138.447 244.144 140.26 242.277C142.02 240.357 142.9 237.584 142.9 233.957C142.9 230.49 142.047 227.77 140.34 225.797C138.58 223.77 136.34 222.757 133.62 222.757C131.487 222.757 129.753 223.344 128.42 224.517C127.087 225.69 126.073 227.157 125.38 228.917C124.687 230.677 123.94 233.05 123.14 236.037C122.18 239.717 121.22 242.677 120.26 244.917C119.3 247.104 117.807 248.997 115.78 250.597C113.7 252.144 110.927 252.917 107.46 252.917C104.42 252.917 101.727 252.144 99.38 250.597C97.0333 249.05 95.22 246.89 93.94 244.117C92.66 241.29 92.02 238.064 92.02 234.437C92.02 229.21 93.3266 224.944 95.94 221.637C98.5533 218.277 102.02 216.384 106.34 215.957L106.34 223.957C104.207 224.224 102.34 225.344 100.74 227.317C99.0867 229.29 98.26 231.904 98.26 235.157C98.26 238.197 99.06 240.677 100.66 242.597C102.207 244.517 104.393 245.477 107.22 245.477C109.247 245.477 110.9 244.917 112.18 243.797C113.46 242.624 114.447 241.21 115.14 239.557C115.78 237.85 116.527 235.477 117.38 232.437C118.393 228.757 119.407 225.797 120.42 223.557C121.38 221.317 122.9 219.397 124.98 217.797C127.007 216.197 129.78 215.397 133.3 215.397C136.02 215.397 138.58 216.117 140.98 217.557C143.38 218.997 145.327 221.13 146.82 223.957C148.313 226.784 149.06 230.117 149.06 233.957Z" fill="white"/>
<defs>
<linearGradient id="paint0_linear_258_27" x1="286.505" y1="555.991" x2="286.505" y2="178.991" gradientUnits="userSpaceOnUse">
<stop stop-color="#FF1A55"/>
<stop offset="0.360577" stop-color="#A21F8A"/>
</linearGradient>
</defs>
</svg>
