<svg width="380" height="76" viewBox="0 0 380 76" fill="none" xmlns="http://www.w3.org/2000/svg">
<path d="M93.2886 1.5L5.10216e-05 1.49999" stroke="url(#paint0_linear_317_7)" stroke-width="3"/>
<path d="M14.1602 66.6998C12.0902 66.6998 10.2302 66.3398 8.58024 65.6198C6.96024 64.8698 5.68524 63.8498 4.75524 62.5598C3.82524 61.2398 3.34524 59.7248 3.31524 58.0148L7.68024 58.0148C7.83024 59.4848 8.43024 60.7298 9.48024 61.7498C10.5602 62.7398 12.1202 63.2348 14.1602 63.2348C16.1102 63.2348 17.6402 62.7548 18.7502 61.7948C19.8902 60.8048 20.4602 59.5448 20.4602 58.0148C20.4602 56.8148 20.1302 55.8398 19.4702 55.0898C18.8102 54.3398 17.9852 53.7698 16.9952 53.3798C16.0052 52.9898 14.6702 52.5698 12.9902 52.1198C10.9202 51.5798 9.25524 51.0398 7.99524 50.4998C6.76524 49.9598 5.70024 49.1198 4.80024 47.9798C3.93024 46.8098 3.49524 45.2498 3.49524 43.2998C3.49524 41.5898 3.93024 40.0748 4.80024 38.7548C5.67024 37.4348 6.88524 36.4148 8.44524 35.6948C10.0352 34.9748 11.8502 34.6148 13.8902 34.6148C16.8302 34.6148 19.2302 35.3498 21.0902 36.8198C22.9802 38.2898 24.0452 40.2398 24.2852 42.6698L19.7852 42.6698C19.6352 41.4698 19.0052 40.4198 17.8952 39.5198C16.7852 38.5898 15.3152 38.1248 13.4852 38.1248C11.7752 38.1248 10.3802 38.5748 9.30024 39.4748C8.22024 40.3448 7.68024 41.5748 7.68024 43.1648C7.68024 44.3048 7.99524 45.2348 8.62524 45.9548C9.28524 46.6748 10.0802 47.2298 11.0102 47.6198C11.9702 47.9798 13.3052 48.3998 15.0152 48.8798C17.0852 49.4498 18.7502 50.0198 20.0102 50.5898C21.2702 51.1298 22.3502 51.9848 23.2502 53.1548C24.1502 54.2948 24.6002 55.8548 24.6002 57.8348C24.6002 59.3648 24.1952 60.8048 23.3852 62.1548C22.5752 63.5048 21.3752 64.5998 19.7852 65.4398C18.1952 66.2798 16.3202 66.6998 14.1602 66.6998ZM34.7214 38.3498L34.7214 48.8348L46.1514 48.8348V52.2098L34.7214 52.2098L34.7214 63.0098L47.5014 63.0098L47.5014 66.3848L30.6264 66.3848L30.6264 34.9748L47.5014 34.9748L47.5014 38.3498L34.7214 38.3498ZM70.2127 66.3848L62.7427 53.5598L57.7927 53.5598L57.7927 66.3848L53.6977 66.3848L53.6977 35.0198L63.8227 35.0198C66.1927 35.0198 68.1877 35.4248 69.8077 36.2348C71.4577 37.0448 72.6877 38.1398 73.4977 39.5198C74.3077 40.8998 74.7127 42.4748 74.7127 44.2448C74.7127 46.4048 74.0827 48.3098 72.8227 49.9598C71.5927 51.6098 69.7327 52.7048 67.2427 53.2448L75.1177 66.3848L70.2127 66.3848ZM57.7927 50.2748L63.8227 50.2748C66.0427 50.2748 67.7077 49.7348 68.8177 48.6548C69.9277 47.5448 70.4827 46.0748 70.4827 44.2448C70.4827 42.3848 69.9277 40.9448 68.8177 39.9248C67.7377 38.9048 66.0727 38.3948 63.8227 38.3948L57.7927 38.3948L57.7927 50.2748ZM106.996 35.0198L95.1606 66.3848L90.4356 66.3848L78.6006 35.0198H82.9656L92.8206 62.0648L102.676 35.0198H106.996ZM115.581 35.0198L115.581 66.3848H111.486L111.486 35.0198H115.581ZM121.03 50.6798C121.03 47.6198 121.72 44.8748 123.1 42.4448C124.48 39.9848 126.355 38.0648 128.725 36.6848C131.125 35.3048 133.78 34.6148 136.69 34.6148C140.11 34.6148 143.095 35.4398 145.645 37.0898C148.195 38.7398 150.055 41.0798 151.225 44.1098L146.32 44.1098C145.45 42.2198 144.19 40.7648 142.54 39.7448C140.92 38.7248 138.97 38.2148 136.69 38.2148C134.5 38.2148 132.535 38.7248 130.795 39.7448C129.055 40.7648 127.69 42.2198 126.7 44.1098C125.71 45.9698 125.215 48.1598 125.215 50.6798C125.215 53.1698 125.71 55.3598 126.7 57.2498C127.69 59.1098 129.055 60.5498 130.795 61.5698C132.535 62.5898 134.5 63.0998 136.69 63.0998C138.97 63.0998 140.92 62.6048 142.54 61.6148C144.19 60.5948 145.45 59.1398 146.32 57.2498L151.225 57.2498C150.055 60.2498 148.195 62.5748 145.645 64.2248C143.095 65.8448 140.11 66.6548 136.69 66.6548C133.78 66.6548 131.125 65.9798 128.725 64.6298C126.355 63.2498 124.48 61.3448 123.1 58.9148C121.72 56.4848 121.03 53.7398 121.03 50.6798ZM161.416 38.3498L161.416 48.8348L172.846 48.8348V52.2098L161.416 52.2098L161.416 63.0098L174.196 63.0098V66.3848L157.321 66.3848L157.321 34.9748L174.196 34.9748V38.3498L161.416 38.3498ZM190.337 66.6998C188.267 66.6998 186.407 66.3398 184.757 65.6198C183.137 64.8698 181.862 63.8498 180.932 62.5598C180.002 61.2398 179.522 59.7248 179.492 58.0148L183.857 58.0148C184.007 59.4848 184.607 60.7298 185.657 61.7498C186.737 62.7398 188.297 63.2348 190.337 63.2348C192.287 63.2348 193.817 62.7548 194.927 61.7948C196.067 60.8048 196.637 59.5448 196.637 58.0148C196.637 56.8148 196.307 55.8398 195.647 55.0898C194.987 54.3398 194.162 53.7698 193.172 53.3798C192.182 52.9898 190.847 52.5698 189.167 52.1198C187.097 51.5798 185.432 51.0398 184.172 50.4998C182.942 49.9598 181.877 49.1198 180.977 47.9798C180.107 46.8098 179.672 45.2498 179.672 43.2998C179.672 41.5898 180.107 40.0748 180.977 38.7548C181.847 37.4348 183.062 36.4148 184.622 35.6948C186.212 34.9748 188.027 34.6148 190.067 34.6148C193.007 34.6148 195.407 35.3498 197.267 36.8198C199.157 38.2898 200.222 40.2398 200.462 42.6698L195.962 42.6698C195.812 41.4698 195.182 40.4198 194.072 39.5198C192.962 38.5898 191.492 38.1248 189.662 38.1248C187.952 38.1248 186.557 38.5748 185.477 39.4748C184.397 40.3448 183.857 41.5748 183.857 43.1648C183.857 44.3048 184.172 45.2348 184.802 45.9548C185.462 46.6748 186.257 47.2298 187.187 47.6198C188.147 47.9798 189.482 48.3998 191.192 48.8798C193.262 49.4498 194.927 50.0198 196.187 50.5898C197.447 51.1298 198.527 51.9848 199.427 53.1548C200.327 54.2948 200.777 55.8548 200.777 57.8348C200.777 59.3648 200.372 60.8048 199.562 62.1548C198.752 63.5048 197.552 64.5998 195.962 65.4398C194.372 66.2798 192.497 66.6998 190.337 66.6998Z" fill="white"/>
<defs>
<linearGradient id="paint0_linear_317_7" x1="8.7132" y1="161.667" x2="220.579" y2="161.667" gradientUnits="userSpaceOnUse">
<stop stop-color="#FF1A55"/>
<stop offset="0.298077" stop-color="#A21F8A"/>
</linearGradient>
</defs>
</svg>
