<svg width="380" height="76" viewBox="0 0 380 76" fill="none" xmlns="http://www.w3.org/2000/svg">
<path d="M93.2886 1.5L5.10216e-05 1.49999" stroke="url(#paint0_linear_258_57)" stroke-width="3"/>
<path d="M14.1602 66.6998C12.0902 66.6998 10.2302 66.3398 8.58024 65.6198C6.96024 64.8698 5.68524 63.8498 4.75524 62.5598C3.82524 61.2398 3.34524 59.7248 3.31524 58.0148L7.68024 58.0148C7.83024 59.4848 8.43024 60.7298 9.48024 61.7498C10.5602 62.7398 12.1202 63.2348 14.1602 63.2348C16.1102 63.2348 17.6402 62.7548 18.7502 61.7948C19.8902 60.8048 20.4602 59.5448 20.4602 58.0148C20.4602 56.8148 20.1302 55.8398 19.4702 55.0898C18.8102 54.3398 17.9852 53.7698 16.9952 53.3798C16.0052 52.9898 14.6702 52.5698 12.9902 52.1198C10.9202 51.5798 9.25524 51.0398 7.99524 50.4998C6.76524 49.9598 5.70024 49.1198 4.80024 47.9798C3.93024 46.8098 3.49524 45.2498 3.49524 43.2998C3.49524 41.5898 3.93024 40.0748 4.80024 38.7548C5.67024 37.4348 6.88524 36.4148 8.44524 35.6948C10.0352 34.9748 11.8502 34.6148 13.8902 34.6148C16.8302 34.6148 19.2302 35.3498 21.0902 36.8198C22.9802 38.2898 24.0452 40.2398 24.2852 42.6698L19.7852 42.6698C19.6352 41.4698 19.0052 40.4198 17.8952 39.5198C16.7852 38.5898 15.3152 38.1248 13.4852 38.1248C11.7752 38.1248 10.3802 38.5748 9.30024 39.4748C8.22024 40.3448 7.68024 41.5748 7.68024 43.1648C7.68024 44.3048 7.99524 45.2348 8.62524 45.9548C9.28524 46.6748 10.0802 47.2298 11.0102 47.6198C11.9702 47.9798 13.3052 48.3998 15.0152 48.8798C17.0852 49.4498 18.7502 50.0198 20.0102 50.5898C21.2702 51.1298 22.3502 51.9848 23.2502 53.1548C24.1502 54.2948 24.6002 55.8548 24.6002 57.8348C24.6002 59.3648 24.1952 60.8048 23.3852 62.1548C22.5752 63.5048 21.3752 64.5998 19.7852 65.4398C18.1952 66.2798 16.3202 66.6998 14.1602 66.6998ZM34.7214 38.3498L34.7214 48.8348L46.1514 48.8348V52.2098L34.7214 52.2098L34.7214 63.0098L47.5014 63.0098L47.5014 66.3848L30.6264 66.3848L30.6264 34.9748L47.5014 34.9748L47.5014 38.3498L34.7214 38.3498ZM70.2127 66.3848L62.7427 53.5598L57.7927 53.5598L57.7927 66.3848L53.6977 66.3848L53.6977 35.0198L63.8227 35.0198C66.1927 35.0198 68.1877 35.4248 69.8077 36.2348C71.4577 37.0448 72.6877 38.1398 73.4977 39.5198C74.3077 40.8998 74.7127 42.4748 74.7127 44.2448C74.7127 46.4048 74.0827 48.3098 72.8227 49.9598C71.5927 51.6098 69.7327 52.7048 67.2427 53.2448L75.1177 66.3848L70.2127 66.3848ZM57.7927 50.2748L63.8227 50.2748C66.0427 50.2748 67.7077 49.7348 68.8177 48.6548C69.9277 47.5448 70.4827 46.0748 70.4827 44.2448C70.4827 42.3848 69.9277 40.9448 68.8177 39.9248C67.7377 38.9048 66.0727 38.3948 63.8227 38.3948L57.7927 38.3948L57.7927 50.2748ZM106.996 35.0198L95.1606 66.3848L90.4356 66.3848L78.6006 35.0198H82.9656L92.8206 62.0648L102.676 35.0198H106.996ZM115.581 35.0198L115.581 66.3848H111.486L111.486 35.0198H115.581ZM121.03 50.6798C121.03 47.6198 121.72 44.8748 123.1 42.4448C124.48 39.9848 126.355 38.0648 128.725 36.6848C131.125 35.3048 133.78 34.6148 136.69 34.6148C140.11 34.6148 143.095 35.4398 145.645 37.0898C148.195 38.7398 150.055 41.0798 151.225 44.1098L146.32 44.1098C145.45 42.2198 144.19 40.7648 142.54 39.7448C140.92 38.7248 138.97 38.2148 136.69 38.2148C134.5 38.2148 132.535 38.7248 130.795 39.7448C129.055 40.7648 127.69 42.2198 126.7 44.1098C125.71 45.9698 125.215 48.1598 125.215 50.6798C125.215 53.1698 125.71 55.3598 126.7 57.2498C127.69 59.1098 129.055 60.5498 130.795 61.5698C132.535 62.5898 134.5 63.0998 136.69 63.0998C138.97 63.0998 140.92 62.6048 142.54 61.6148C144.19 60.5948 145.45 59.1398 146.32 57.2498L151.225 57.2498C150.055 60.2498 148.195 62.5748 145.645 64.2248C143.095 65.8448 140.11 66.6548 136.69 66.6548C133.78 66.6548 131.125 65.9798 128.725 64.6298C126.355 63.2498 124.48 61.3448 123.1 58.9148C121.72 56.4848 121.03 53.7398 121.03 50.6798ZM161.416 35.0198L161.416 66.3848H157.321L157.321 35.0198L161.416 35.0198ZM182.615 66.6998C179.705 66.6998 177.05 66.0248 174.65 64.6748C172.25 63.2948 170.345 61.3898 168.935 58.9598C167.555 56.4998 166.865 53.7398 166.865 50.6798C166.865 47.6198 167.555 44.8748 168.935 42.4448C170.345 39.9848 172.25 38.0798 174.65 36.7298C177.05 35.3498 179.705 34.6598 182.615 34.6598C185.555 34.6598 188.225 35.3498 190.625 36.7298C193.025 38.0798 194.915 39.9698 196.295 42.3998C197.675 44.8298 198.365 47.5898 198.365 50.6798C198.365 53.7698 197.675 56.5298 196.295 58.9598C194.915 61.3898 193.025 63.2948 190.625 64.6748C188.225 66.0248 185.555 66.6998 182.615 66.6998ZM182.615 63.1448C184.805 63.1448 186.77 62.6348 188.51 61.6148C190.28 60.5948 191.66 59.1398 192.65 57.2498C193.67 55.3598 194.18 53.1698 194.18 50.6798C194.18 48.1598 193.67 45.9698 192.65 44.1098C191.66 42.2198 190.295 40.7648 188.555 39.7448C186.815 38.7248 184.835 38.2148 182.615 38.2148C180.395 38.2148 178.415 38.7248 176.675 39.7448C174.935 40.7648 173.555 42.2198 172.535 44.1098C171.545 45.9698 171.05 48.1598 171.05 50.6798C171.05 53.1698 171.545 55.3598 172.535 57.2498C173.555 59.1398 174.935 60.5948 176.675 61.6148C178.445 62.6348 180.425 63.1448 182.615 63.1448ZM213.716 66.6998C211.646 66.6998 209.786 66.3398 208.136 65.6198C206.516 64.8698 205.241 63.8498 204.311 62.5598C203.381 61.2398 202.901 59.7248 202.871 58.0148L207.236 58.0148C207.386 59.4848 207.986 60.7298 209.036 61.7498C210.116 62.7398 211.676 63.2348 213.716 63.2348C215.666 63.2348 217.196 62.7548 218.306 61.7948C219.446 60.8048 220.016 59.5448 220.016 58.0148C220.016 56.8148 219.686 55.8398 219.026 55.0898C218.366 54.3398 217.541 53.7698 216.551 53.3798C215.561 52.9898 214.226 52.5698 212.546 52.1198C210.476 51.5798 208.811 51.0398 207.551 50.4998C206.321 49.9598 205.256 49.1198 204.356 47.9798C203.486 46.8098 203.051 45.2498 203.051 43.2998C203.051 41.5898 203.486 40.0748 204.356 38.7548C205.226 37.4348 206.441 36.4148 208.001 35.6948C209.591 34.9748 211.406 34.6148 213.446 34.6148C216.386 34.6148 218.786 35.3498 220.646 36.8198C222.536 38.2898 223.601 40.2398 223.841 42.6698L219.341 42.6698C219.191 41.4698 218.561 40.4198 217.451 39.5198C216.341 38.5898 214.871 38.1248 213.041 38.1248C211.331 38.1248 209.936 38.5748 208.856 39.4748C207.776 40.3448 207.236 41.5748 207.236 43.1648C207.236 44.3048 207.551 45.2348 208.181 45.9548C208.841 46.6748 209.636 47.2298 210.566 47.6198C211.526 47.9798 212.861 48.3998 214.571 48.8798C216.641 49.4498 218.306 50.0198 219.566 50.5898C220.826 51.1298 221.906 51.9848 222.806 53.1548C223.706 54.2948 224.156 55.8548 224.156 57.8348C224.156 59.3648 223.751 60.8048 222.941 62.1548C222.131 63.5048 220.931 64.5998 219.341 65.4398C217.751 66.2798 215.876 66.6998 213.716 66.6998Z" fill="white"/>
<defs>
<linearGradient id="paint0_linear_258_57" x1="8.7132" y1="161.667" x2="220.579" y2="161.667" gradientUnits="userSpaceOnUse">
<stop stop-color="#FF1A55"/>
<stop offset="0.298077" stop-color="#A21F8A"/>
</linearGradient>
</defs>
</svg>
