<svg width="162" height="572" viewBox="0 0 162 572" fill="none" xmlns="http://www.w3.org/2000/svg">
<path d="M1.5 405.495L1.49999 571.495" stroke="url(#paint0_linear_258_27)" stroke-width="3"/>
<path d="M131.46 549.64C131.46 552.413 131.087 555.08 130.34 557.64C129.54 560.2 128.447 562.493 127.06 564.52L117.38 564.52C120.953 563.133 123.673 561.027 125.54 558.2C127.353 555.32 128.26 552.333 128.26 549.24C128.26 546.147 127.247 543.56 125.22 541.48C123.14 539.4 120.58 538.36 117.54 538.36C115.513 538.36 113.78 538.787 112.34 539.64C110.9 540.44 109.567 541.747 108.34 543.56C107.06 545.373 105.647 547.933 104.1 551.24C101.967 555.88 99.7533 559.267 97.46 561.4C95.1133 563.48 92.2867 564.52 88.98 564.52C86.1533 564.52 83.6467 563.853 81.46 562.52C79.22 561.133 77.5133 559.293 76.34 557C75.1133 554.653 74.5 552.093 74.5 549.32C74.5 546.92 74.8467 544.573 75.54 542.28C76.18 539.987 77.1133 537.853 78.34 535.88L86.98 535.88C84.0467 537.16 81.78 539.107 80.18 541.72C78.5267 544.28 77.7 546.893 77.7 549.56C77.7 552.6 78.6867 555.053 80.66 556.92C82.6333 558.787 84.98 559.72 87.7 559.72C89.6733 559.72 91.38 559.16 92.82 558.04C94.2067 556.92 95.38 555.56 96.34 553.96C97.3 552.307 98.4733 550.013 99.86 547.08C101.3 544.093 102.633 541.64 103.86 539.72C105.087 537.8 106.687 536.2 108.66 534.92C110.633 533.64 113.033 533 115.86 533C119.06 533 121.833 533.773 124.18 535.32C126.527 536.813 128.34 538.84 129.62 541.4C130.847 543.907 131.46 546.653 131.46 549.64ZM130.5 521.934C130.66 521.934 130.553 521.614 130.18 520.974C129.753 520.334 128.953 519.774 127.78 519.294C126.553 518.761 124.793 518.494 122.5 518.494L83.22 518.494C81.0333 518.494 79.38 518.761 78.26 519.294C77.0867 519.774 76.2867 520.334 75.86 520.974C75.4333 521.614 75.3 521.934 75.46 521.934L75.46 492.974L83.46 492.974C80.26 493.934 78.66 496.814 78.66 501.614L78.66 512.734L101.38 512.734L101.38 498.974C101.38 497.908 101.22 497.001 100.9 496.254C100.527 495.508 100.153 494.948 99.78 494.574C99.4067 494.201 99.1667 493.988 99.06 493.934L106.82 493.934C106.713 493.988 106.473 494.201 106.1 494.574C105.727 494.948 105.38 495.508 105.06 496.254C104.74 496.948 104.58 497.828 104.58 498.894L104.58 512.734L127.3 512.734L127.3 500.254C127.3 497.854 126.82 495.801 125.86 494.094C124.847 492.334 123.567 491.081 122.02 490.334L130.5 491.774L130.5 521.934ZM102.82 463.589C102.82 461.135 102.26 459.002 101.14 457.189C99.9667 455.375 98.4733 454.015 96.66 453.109C94.7933 452.149 92.8467 451.669 90.82 451.669C88.74 451.669 86.7933 452.122 84.98 453.029C83.1133 453.882 81.5933 455.215 80.42 457.029C79.2467 458.842 78.66 461.055 78.66 463.669L78.66 470.469L123.14 470.469C125.273 470.469 126.9 470.202 128.02 469.669C129.087 469.135 129.807 468.549 130.18 467.909C130.5 467.269 130.607 466.949 130.5 466.949L130.5 479.669C130.607 479.669 130.473 479.349 130.1 478.709C129.727 478.069 129.007 477.509 127.94 477.029C126.873 476.495 125.273 476.229 123.14 476.229L83.14 476.229C80.9533 476.229 79.3 476.495 78.18 477.029C77.0067 477.509 76.2333 478.069 75.86 478.709C75.4333 479.349 75.3 479.669 75.46 479.669L75.46 463.829C75.46 459.669 76.1533 456.255 77.54 453.589C78.8733 450.869 80.6333 448.922 82.82 447.749C84.9533 446.522 87.3 445.909 89.86 445.909C91.9933 445.909 94.1 446.415 96.18 447.429C98.2067 448.442 99.9933 449.909 101.54 451.829C103.033 453.695 104.073 455.882 104.66 458.389L104.9 459.669L122.82 445.589C124.9 443.722 126.5 442.175 127.62 440.949C128.74 439.722 129.487 438.842 129.86 438.309C130.233 437.722 130.447 437.375 130.5 437.269L130.5 446.629L102.82 468.389L102.82 463.589ZM79.7 394.139C78.6333 394.139 77.7267 394.433 76.98 395.019C76.18 395.606 75.6733 396.513 75.46 397.739L75.46 384.299C75.5667 384.993 76.18 385.926 77.3 387.099C78.42 388.273 80.5 389.499 83.54 390.779L132.42 411.019L83.3 431.579C80.4733 432.753 78.5267 433.926 77.46 435.099C76.34 436.219 75.6733 437.153 75.46 437.899L75.46 424.539C75.8333 425.979 76.7667 426.699 78.26 426.699C79.06 426.699 79.9133 426.513 80.82 426.139C81.7267 425.766 82.26 425.553 82.42 425.499L120.42 409.979L83.46 394.939C82.2333 394.406 80.98 394.139 79.7 394.139ZM130.5 379.905C130.66 379.905 130.553 379.585 130.18 378.945C129.753 378.305 129.007 377.718 127.94 377.185C126.82 376.652 125.193 376.385 123.06 376.385L82.9 376.385C80.7667 376.385 79.1667 376.652 78.1 377.185C76.98 377.665 76.2333 378.225 75.86 378.865C75.4867 379.505 75.3533 379.825 75.46 379.825L75.46 367.105C75.3533 367.105 75.4867 367.425 75.86 368.065C76.2333 368.705 76.98 369.292 78.1 369.825C79.1667 370.358 80.7667 370.625 82.9 370.625L123.06 370.625C125.193 370.625 126.82 370.358 127.94 369.825C129.007 369.292 129.727 368.705 130.1 368.065C130.473 367.425 130.607 367.105 130.5 367.105L130.5 379.905ZM125.62 310.823C127.273 312.85 128.66 315.49 129.78 318.743C130.9 321.996 131.46 325.276 131.46 328.583C131.46 333.543 130.313 338.156 128.02 342.423C125.727 346.69 122.42 350.13 118.1 352.743C113.78 355.303 108.713 356.583 102.9 356.583C97.46 356.583 92.58 355.41 88.26 353.063C83.94 350.663 80.58 347.276 78.18 342.903C75.7267 338.476 74.5 333.33 74.5 327.463C74.5 321.223 75.86 315.676 78.58 310.823L87.46 310.823C84.5267 312.476 82.2067 314.876 80.5 318.023C78.74 321.17 77.86 324.53 77.86 328.103C77.86 332.636 78.9267 336.583 81.06 339.943C83.1933 343.25 86.1267 345.783 89.86 347.543C93.54 349.303 97.6733 350.183 102.26 350.183C107.433 350.183 111.94 349.196 115.78 347.223C119.62 345.196 122.58 342.476 124.66 339.063C126.687 335.65 127.7 331.836 127.7 327.623C127.7 320.85 125.727 315.25 121.78 310.823L125.62 310.823ZM130.5 298.655C130.66 298.655 130.553 298.335 130.18 297.695C129.753 297.055 129.007 296.468 127.94 295.935C126.82 295.402 125.193 295.135 123.06 295.135L82.9 295.135C80.7667 295.135 79.1667 295.402 78.1 295.935C76.98 296.415 76.2333 296.975 75.86 297.615C75.4867 298.255 75.3533 298.575 75.46 298.575L75.46 285.855C75.3533 285.855 75.4867 286.175 75.86 286.815C76.2333 287.455 76.98 288.042 78.1 288.575C79.1667 289.108 80.7667 289.375 82.9 289.375L123.06 289.375C125.193 289.375 126.82 289.108 127.94 288.575C129.007 288.042 129.727 287.455 130.1 286.815C130.473 286.175 130.607 285.855 130.5 285.855L130.5 298.655ZM103.62 275.333C97.9667 275.333 92.9267 274.133 88.5 271.733C84.0733 269.28 80.6333 265.866 78.18 261.493C75.7266 257.066 74.5 251.973 74.5 246.213C74.5 241.413 75.5666 236.933 77.7 232.773C79.78 228.56 82.9266 225.2 87.14 222.693C91.3533 220.133 96.42 218.853 102.34 218.853C107.993 218.853 113.033 220.08 117.46 222.533C121.887 224.933 125.327 228.346 127.78 232.773C130.233 237.146 131.46 242.213 131.46 247.973C131.46 252.773 130.42 257.28 128.34 261.493C126.207 265.653 123.033 269.013 118.82 271.573C114.607 274.08 109.54 275.333 103.62 275.333ZM103.54 225.253C98.6866 225.253 94.3133 226.266 90.42 228.293C86.4733 230.266 83.4066 233.013 81.22 236.533C78.98 240 77.86 243.92 77.86 248.293C77.86 252.293 78.8733 255.866 80.9 259.013C82.9267 262.106 85.8067 264.533 89.54 266.293C93.22 268.053 97.5133 268.933 102.42 268.933C107.273 268.933 111.673 267.946 115.62 265.973C119.513 263.946 122.58 261.2 124.82 257.733C127.007 254.213 128.1 250.266 128.1 245.893C128.1 241.893 127.087 238.346 125.06 235.253C123.033 232.106 120.18 229.653 116.5 227.893C112.767 226.133 108.447 225.253 103.54 225.253ZM131.46 193.624C131.46 196.398 131.087 199.064 130.34 201.624C129.54 204.184 128.447 206.478 127.06 208.504L117.38 208.504C120.953 207.118 123.673 205.011 125.54 202.184C127.353 199.304 128.26 196.318 128.26 193.224C128.26 190.131 127.247 187.544 125.22 185.464C123.14 183.384 120.58 182.344 117.54 182.344C115.513 182.344 113.78 182.771 112.34 183.624C110.9 184.424 109.567 185.731 108.34 187.544C107.06 189.358 105.647 191.918 104.1 195.224C101.967 199.864 99.7533 203.251 97.46 205.384C95.1133 207.464 92.2866 208.504 88.98 208.504C86.1533 208.504 83.6466 207.838 81.46 206.504C79.22 205.118 77.5133 203.278 76.34 200.984C75.1133 198.638 74.5 196.078 74.5 193.304C74.5 190.904 74.8466 188.558 75.54 186.264C76.18 183.971 77.1133 181.838 78.34 179.864L86.98 179.864C84.0466 181.144 81.78 183.091 80.18 185.704C78.5266 188.264 77.7 190.878 77.7 193.544C77.7 196.584 78.6866 199.038 80.66 200.904C82.6333 202.771 84.98 203.704 87.7 203.704C89.6733 203.704 91.38 203.144 92.82 202.024C94.2066 200.904 95.38 199.544 96.34 197.944C97.3 196.291 98.4733 193.998 99.86 191.064C101.3 188.078 102.633 185.624 103.86 183.704C105.087 181.784 106.687 180.184 108.66 178.904C110.633 177.624 113.033 176.984 115.86 176.984C119.06 176.984 121.833 177.758 124.18 179.304C126.527 180.798 128.34 182.824 129.62 185.384C130.847 187.891 131.46 190.638 131.46 193.624Z" fill="white"/>
<defs>
<linearGradient id="paint0_linear_258_27" x1="286.505" y1="555.991" x2="286.505" y2="178.991" gradientUnits="userSpaceOnUse">
<stop stop-color="#FF1A55"/>
<stop offset="0.360577" stop-color="#A21F8A"/>
</linearGradient>
</defs>
</svg>
