<svg width="162" height="572" viewBox="0 0 162 572" fill="none" xmlns="http://www.w3.org/2000/svg">
<path d="M1.5 405.495L1.49999 571.495" stroke="url(#paint0_linear_258_27)" stroke-width="3"/>
<path d="M149.06 547.16C149.06 550.84 148.42 554.147 147.14 557.08C145.807 559.96 143.993 562.227 141.7 563.88C139.353 565.533 136.66 566.387 133.62 566.44L133.62 558.68C136.233 558.413 138.447 557.347 140.26 555.48C142.02 553.56 142.9 550.787 142.9 547.16C142.9 543.693 142.047 540.973 140.34 539C138.58 536.973 136.34 535.96 133.62 535.96C131.487 535.96 129.753 536.547 128.42 537.72C127.087 538.893 126.073 540.36 125.38 542.12C124.687 543.88 123.94 546.253 123.14 549.24C122.18 552.92 121.22 555.88 120.26 558.12C119.3 560.307 117.807 562.2 115.78 563.8C113.7 565.347 110.927 566.12 107.46 566.12C104.42 566.12 101.727 565.347 99.38 563.8C97.0333 562.253 95.22 560.093 93.94 557.32C92.66 554.493 92.02 551.267 92.02 547.64C92.02 542.413 93.3267 538.147 95.94 534.84C98.5533 531.48 102.02 529.587 106.34 529.16L106.34 537.16C104.207 537.427 102.34 538.547 100.74 540.52C99.0867 542.493 98.26 545.107 98.26 548.36C98.26 551.4 99.06 553.88 100.66 555.8C102.207 557.72 104.393 558.68 107.22 558.68C109.247 558.68 110.9 558.12 112.18 557C113.46 555.827 114.447 554.413 115.14 552.76C115.78 551.053 116.527 548.68 117.38 545.64C118.393 541.96 119.407 539 120.42 536.76C121.38 534.52 122.9 532.6 124.98 531C127.007 529.4 129.78 528.6 133.3 528.6C136.02 528.6 138.58 529.32 140.98 530.76C143.38 532.2 145.327 534.333 146.82 537.16C148.313 539.987 149.06 543.32 149.06 547.16ZM98.66 510.607L117.3 510.607L117.3 490.287L123.3 490.287L123.3 510.607L142.5 510.607L142.5 487.887L148.5 487.887L148.5 517.887L92.66 517.887L92.66 487.887L98.66 487.887L98.66 510.607ZM148.5 447.511L125.7 460.791L125.7 469.591L148.5 469.591L148.5 476.871L92.74 476.871L92.74 458.871C92.74 454.658 93.46 451.111 94.9 448.231C96.34 445.298 98.2867 443.111 100.74 441.671C103.193 440.231 105.993 439.511 109.14 439.511C112.98 439.511 116.367 440.631 119.3 442.871C122.233 445.058 124.18 448.365 125.14 452.791L148.5 438.791L148.5 447.511ZM119.86 469.591L119.86 458.871C119.86 454.925 118.9 451.965 116.98 449.991C115.007 448.018 112.393 447.031 109.14 447.031C105.833 447.031 103.273 448.018 101.46 449.991C99.6467 451.911 98.74 454.871 98.74 458.871L98.74 469.591L119.86 469.591ZM92.74 382.119L148.5 403.159L148.5 411.559L92.74 432.599L92.74 424.839L140.82 407.319L92.74 389.799L92.74 382.119ZM92.74 366.857L148.5 366.857L148.5 374.137L92.74 374.137L92.74 366.857ZM120.58 357.169C115.14 357.169 110.26 355.943 105.94 353.489C101.567 351.036 98.1533 347.703 95.7 343.489C93.2467 339.223 92.02 334.503 92.02 329.329C92.02 323.249 93.4867 317.943 96.42 313.409C99.3533 308.876 103.513 305.569 108.9 303.489L108.9 312.209C105.54 313.756 102.953 315.996 101.14 318.929C99.3267 321.809 98.42 325.276 98.42 329.329C98.42 333.223 99.3267 336.716 101.14 339.809C102.953 342.903 105.54 345.329 108.9 347.089C112.207 348.849 116.1 349.729 120.58 349.729C125.007 349.729 128.9 348.849 132.26 347.089C135.567 345.329 138.127 342.903 139.94 339.809C141.753 336.716 142.66 333.223 142.66 329.329C142.66 325.276 141.78 321.809 140.02 318.929C138.207 315.996 135.62 313.756 132.26 312.209L132.26 303.489C137.593 305.569 141.727 308.876 144.66 313.409C147.54 317.943 148.98 323.249 148.98 329.329C148.98 334.503 147.78 339.223 145.38 343.489C142.927 347.703 139.54 351.036 135.22 353.489C130.9 355.943 126.02 357.169 120.58 357.169ZM92.74 285.372L148.5 285.372L148.5 292.652L92.74 292.652L92.74 285.372ZM149.06 247.685C149.06 252.858 147.86 257.578 145.46 261.845C143.007 266.112 139.62 269.498 135.3 272.005C130.927 274.458 126.02 275.685 120.58 275.685C115.14 275.685 110.26 274.458 105.94 272.005C101.567 269.498 98.18 266.112 95.78 261.845C93.3266 257.578 92.1 252.858 92.1 247.685C92.1 242.458 93.3266 237.712 95.78 233.445C98.18 229.178 101.54 225.818 105.86 223.365C110.18 220.912 115.087 219.685 120.58 219.685C126.073 219.685 130.98 220.912 135.3 223.365C139.62 225.818 143.007 229.178 145.46 233.445C147.86 237.712 149.06 242.458 149.06 247.685ZM142.74 247.685C142.74 243.792 141.833 240.298 140.02 237.205C138.207 234.058 135.62 231.605 132.26 229.845C128.9 228.032 125.007 227.125 120.58 227.125C116.1 227.125 112.207 228.032 108.9 229.845C105.54 231.605 102.953 234.032 101.14 237.125C99.3266 240.218 98.42 243.738 98.42 247.685C98.42 251.632 99.3267 255.152 101.14 258.245C102.953 261.338 105.54 263.792 108.9 265.605C112.207 267.365 116.1 268.245 120.58 268.245C125.007 268.245 128.9 267.365 132.26 265.605C135.62 263.792 138.207 261.338 140.02 258.245C141.833 255.098 142.74 251.578 142.74 247.685ZM149.06 192.394C149.06 196.074 148.42 199.381 147.14 202.314C145.807 205.194 143.993 207.461 141.7 209.114C139.353 210.768 136.66 211.621 133.62 211.674L133.62 203.914C136.233 203.648 138.447 202.581 140.26 200.714C142.02 198.794 142.9 196.021 142.9 192.394C142.9 188.928 142.047 186.208 140.34 184.234C138.58 182.208 136.34 181.194 133.62 181.194C131.487 181.194 129.753 181.781 128.42 182.954C127.087 184.128 126.073 185.594 125.38 187.354C124.687 189.114 123.94 191.488 123.14 194.474C122.18 198.154 121.22 201.114 120.26 203.354C119.3 205.541 117.807 207.434 115.78 209.034C113.7 210.581 110.927 211.354 107.46 211.354C104.42 211.354 101.727 210.581 99.38 209.034C97.0333 207.488 95.22 205.328 93.94 202.554C92.66 199.728 92.02 196.501 92.02 192.874C92.02 187.648 93.3266 183.381 95.94 180.074C98.5533 176.714 102.02 174.821 106.34 174.394L106.34 182.394C104.207 182.661 102.34 183.781 100.74 185.754C99.0866 187.728 98.26 190.341 98.26 193.594C98.26 196.634 99.06 199.114 100.66 201.034C102.207 202.954 104.393 203.914 107.22 203.914C109.247 203.914 110.9 203.354 112.18 202.234C113.46 201.061 114.447 199.648 115.14 197.994C115.78 196.288 116.527 193.914 117.38 190.874C118.393 187.194 119.407 184.234 120.42 181.994C121.38 179.754 122.9 177.834 124.98 176.234C127.007 174.634 129.78 173.834 133.3 173.834C136.02 173.834 138.58 174.554 140.98 175.994C143.38 177.434 145.327 179.568 146.82 182.394C148.313 185.221 149.06 188.554 149.06 192.394Z" fill="white"/>
<defs>
<linearGradient id="paint0_linear_258_27" x1="286.505" y1="555.991" x2="286.505" y2="178.991" gradientUnits="userSpaceOnUse">
<stop stop-color="#FF1A55"/>
<stop offset="0.360577" stop-color="#A21F8A"/>
</linearGradient>
</defs>
</svg>
