<svg width="270" height="42" viewBox="0 0 270 42" fill="none" xmlns="http://www.w3.org/2000/svg">
<path d="M268.656 40L-2.11337e-05 40" stroke="url(#paint0_linear_258_56)" stroke-width="3"/>
<path d="M11.6849 30.245C10.0749 30.245 8.62822 29.965 7.34489 29.405C6.08489 28.8217 5.09322 28.0283 4.36989 27.025C3.64656 25.9983 3.27322 24.82 3.24989 23.49L6.64489 23.49C6.76156 24.6333 7.22822 25.6017 8.04489 26.395C8.88489 27.165 10.0982 27.55 11.6849 27.55C13.2016 27.55 14.3916 27.1767 15.2549 26.43C16.1416 25.66 16.5849 24.68 16.5849 23.49C16.5849 22.5567 16.3282 21.7983 15.8149 21.215C15.3016 20.6317 14.6599 20.1883 13.8899 19.885C13.1199 19.5817 12.0816 19.255 10.7749 18.905C9.16489 18.485 7.86989 18.065 6.88989 17.645C5.93322 17.225 5.10489 16.5717 4.40489 15.685C3.72822 14.775 3.38989 13.5617 3.38989 12.045C3.38989 10.715 3.72822 9.53667 4.40489 8.51C5.08156 7.48334 6.02656 6.69 7.23989 6.13C8.47656 5.57 9.88822 5.29 11.4749 5.29C13.7616 5.29 15.6282 5.86167 17.0749 7.005C18.5449 8.14834 19.3732 9.665 19.5599 11.555L16.0599 11.555C15.9432 10.6217 15.4532 9.805 14.5899 9.105C13.7266 8.38167 12.5832 8.02 11.1599 8.02C9.82989 8.02 8.74489 8.37 7.90489 9.07C7.06489 9.74667 6.64489 10.7033 6.64489 11.94C6.64489 12.8267 6.88989 13.55 7.37989 14.11C7.89322 14.67 8.51156 15.1017 9.23489 15.405C9.98156 15.685 11.0199 16.0117 12.3499 16.385C13.9599 16.8283 15.2549 17.2717 16.2349 17.715C17.2149 18.135 18.0549 18.8 18.7549 19.71C19.4549 20.5967 19.8049 21.81 19.8049 23.35C19.8049 24.54 19.4899 25.66 18.8599 26.71C18.2299 27.76 17.2966 28.6117 16.0599 29.265C14.8232 29.9183 13.3649 30.245 11.6849 30.245ZM35.5519 30.245C33.2886 30.245 31.2236 29.72 29.3569 28.67C27.4902 27.5967 26.0085 26.115 24.9119 24.225C23.8385 22.3117 23.3019 20.165 23.3019 17.785C23.3019 15.405 23.8385 13.27 24.9119 11.38C26.0085 9.46667 27.4902 7.985 29.3569 6.935C31.2235 5.86167 33.2885 5.325 35.5519 5.325C37.8385 5.325 39.9152 5.86167 41.7819 6.935C43.6485 7.985 45.1185 9.455 46.1919 11.345C47.2652 13.235 47.8019 15.3817 47.8019 17.785C47.8019 20.1883 47.2652 22.335 46.1919 24.225C45.1186 26.115 43.6486 27.5967 41.7819 28.67C39.9152 29.72 37.8386 30.245 35.5519 30.245ZM35.5519 27.48C37.2552 27.48 38.7836 27.0833 40.1369 26.29C41.5136 25.4967 42.5869 24.365 43.3569 22.895C44.1502 21.425 44.5469 19.7217 44.5469 17.785C44.5469 15.825 44.1502 14.1217 43.3569 12.675C42.5869 11.205 41.5252 10.0733 40.1719 9.28C38.8185 8.48667 37.2785 8.09 35.5519 8.09C33.8252 8.09 32.2852 8.48667 30.9319 9.28C29.5785 10.0733 28.5052 11.205 27.7119 12.675C26.9419 14.1217 26.5569 15.825 26.5569 17.785C26.5569 19.7217 26.9419 21.425 27.7119 22.895C28.5052 24.365 29.5786 25.4967 30.9319 26.29C32.3086 27.0833 33.8486 27.48 35.5519 27.48ZM50.8165 17.785C50.8165 15.405 51.3532 13.27 52.4265 11.38C53.4999 9.46667 54.9582 7.97334 56.8015 6.9C58.6682 5.82667 60.7332 5.29 62.9965 5.29C65.6565 5.29 67.9782 5.93167 69.9615 7.215C71.9449 8.49834 73.3915 10.3183 74.3015 12.675L70.4865 12.675C69.8099 11.205 68.8299 10.0733 67.5465 9.28C66.2865 8.48667 64.7699 8.09 62.9965 8.09C61.2932 8.09 59.7649 8.48667 58.4115 9.28C57.0582 10.0733 55.9965 11.205 55.2265 12.675C54.4565 14.1217 54.0715 15.825 54.0715 17.785C54.0715 19.7217 54.4565 21.425 55.2265 22.895C55.9965 24.3417 57.0582 25.4617 58.4115 26.255C59.7649 27.0483 61.2932 27.445 62.9965 27.445C64.7699 27.445 66.2865 27.06 67.5465 26.29C68.8299 25.4967 69.8099 24.365 70.4865 22.895L74.3015 22.895C73.3915 25.2283 71.9449 27.0367 69.9615 28.32C67.9782 29.58 65.6565 30.21 62.9965 30.21C60.7332 30.21 58.6682 29.685 56.8015 28.635C54.9582 27.5617 53.4999 26.08 52.4265 24.19C51.3532 22.3 50.8165 20.165 50.8165 17.785ZM82.2277 5.605L82.2277 30L79.0427 30L79.0427 5.605L82.2277 5.605ZM102.076 24.575L91.4359 24.575L89.4759 30L86.1159 30L94.9359 5.745L98.6109 5.745L107.396 30L104.036 30L102.076 24.575ZM101.166 21.985L96.7559 9.665L92.3459 21.985L101.166 21.985ZM114.425 27.41L122.965 27.41L122.965 30L111.24 30L111.24 5.605L114.425 5.605L114.425 27.41ZM160.423 5.78L160.423 30L157.238 30L157.238 11.94L149.188 30L146.948 30L138.863 11.905L138.863 30L135.678 30L135.678 5.78L139.108 5.78L148.068 25.8L157.028 5.78L160.423 5.78ZM169.01 8.195L169.01 16.35L177.9 16.35L177.9 18.975L169.01 18.975L169.01 27.375L178.95 27.375L178.95 30L165.825 30L165.825 5.57L178.95 5.57L178.95 8.195L169.01 8.195ZM191.364 5.605C194.024 5.605 196.323 6.10667 198.259 7.11C200.219 8.09 201.713 9.50167 202.739 11.345C203.789 13.1883 204.314 15.3583 204.314 17.855C204.314 20.3517 203.789 22.5217 202.739 24.365C201.713 26.185 200.219 27.585 198.259 28.565C196.323 29.5217 194.024 30 191.364 30L183.769 30L183.769 5.605L191.364 5.605ZM191.364 27.375C194.514 27.375 196.918 26.5467 198.574 24.89C200.231 23.21 201.059 20.865 201.059 17.855C201.059 14.8217 200.219 12.4533 198.539 10.75C196.883 9.04667 194.491 8.195 191.364 8.195L186.954 8.195L186.954 27.375L191.364 27.375ZM211.7 5.605L211.7 30L208.515 30L208.515 5.605L211.7 5.605ZM231.549 24.575L220.909 24.575L218.949 30L215.589 30L224.409 5.745L228.084 5.745L236.869 30L233.509 30L231.549 24.575ZM230.639 21.985L226.229 9.665L221.819 21.985L230.639 21.985Z" fill="white"/>
<defs>
<linearGradient id="paint0_linear_258_56" x1="33.835" y1="200.167" x2="856.558" y2="200.167" gradientUnits="userSpaceOnUse">
<stop stop-color="#FF1A55"/>
<stop offset="0.375058" stop-color="#A21F8A"/>
</linearGradient>
</defs>
</svg>
