<svg width="270" height="42" viewBox="0 0 270 42" fill="none" xmlns="http://www.w3.org/2000/svg">
<path d="M268.656 40L-2.11337e-05 40" stroke="url(#paint0_linear_258_56)" stroke-width="3"/>
<path d="M10.5999 30.42C9.38656 30.42 8.21989 30.2567 7.09989 29.93C5.97989 29.58 4.97656 29.1017 4.08989 28.495L4.08989 24.26C4.69656 25.8233 5.61822 27.0133 6.85489 27.83C8.11489 28.6233 9.42156 29.02 10.7749 29.02C12.1282 29.02 13.2599 28.5767 14.1699 27.69C15.0799 26.78 15.5349 25.66 15.5349 24.33C15.5349 23.4433 15.3482 22.685 14.9749 22.055C14.6249 21.425 14.0532 20.8417 13.2599 20.305C12.4666 19.745 11.3466 19.1267 9.89989 18.45C7.86989 17.5167 6.38822 16.5483 5.45489 15.545C4.54489 14.5183 4.08989 13.2817 4.08989 11.835C4.08989 10.5983 4.38156 9.50167 4.96489 8.545C5.57156 7.565 6.37656 6.81834 7.37989 6.305C8.40656 5.76834 9.52656 5.5 10.7399 5.5C11.7899 5.5 12.8166 5.65167 13.8199 5.955C14.8232 6.235 15.7566 6.64334 16.6199 7.18L16.6199 10.96C16.0599 9.67667 15.2082 8.685 14.0649 7.985C12.9449 7.26167 11.8016 6.9 10.6349 6.9C9.30489 6.9 8.23156 7.33167 7.41489 8.195C6.59822 9.05834 6.18989 10.085 6.18989 11.275C6.18989 12.1383 6.43489 12.885 6.92489 13.515C7.41489 14.1217 8.00989 14.635 8.70989 15.055C9.43322 15.475 10.4366 15.9883 11.7199 16.595C13.0266 17.225 14.0999 17.8083 14.9399 18.345C15.7799 18.8817 16.4799 19.5817 17.0399 20.445C17.5999 21.3083 17.8799 22.3583 17.8799 23.595C17.8799 24.995 17.5416 26.2083 16.8649 27.235C16.2116 28.2617 15.3249 29.055 14.2049 29.615C13.1082 30.1517 11.9066 30.42 10.5999 30.42ZM21.9861 18.24C21.9861 15.7667 22.5111 13.5617 23.5611 11.625C24.6344 9.68834 26.1278 8.18334 28.0411 7.11C29.9778 6.03667 32.2061 5.5 34.7261 5.5C36.8261 5.5 38.7861 5.96667 40.6061 6.9C42.4494 7.81 43.9194 9.18667 45.0161 11.03C46.1361 12.8733 46.6961 15.09 46.6961 17.68C46.6961 20.1533 46.1594 22.3583 45.0861 24.295C44.0361 26.2317 42.5428 27.7367 40.6061 28.81C38.6928 29.8833 36.4761 30.42 33.9561 30.42C31.8561 30.42 29.8844 29.965 28.0411 29.055C26.2211 28.1217 24.7511 26.7333 23.6311 24.89C22.5344 23.0467 21.9861 20.83 21.9861 18.24ZM43.8961 18.205C43.8961 16.0817 43.4528 14.1683 42.5661 12.465C41.7028 10.7383 40.5011 9.39667 38.9611 8.44C37.4444 7.46 35.7294 6.97 33.8161 6.97C32.0661 6.97 30.5028 7.41334 29.1261 8.3C27.7728 9.18667 26.7111 10.4467 25.9411 12.08C25.1711 13.69 24.7861 15.5683 24.7861 17.715C24.7861 19.8383 25.2178 21.7633 26.0811 23.49C26.9678 25.1933 28.1694 26.535 29.6861 27.515C31.2261 28.4717 32.9528 28.95 34.8661 28.95C36.6161 28.95 38.1678 28.5067 39.5211 27.62C40.8978 26.7333 41.9711 25.485 42.7411 23.875C43.5111 22.2417 43.8961 20.3517 43.8961 18.205ZM70.6487 27.865C69.762 28.5883 68.607 29.195 67.1837 29.685C65.7603 30.175 64.3253 30.42 62.8787 30.42C60.7087 30.42 58.6903 29.9183 56.8237 28.915C54.957 27.9117 53.452 26.465 52.3087 24.575C51.1887 22.685 50.6287 20.4683 50.6287 17.925C50.6287 15.545 51.142 13.41 52.1687 11.52C53.2187 9.63 54.7003 8.16 56.6137 7.11C58.5503 6.03667 60.802 5.5 63.3687 5.5C66.0987 5.5 68.5253 6.095 70.6487 7.285L70.6487 11.17C69.9253 9.88667 68.8753 8.87167 67.4987 8.125C66.122 7.355 64.652 6.97 63.0887 6.97C61.1053 6.97 59.3787 7.43667 57.9087 8.37C56.462 9.30334 55.3537 10.5867 54.5837 12.22C53.8137 13.83 53.4287 15.6383 53.4287 17.645C53.4287 19.9083 53.8603 21.88 54.7237 23.56C55.6103 25.24 56.8003 26.535 58.2937 27.445C59.787 28.3317 61.4553 28.775 63.2987 28.775C66.262 28.775 68.712 27.9117 70.6487 26.185L70.6487 27.865ZM75.9722 30C75.9722 30.07 76.1122 30.0233 76.3922 29.86C76.6722 29.6733 76.9289 29.3467 77.1622 28.88C77.3956 28.39 77.5122 27.6783 77.5122 26.745L77.5122 9.175C77.5122 8.24167 77.3956 7.54167 77.1622 7.075C76.9522 6.585 76.7072 6.25834 76.4272 6.095C76.1472 5.93167 76.0072 5.87334 76.0072 5.92L81.5722 5.92C81.5722 5.87334 81.4322 5.93167 81.1522 6.095C80.8722 6.25834 80.6156 6.585 80.3822 7.075C80.1489 7.54167 80.0322 8.24167 80.0322 9.175L80.0322 26.745C80.0322 27.6783 80.1489 28.39 80.3822 28.88C80.6156 29.3467 80.8722 29.6617 81.1522 29.825C81.4322 29.9883 81.5722 30.0467 81.5722 30L75.9722 30ZM91.3206 20.655L89.0806 26.22C88.7306 27.0833 88.5556 27.795 88.5556 28.355C88.5556 29.125 88.9056 29.6733 89.6056 30L84.6006 30C84.8339 30 85.1722 29.7667 85.6156 29.3C86.0589 28.8333 86.5722 27.9117 87.1556 26.535L96.2906 4.8L105.356 26.64C105.869 27.9 106.359 28.7633 106.826 29.23C107.316 29.6967 107.701 29.9533 107.981 30L102.171 30C102.754 29.72 103.046 29.2883 103.046 28.705C103.046 28.215 102.859 27.515 102.486 26.605L100.036 20.655L91.3206 20.655ZM99.4756 19.22L95.6606 9.875L91.9156 19.22L99.4756 19.22ZM112.512 9.175C112.512 8.24167 112.396 7.54167 112.162 7.075C111.952 6.585 111.707 6.25834 111.427 6.095C111.147 5.93167 111.007 5.87334 111.007 5.92L116.572 5.92C116.572 5.87334 116.432 5.93167 116.152 6.095C115.872 6.25834 115.616 6.585 115.382 7.075C115.149 7.54167 115.032 8.24167 115.032 9.175L115.032 28.6L120.772 28.6C121.822 28.6 122.721 28.39 123.467 27.97C124.237 27.5267 124.786 26.9667 125.112 26.29L124.482 30L111.007 30C111.007 30.07 111.147 30.0233 111.427 29.86C111.707 29.6733 111.952 29.3233 112.162 28.81C112.396 28.2733 112.512 27.5033 112.512 26.5L112.512 9.175ZM157.932 30C158.212 29.9533 158.516 29.7083 158.842 29.265C159.169 28.7983 159.332 27.9467 159.332 26.71L159.332 9.21L150.162 30.385L140.852 9.245L140.852 26.535C140.852 27.795 141.051 28.6817 141.447 29.195C141.867 29.685 142.241 29.9533 142.567 30L137.387 30C137.737 29.9533 138.122 29.6967 138.542 29.23C138.962 28.74 139.172 27.8417 139.172 26.535L139.172 9C139.172 7.88 138.974 7.11 138.577 6.69C138.181 6.27 137.784 6.01334 137.387 5.92L142.112 5.92L150.687 25.485L159.122 5.92L163.357 5.92C163.054 5.96667 162.727 6.21167 162.377 6.655C162.027 7.09834 161.852 7.915 161.852 9.105L161.852 26.85C161.852 28.0167 162.027 28.8217 162.377 29.265C162.727 29.7083 163.054 29.9533 163.357 30L157.932 30ZM168.737 30C168.737 30.07 168.877 30.0233 169.157 29.86C169.437 29.6733 169.682 29.3233 169.892 28.81C170.125 28.2733 170.242 27.5033 170.242 26.5L170.242 9.315C170.242 8.35834 170.125 7.635 169.892 7.145C169.682 6.63167 169.437 6.28167 169.157 6.095C168.877 5.90834 168.737 5.85 168.737 5.92L181.407 5.92L181.407 9.42C180.987 8.02 179.727 7.32 177.627 7.32L172.762 7.32L172.762 17.26L178.782 17.26C179.248 17.26 179.645 17.19 179.972 17.05C180.298 16.8867 180.543 16.7233 180.707 16.56C180.87 16.3967 180.963 16.2917 180.987 16.245L180.987 19.64C180.963 19.5933 180.87 19.4883 180.707 19.325C180.543 19.1617 180.298 19.01 179.972 18.87C179.668 18.73 179.283 18.66 178.817 18.66L172.762 18.66L172.762 28.6L178.222 28.6C179.272 28.6 180.17 28.39 180.917 27.97C181.687 27.5267 182.235 26.9667 182.562 26.29L181.932 30L168.737 30ZM202.908 28.04C200.715 29.3467 197.786 30 194.123 30L187.228 30C187.228 30.07 187.368 30.0117 187.648 29.825C187.928 29.615 188.173 29.2417 188.383 28.705C188.616 28.1683 188.733 27.3867 188.733 26.36L188.733 9.14C188.733 8.23 188.616 7.54167 188.383 7.075C188.173 6.585 187.928 6.25834 187.648 6.095C187.368 5.93167 187.228 5.87334 187.228 5.92L194.088 5.92C197.658 5.92 200.481 6.50334 202.558 7.67C204.401 8.69667 205.825 10.085 206.828 11.835C207.831 13.585 208.333 15.5567 208.333 17.75C208.333 20.13 207.855 22.195 206.898 23.945C205.965 25.6717 204.635 27.0367 202.908 28.04ZM201.543 9.245C200.516 8.56834 199.42 8.07834 198.253 7.775C197.086 7.47167 195.698 7.32 194.088 7.32L191.253 7.32L191.253 28.6L194.088 28.6C196.001 28.6 197.565 28.4367 198.778 28.11C200.015 27.7833 201.076 27.2817 201.963 26.605C203.106 25.7183 203.981 24.5633 204.588 23.14C205.218 21.6933 205.533 20.0133 205.533 18.1C205.533 16.07 205.171 14.2967 204.448 12.78C203.748 11.24 202.78 10.0617 201.543 9.245ZM213.238 30C213.238 30.07 213.378 30.0233 213.658 29.86C213.938 29.6733 214.195 29.3467 214.428 28.88C214.661 28.39 214.778 27.6783 214.778 26.745L214.778 9.175C214.778 8.24167 214.661 7.54167 214.428 7.075C214.218 6.585 213.973 6.25834 213.693 6.095C213.413 5.93167 213.273 5.87334 213.273 5.92L218.838 5.92C218.838 5.87334 218.698 5.93167 218.418 6.095C218.138 6.25834 217.881 6.585 217.648 7.075C217.415 7.54167 217.298 8.24167 217.298 9.175L217.298 26.745C217.298 27.6783 217.415 28.39 217.648 28.88C217.881 29.3467 218.138 29.6617 218.418 29.825C218.698 29.9883 218.838 30.0467 218.838 30L213.238 30ZM228.586 20.655L226.346 26.22C225.996 27.0833 225.821 27.795 225.821 28.355C225.821 29.125 226.171 29.6733 226.871 30L221.866 30C222.1 30 222.438 29.7667 222.881 29.3C223.325 28.8333 223.838 27.9117 224.421 26.535L233.556 4.8L242.621 26.64C243.135 27.9 243.625 28.7633 244.091 29.23C244.581 29.6967 244.966 29.9533 245.246 30L239.436 30C240.02 29.72 240.311 29.2883 240.311 28.705C240.311 28.215 240.125 27.515 239.751 26.605L237.301 20.655L228.586 20.655ZM236.741 19.22L232.926 9.875L229.181 19.22L236.741 19.22Z" fill="white"/>
<defs>
<linearGradient id="paint0_linear_258_56" x1="33.835" y1="200.167" x2="856.558" y2="200.167" gradientUnits="userSpaceOnUse">
<stop stop-color="#FF1A55"/>
<stop offset="0.375058" stop-color="#A21F8A"/>
</linearGradient>
</defs>
</svg>
