<svg width="55" height="350" viewBox="0 0 55 350" fill="none" xmlns="http://www.w3.org/2000/svg">
<path d="M53 0L53 350" stroke="url(#paint0_linear_258_29)" stroke-width="3"/>
<path d="M39.54 337.985C39.54 339.545 39.33 341.045 38.91 342.485C38.46 343.925 37.845 345.215 37.065 346.355L31.62 346.355C33.63 345.575 35.16 344.39 36.21 342.8C37.23 341.18 37.74 339.5 37.74 337.76C37.74 336.02 37.17 334.565 36.03 333.395C34.86 332.225 33.42 331.64 31.71 331.64C30.57 331.64 29.595 331.88 28.785 332.36C27.975 332.81 27.225 333.545 26.535 334.565C25.815 335.585 25.02 337.025 24.15 338.885C22.95 341.495 21.705 343.4 20.415 344.6C19.095 345.77 17.505 346.355 15.645 346.355C14.055 346.355 12.645 345.98 11.415 345.23C10.155 344.45 9.195 343.415 8.535 342.125C7.845 340.805 7.5 339.365 7.5 337.805C7.5 336.455 7.695 335.135 8.085 333.845C8.445 332.555 8.97 331.355 9.66 330.245L14.52 330.245C12.87 330.965 11.595 332.06 10.695 333.53C9.765 334.97 9.3 336.44 9.3 337.94C9.3 339.65 9.855 341.03 10.965 342.08C12.075 343.13 13.395 343.655 14.925 343.655C16.035 343.655 16.995 343.34 17.805 342.71C18.585 342.08 19.245 341.315 19.785 340.415C20.325 339.485 20.985 338.195 21.765 336.545C22.575 334.865 23.325 333.485 24.015 332.405C24.705 331.325 25.605 330.425 26.715 329.705C27.825 328.985 29.175 328.625 30.765 328.625C32.565 328.625 34.125 329.06 35.445 329.93C36.765 330.77 37.785 331.91 38.505 333.35C39.195 334.76 39.54 336.305 39.54 337.985ZM23.88 323.346C20.7 323.346 17.865 322.671 15.375 321.321C12.885 319.941 10.95 318.021 9.57 315.561C8.19 313.071 7.5 310.206 7.5 306.966C7.5 304.266 8.1 301.746 9.3 299.406C10.47 297.036 12.24 295.146 14.61 293.736C16.98 292.296 19.83 291.576 23.16 291.576C26.34 291.576 29.175 292.266 31.665 293.646C34.155 294.996 36.09 296.916 37.47 299.406C38.85 301.866 39.54 304.716 39.54 307.956C39.54 310.656 38.955 313.191 37.785 315.561C36.585 317.901 34.8 319.791 32.43 321.231C30.06 322.641 27.21 323.346 23.88 323.346ZM23.835 295.176C21.105 295.176 18.645 295.746 16.455 296.886C14.235 297.996 12.51 299.541 11.28 301.521C10.02 303.471 9.39 305.676 9.39 308.136C9.39 310.386 9.96 312.396 11.1 314.166C12.24 315.906 13.86 317.271 15.96 318.261C18.03 319.251 20.445 319.746 23.205 319.746C25.935 319.746 28.41 319.191 30.63 318.081C32.82 316.941 34.545 315.396 35.805 313.446C37.035 311.466 37.65 309.246 37.65 306.786C37.65 304.536 37.08 302.541 35.94 300.801C34.8 299.031 33.195 297.651 31.125 296.661C29.025 295.671 26.595 295.176 23.835 295.176ZM36.255 260.779C37.185 261.919 37.965 263.404 38.595 265.234C39.225 267.064 39.54 268.909 39.54 270.769C39.54 273.559 38.895 276.154 37.605 278.554C36.315 280.954 34.455 282.889 32.025 284.359C29.595 285.799 26.745 286.519 23.475 286.519C20.415 286.519 17.67 285.859 15.24 284.539C12.81 283.189 10.92 281.284 9.56999 278.824C8.18999 276.334 7.49999 273.439 7.49999 270.139C7.49999 266.629 8.26499 263.509 9.79499 260.779L14.79 260.779C13.14 261.709 11.835 263.059 10.875 264.829C9.88499 266.599 9.38999 268.489 9.38999 270.499C9.38999 273.049 9.98999 275.269 11.19 277.159C12.39 279.019 14.04 280.444 16.14 281.434C18.21 282.424 20.535 282.919 23.115 282.919C26.025 282.919 28.56 282.364 30.72 281.254C32.88 280.114 34.545 278.584 35.715 276.664C36.855 274.744 37.425 272.599 37.425 270.229C37.425 266.419 36.315 263.269 34.095 260.779L36.255 260.779ZM39 253.935C39.09 253.935 39.03 253.755 38.82 253.395C38.58 253.035 38.16 252.705 37.56 252.405C36.93 252.105 36.015 251.955 34.815 251.955L12.225 251.955C11.025 251.955 10.125 252.105 9.52499 252.405C8.89499 252.675 8.47499 252.99 8.26499 253.35C8.05499 253.71 7.97999 253.89 8.03999 253.89L8.03999 246.735C7.97999 246.735 8.05499 246.915 8.26499 247.275C8.47499 247.635 8.89499 247.965 9.52499 248.265C10.125 248.565 11.025 248.715 12.225 248.715L34.815 248.715C36.015 248.715 36.93 248.565 37.56 248.265C38.16 247.965 38.565 247.635 38.775 247.275C38.985 246.915 39.06 246.735 39 246.735L39 253.935ZM26.985 234.201L34.14 237.081C35.25 237.531 36.165 237.756 36.885 237.756C37.875 237.756 38.58 237.306 39 236.406L39 242.841C39 242.541 38.7 242.106 38.1 241.536C37.5 240.966 36.315 240.306 34.545 239.556L6.59999 227.811L34.68 216.156C36.3 215.496 37.41 214.866 38.01 214.266C38.61 213.636 38.94 213.141 39 212.781L39 220.251C38.64 219.501 38.085 219.126 37.335 219.126C36.705 219.126 35.805 219.366 34.635 219.846L26.985 222.996L26.985 234.201ZM25.14 223.716L13.125 228.621L25.14 233.436L25.14 223.716ZM12.225 206.955C11.025 206.955 10.125 207.105 9.52499 207.405C8.89499 207.675 8.47499 207.99 8.26499 208.35C8.05499 208.71 7.97999 208.89 8.03999 208.89L8.03999 201.735C7.97999 201.735 8.05499 201.915 8.26499 202.275C8.47499 202.635 8.89499 202.965 9.52499 203.265C10.125 203.565 11.025 203.715 12.225 203.715L37.2 203.715L37.2 196.335C37.2 194.985 36.93 193.83 36.39 192.87C35.82 191.88 35.1 191.175 34.23 190.755L39 191.565L39 208.89C39.09 208.89 39.03 208.71 38.82 208.35C38.58 207.99 38.13 207.675 37.47 207.405C36.78 207.105 35.79 206.955 34.5 206.955L12.225 206.955ZM39 148.557C38.94 148.197 38.625 147.807 38.055 147.387C37.455 146.967 36.36 146.757 34.77 146.757L12.27 146.757L39.495 158.547L12.315 170.517L34.545 170.517C36.165 170.517 37.305 170.262 37.965 169.752C38.595 169.212 38.94 168.732 39 168.312L39 174.972C38.94 174.522 38.61 174.027 38.01 173.487C37.38 172.947 36.225 172.677 34.545 172.677L12 172.677C10.56 172.677 9.56999 172.932 9.02999 173.442C8.48999 173.952 8.15999 174.462 8.03999 174.972L8.03999 168.897L33.195 157.872L8.03999 147.027L8.03999 141.582C8.09999 141.972 8.41499 142.392 8.98499 142.842C9.55499 143.292 10.605 143.517 12.135 143.517L34.95 143.517C36.45 143.517 37.485 143.292 38.055 142.842C38.625 142.392 38.94 141.972 39 141.582L39 148.557ZM39 134.666C39.09 134.666 39.03 134.486 38.82 134.126C38.58 133.766 38.13 133.451 37.47 133.181C36.78 132.881 35.79 132.731 34.5 132.731L12.405 132.731C11.175 132.731 10.245 132.881 9.61499 133.181C8.95499 133.451 8.50499 133.766 8.26499 134.126C8.02499 134.486 7.94999 134.666 8.03999 134.666L8.03999 118.376L12.54 118.376C10.74 118.916 9.83999 120.536 9.83999 123.236L9.83999 129.491L22.62 129.491L22.62 121.751C22.62 121.151 22.53 120.641 22.35 120.221C22.14 119.801 21.93 119.486 21.72 119.276C21.51 119.066 21.375 118.946 21.315 118.916L25.68 118.916C25.62 118.946 25.485 119.066 25.275 119.276C25.065 119.486 24.87 119.801 24.69 120.221C24.51 120.611 24.42 121.106 24.42 121.706L24.42 129.491L37.2 129.491L37.2 122.471C37.2 121.121 36.93 119.966 36.39 119.006C35.82 118.016 35.1 117.311 34.23 116.891L39 117.701L39 134.666ZM36.48 90.7318C38.16 93.5518 39 97.3168 39 102.027L39 110.892C39.09 110.892 39.015 110.712 38.775 110.352C38.505 109.992 38.025 109.677 37.335 109.407C36.645 109.107 35.64 108.957 34.32 108.957L12.18 108.957C11.01 108.957 10.125 109.107 9.52499 109.407C8.89499 109.677 8.47499 109.992 8.26499 110.352C8.05499 110.712 7.97999 110.892 8.03999 110.892L8.03999 102.072C8.03999 97.4818 8.78999 93.8518 10.29 91.1818C11.61 88.8118 13.395 86.9818 15.645 85.6918C17.895 84.4018 20.43 83.7568 23.25 83.7568C26.31 83.7568 28.965 84.3718 31.215 85.6018C33.435 86.8018 35.19 88.5118 36.48 90.7318ZM12.315 92.4868C11.445 93.8068 10.815 95.2168 10.425 96.7168C10.035 98.2168 9.83999 100.002 9.83999 102.072L9.83999 105.717L37.2 105.717L37.2 102.072C37.2 99.6118 36.99 97.6018 36.57 96.0418C36.15 94.4518 35.505 93.0868 34.635 91.9468C33.495 90.4768 32.01 89.3518 30.18 88.5718C28.32 87.7618 26.16 87.3568 23.7 87.3568C21.09 87.3568 18.81 87.8218 16.86 88.7518C14.88 89.6518 13.365 90.8968 12.315 92.4868ZM39 77.4505C39.09 77.4505 39.03 77.2705 38.82 76.9105C38.58 76.5505 38.16 76.2205 37.56 75.9205C36.93 75.6205 36.015 75.4705 34.815 75.4705L12.225 75.4705C11.025 75.4705 10.125 75.6205 9.52499 75.9205C8.89499 76.1905 8.47499 76.5055 8.26499 76.8655C8.05499 77.2255 7.97999 77.4055 8.03999 77.4055L8.03999 70.2505C7.97999 70.2505 8.05499 70.4305 8.26499 70.7905C8.47499 71.1505 8.89499 71.4805 9.52499 71.7805C10.125 72.0805 11.025 72.2305 12.225 72.2305L34.815 72.2305C36.015 72.2305 36.93 72.0805 37.56 71.7805C38.16 71.4805 38.565 71.1505 38.775 70.7905C38.985 70.4305 39.06 70.2505 39 70.2505L39 77.4505ZM26.985 57.7169L34.14 60.5969C35.25 61.0469 36.165 61.2719 36.885 61.2719C37.875 61.2719 38.58 60.8219 39 59.9219L39 66.3569C39 66.0569 38.7 65.6219 38.1 65.0519C37.5 64.4819 36.315 63.8219 34.545 63.0719L6.59999 51.3269L34.68 39.6719C36.3 39.0119 37.41 38.3819 38.01 37.7819C38.61 37.1519 38.94 36.6569 39 36.2969L39 43.7669C38.64 43.0169 38.085 42.6419 37.335 42.6419C36.705 42.6419 35.805 42.8819 34.635 43.3619L26.985 46.5119L26.985 57.7169ZM25.14 47.2319L13.125 52.1369L25.14 56.9519L25.14 47.2319Z" fill="white"/>
<defs>
<linearGradient id="paint0_linear_258_29" x1="-233.647" y1="328.926" x2="-233.647" y2="-183.511" gradientUnits="userSpaceOnUse">
<stop stop-color="#FF1A55"/>
<stop offset="0.480769" stop-color="#A21F8A"/>
</linearGradient>
</defs>
</svg>
