<svg width="65" height="350" viewBox="0 0 65 350" fill="none" xmlns="http://www.w3.org/2000/svg">
<path d="M63 0L63 350" stroke="url(#paint0_linear_258_29)" stroke-width="3"/>
<path d="M50.315 336.59C50.315 338.66 49.955 340.52 49.235 342.17C48.485 343.79 47.465 345.065 46.175 345.995C44.855 346.925 43.34 347.405 41.63 347.435L41.63 343.07C43.1 342.92 44.345 342.32 45.365 341.27C46.355 340.19 46.85 338.63 46.85 336.59C46.85 334.64 46.37 333.11 45.41 332C44.42 330.86 43.16 330.29 41.63 330.29C40.43 330.29 39.455 330.62 38.705 331.28C37.955 331.94 37.385 332.765 36.995 333.755C36.605 334.745 36.185 336.08 35.735 337.76C35.195 339.83 34.655 341.495 34.115 342.755C33.575 343.985 32.735 345.05 31.595 345.95C30.425 346.82 28.865 347.255 26.915 347.255C25.205 347.255 23.69 346.82 22.37 345.95C21.05 345.08 20.03 343.865 19.31 342.305C18.59 340.715 18.23 338.9 18.23 336.86C18.23 333.92 18.965 331.52 20.435 329.66C21.905 327.77 23.855 326.705 26.285 326.465L26.285 330.965C25.085 331.115 24.035 331.745 23.135 332.855C22.205 333.965 21.74 335.435 21.74 337.265C21.74 338.975 22.19 340.37 23.09 341.45C23.96 342.53 25.19 343.07 26.78 343.07C27.92 343.07 28.85 342.755 29.57 342.125C30.29 341.465 30.845 340.67 31.235 339.74C31.595 338.78 32.015 337.445 32.495 335.735C33.065 333.665 33.635 332 34.205 330.74C34.745 329.48 35.6 328.4 36.77 327.5C37.91 326.6 39.47 326.15 41.45 326.15C42.98 326.15 44.42 326.555 45.77 327.365C47.12 328.175 48.215 329.375 49.055 330.965C49.895 332.555 50.315 334.43 50.315 336.59ZM50.315 305.904C50.315 308.814 49.64 311.469 48.29 313.869C46.91 316.269 45.005 318.174 42.575 319.584C40.115 320.964 37.355 321.654 34.295 321.654C31.235 321.654 28.49 320.964 26.06 319.584C23.6 318.174 21.695 316.269 20.345 313.869C18.965 311.469 18.275 308.814 18.275 305.904C18.275 302.964 18.965 300.294 20.345 297.894C21.695 295.494 23.585 293.604 26.015 292.224C28.445 290.844 31.205 290.154 34.295 290.154C37.385 290.154 40.145 290.844 42.575 292.224C45.005 293.604 46.91 295.494 48.29 297.894C49.64 300.294 50.315 302.964 50.315 305.904ZM46.76 305.904C46.76 303.714 46.25 301.749 45.23 300.009C44.21 298.239 42.755 296.859 40.865 295.869C38.975 294.849 36.785 294.339 34.295 294.339C31.775 294.339 29.585 294.849 27.725 295.869C25.835 296.859 24.38 298.224 23.36 299.964C22.34 301.704 21.83 303.684 21.83 305.904C21.83 308.124 22.34 310.104 23.36 311.844C24.38 313.584 25.835 314.964 27.725 315.984C29.585 316.974 31.775 317.469 34.295 317.469C36.785 317.469 38.975 316.974 40.865 315.984C42.755 314.964 44.21 313.584 45.23 311.844C46.25 310.074 46.76 308.094 46.76 305.904ZM34.295 286.278C31.235 286.278 28.49 285.588 26.06 284.208C23.6 282.828 21.68 280.953 20.3 278.583C18.92 276.183 18.23 273.528 18.23 270.618C18.23 267.198 19.055 264.213 20.705 261.663C22.355 259.113 24.695 257.253 27.725 256.083L27.725 260.988C25.835 261.858 24.38 263.118 23.36 264.768C22.34 266.388 21.83 268.338 21.83 270.618C21.83 272.808 22.34 274.773 23.36 276.513C24.38 278.253 25.835 279.618 27.725 280.608C29.585 281.598 31.775 282.093 34.295 282.093C36.785 282.093 38.975 281.598 40.865 280.608C42.725 279.618 44.165 278.253 45.185 276.513C46.205 274.773 46.715 272.808 46.715 270.618C46.715 268.338 46.22 266.388 45.23 264.768C44.21 263.118 42.755 261.858 40.865 260.988L40.865 256.083C43.865 257.253 46.19 259.113 47.84 261.663C49.46 264.213 50.27 267.198 50.27 270.618C50.27 273.528 49.595 276.183 48.245 278.583C46.865 280.953 44.96 282.828 42.53 284.208C40.1 285.588 37.355 286.278 34.295 286.278ZM18.635 245.892L50 245.892L50 249.987L18.635 249.987L18.635 245.892ZM43.025 220.373L43.025 234.053L50 236.573L50 240.893L18.815 229.553L18.815 224.828L50 213.533L50 217.853L43.025 220.373ZM39.695 221.543L23.855 227.213L39.695 232.883L39.695 221.543ZM46.67 204.496L46.67 193.516L50 193.516L50 208.591L18.635 208.591L18.635 204.496L46.67 204.496ZM18.86 145.355L50 145.355L50 149.45L26.78 149.45L50 159.8L50 162.68L26.735 173.075L50 173.075L50 177.17L18.86 177.17L18.86 172.76L44.6 161.24L18.86 149.72L18.86 145.355ZM21.965 134.315L32.45 134.315L32.45 122.885L35.825 122.885L35.825 134.315L46.625 134.315L46.625 121.535L50 121.535L50 138.41L18.59 138.41L18.59 121.535L21.965 121.535L21.965 134.315ZM18.635 105.574C18.635 102.154 19.28 99.1987 20.57 96.7087C21.83 94.1887 23.645 92.2687 26.015 90.9487C28.385 89.5987 31.175 88.9237 34.385 88.9237C37.595 88.9237 40.385 89.5987 42.755 90.9487C45.095 92.2687 46.895 94.1887 48.155 96.7087C49.385 99.1987 50 102.154 50 105.574L50 115.339L18.635 115.339L18.635 105.574ZM46.625 105.574C46.625 101.524 45.56 98.4337 43.43 96.3037C41.27 94.1737 38.255 93.1087 34.385 93.1087C30.485 93.1087 27.44 94.1887 25.25 96.3487C23.06 98.4787 21.965 101.554 21.965 105.574L21.965 111.244L46.625 111.244L46.625 105.574ZM18.635 79.4273L50 79.4273L50 83.5223L18.635 83.5223L18.635 79.4273ZM43.025 53.9081L43.025 67.5881L50 70.1081L50 74.4281L18.815 63.0881L18.815 58.3631L50 47.0681L50 51.3881L43.025 53.9081ZM39.695 55.0781L23.855 60.7481L39.695 66.4181L39.695 55.0781Z" fill="white"/>
<defs>
<linearGradient id="paint0_linear_258_29" x1="-223.647" y1="328.926" x2="-223.647" y2="-183.511" gradientUnits="userSpaceOnUse">
<stop stop-color="#FF1A55"/>
<stop offset="0.480769" stop-color="#A21F8A"/>
</linearGradient>
</defs>
</svg>
