<svg width="320" height="25" viewBox="0 0 320 25" fill="none" xmlns="http://www.w3.org/2000/svg">
<path d="M32.5501 0.279804L25.4801 24.6748H21.9101L16.2401 5.0398L10.3601 24.6748L6.82507 24.7098L6.84261e-05 0.279804L3.39507 0.279804L8.71507 20.9648L14.5951 0.279804H18.1651L23.7651 20.8948L29.1201 0.279804H32.5501ZM39.2206 2.8698L39.2206 11.0248L48.1106 11.0248L48.1106 13.6498L39.2206 13.6498L39.2206 22.0498L49.1606 22.0498L49.1606 24.6748L36.0356 24.6748L36.0356 0.244804L49.1606 0.244804L49.1606 2.8698L39.2206 2.8698ZM66.1949 12.1098C67.0816 12.2498 67.8866 12.6115 68.6099 13.1948C69.3566 13.7781 69.9399 14.5015 70.3599 15.3648C70.8032 16.2281 71.0249 17.1498 71.0249 18.1298C71.0249 19.3665 70.7099 20.4865 70.0799 21.4898C69.4499 22.4698 68.5282 23.2515 67.3149 23.8348C66.1249 24.3948 64.7132 24.6748 63.0799 24.6748H53.9799L53.9799 0.279804L62.7299 0.279804C64.3866 0.279804 65.7982 0.559804 66.9649 1.1198C68.1316 1.65647 69.0066 2.39147 69.5899 3.3248C70.1732 4.25814 70.4649 5.30814 70.4649 6.4748C70.4649 7.92147 70.0682 9.12314 69.2749 10.0798C68.5049 11.0131 67.4782 11.6898 66.1949 12.1098ZM57.1649 10.8148H62.5199C64.0132 10.8148 65.1682 10.4648 65.9849 9.7648C66.8016 9.0648 67.2099 8.09647 67.2099 6.8598C67.2099 5.62314 66.8016 4.6548 65.9849 3.9548C65.1682 3.2548 63.9899 2.9048 62.4499 2.9048H57.1649L57.1649 10.8148ZM62.7999 22.0498C64.3866 22.0498 65.6232 21.6765 66.5099 20.9298C67.3966 20.1831 67.8399 19.1448 67.8399 17.8148C67.8399 16.4615 67.3732 15.3998 66.4399 14.6298C65.5066 13.8365 64.2582 13.4398 62.6949 13.4398H57.1649L57.1649 22.0498H62.7999ZM92.3708 0.279804C95.0308 0.279804 97.3291 0.78147 99.2658 1.7848C101.226 2.7648 102.719 4.17647 103.746 6.0198C104.796 7.86314 105.321 10.0331 105.321 12.5298C105.321 15.0265 104.796 17.1965 103.746 19.0398C102.719 20.8598 101.226 22.2598 99.2658 23.2398C97.3291 24.1965 95.0308 24.6748 92.3708 24.6748H84.7758L84.7758 0.279804L92.3708 0.279804ZM92.3708 22.0498C95.5208 22.0498 97.9241 21.2215 99.5808 19.5648C101.237 17.8848 102.066 15.5398 102.066 12.5298C102.066 9.49647 101.226 7.12814 99.5458 5.4248C97.8891 3.72147 95.4975 2.8698 92.3708 2.8698L87.9608 2.8698L87.9608 22.0498H92.3708ZM112.707 2.8698L112.707 11.0248L121.597 11.0248L121.597 13.6498L112.707 13.6498L112.707 22.0498L122.647 22.0498L122.647 24.6748L109.522 24.6748L109.522 0.244804L122.647 0.244804L122.647 2.8698L112.707 2.8698ZM147.626 0.279804L138.421 24.6748H134.746L125.541 0.279804L128.936 0.279804L136.601 21.3148L144.266 0.279804H147.626ZM154.304 2.8698L154.304 11.0248H163.194L163.194 13.6498H154.304L154.304 22.0498H164.244L164.244 24.6748H151.119L151.119 0.244804L164.244 0.244804L164.244 2.8698H154.304ZM172.248 22.0848L180.788 22.0848L180.788 24.6748L169.063 24.6748L169.063 0.279804H172.248L172.248 22.0848ZM195.23 24.9198C192.967 24.9198 190.902 24.3948 189.035 23.3448C187.169 22.2715 185.687 20.7898 184.59 18.8998C183.517 16.9865 182.98 14.8398 182.98 12.4598C182.98 10.0798 183.517 7.9448 184.59 6.0548C185.687 4.14147 187.169 2.6598 189.035 1.6098C190.902 0.53647 192.967 -0.000196815 195.23 -0.000196815C197.517 -0.000196815 199.594 0.53647 201.46 1.6098C203.327 2.6598 204.797 4.1298 205.87 6.0198C206.944 7.9098 207.48 10.0565 207.48 12.4598C207.48 14.8631 206.944 17.0098 205.87 18.8998C204.797 20.7898 203.327 22.2715 201.46 23.3448C199.594 24.3948 197.517 24.9198 195.23 24.9198ZM195.23 22.1548C196.934 22.1548 198.462 21.7581 199.815 20.9648C201.192 20.1715 202.265 19.0398 203.035 17.5698C203.829 16.0998 204.225 14.3965 204.225 12.4598C204.225 10.4998 203.829 8.79647 203.035 7.3498C202.265 5.8798 201.204 4.74814 199.85 3.9548C198.497 3.16147 196.957 2.7648 195.23 2.7648C193.504 2.7648 191.964 3.16147 190.61 3.9548C189.257 4.74814 188.184 5.8798 187.39 7.3498C186.62 8.79647 186.235 10.4998 186.235 12.4598C186.235 14.3965 186.62 16.0998 187.39 17.5698C188.184 19.0398 189.257 20.1715 190.61 20.9648C191.987 21.7581 193.527 22.1548 195.23 22.1548ZM227.995 7.4198C227.995 9.4498 227.295 11.1415 225.895 12.4948C224.518 13.8248 222.407 14.4898 219.56 14.4898L214.87 14.4898L214.87 24.6748H211.685L211.685 0.279804L219.56 0.279804C222.313 0.279804 224.402 0.944804 225.825 2.2748C227.272 3.6048 227.995 5.3198 227.995 7.4198ZM219.56 11.8648C221.333 11.8648 222.64 11.4798 223.48 10.7098C224.32 9.9398 224.74 8.84314 224.74 7.4198C224.74 4.4098 223.013 2.9048 219.56 2.9048L214.87 2.9048L214.87 11.8648L219.56 11.8648ZM256.699 0.454804L256.699 24.6748H253.514L253.514 6.6148L245.464 24.6748L243.224 24.6748L235.139 6.5798L235.139 24.6748H231.954L231.954 0.454804H235.384L244.344 20.4748L253.304 0.454804L256.699 0.454804ZM265.285 2.8698L265.285 11.0248L274.175 11.0248L274.175 13.6498L265.285 13.6498L265.285 22.0498H275.225V24.6748H262.1L262.1 0.244804L275.225 0.244804L275.225 2.8698L265.285 2.8698ZM299.224 24.6748H296.039L283.229 5.2498L283.229 24.6748H280.044L280.044 0.244804L283.229 0.244804L296.039 19.6348L296.039 0.244804L299.224 0.244804L299.224 24.6748ZM319.669 0.279804L319.669 2.8698L313.019 2.8698L313.019 24.6748H309.834L309.834 2.8698H303.149L303.149 0.279804L319.669 0.279804Z" fill="white"/>
</svg>
