<svg width="229" height="42" viewBox="0 0 229 42" fill="none" xmlns="http://www.w3.org/2000/svg">
<path d="M224.628 40L-4.63094e-05 40" stroke="url(#paint0_linear_258_53)" stroke-width="3"/>
<path d="M30.1467 9.42C30.4267 8.58 30.5667 7.92667 30.5667 7.46C30.5667 6.50333 30.1467 5.99 29.3067 5.92L34.7317 5.92C34.3817 5.99 33.9267 6.25833 33.3667 6.725C32.83 7.19167 32.3283 8.10167 31.8617 9.455L24.3017 30.84L17.5467 11.45L10.5817 30.84L3.68665 9.35C3.07998 7.39 2.19332 6.24667 1.02665 5.92L6.83665 5.92C6.18332 6.03667 5.85665 6.42167 5.85665 7.075C5.85665 7.40167 5.99665 7.985 6.27665 8.825L6.66165 10.05L11.0717 24.645L18.1767 5.255L24.9317 24.505L30.1467 9.42ZM37.3903 30C37.3903 30.07 37.5303 30.0233 37.8103 29.86C38.0903 29.6733 38.3353 29.3233 38.5453 28.81C38.7786 28.2733 38.8953 27.5033 38.8953 26.5L38.8953 9.315C38.8953 8.35833 38.7786 7.635 38.5453 7.145C38.3353 6.63167 38.0903 6.28167 37.8103 6.095C37.5303 5.90833 37.3903 5.85 37.3903 5.92L50.0603 5.92L50.0603 9.42C49.6403 8.02 48.3803 7.32 46.2803 7.32L41.4153 7.32L41.4153 17.26L47.4353 17.26C47.902 17.26 48.2986 17.19 48.6253 17.05C48.952 16.8867 49.197 16.7233 49.3603 16.56C49.5236 16.3967 49.617 16.2917 49.6403 16.245L49.6403 19.64C49.617 19.5933 49.5236 19.4883 49.3603 19.325C49.197 19.1617 48.952 19.01 48.6253 18.87C48.322 18.73 47.937 18.66 47.4703 18.66L41.4153 18.66L41.4153 28.6L46.8753 28.6C47.9253 28.6 48.8236 28.39 49.5703 27.97C50.3403 27.5267 50.8886 26.9667 51.2153 26.29L50.5853 30L37.3903 30ZM66.9765 29.405C66.3698 29.615 65.6698 29.7667 64.8765 29.86C64.1065 29.9533 63.0332 30 61.6565 30H55.8815C56.1848 29.93 56.5115 29.6733 56.8615 29.23C57.2115 28.7633 57.3865 27.8767 57.3865 26.57L57.3865 9.245C57.3865 8.03167 57.2232 7.20333 56.8965 6.76C56.5698 6.29333 56.2432 6.01333 55.9165 5.92L61.6565 5.92C63.1498 5.92 64.2815 5.99 65.0515 6.13C65.8448 6.24667 66.5332 6.43333 67.1165 6.69C68.1432 7.18 68.9365 7.86833 69.4965 8.755C70.0565 9.64167 70.3365 10.5983 70.3365 11.625C70.3365 13.1883 69.8582 14.5417 68.9015 15.685C67.9682 16.805 66.7315 17.5283 65.1915 17.855C66.2415 17.9717 67.2332 18.275 68.1665 18.765C69.1232 19.255 69.8932 19.92 70.4765 20.76C71.0832 21.6 71.3865 22.5567 71.3865 23.63C71.3865 25.1233 70.9898 26.3483 70.1965 27.305C69.4032 28.2383 68.3298 28.9383 66.9765 29.405ZM65.9965 8.37C65.5298 8.02 65.0282 7.76333 64.4915 7.6C63.9548 7.41333 63.2315 7.32 62.3215 7.32L59.9065 7.32L59.9065 17.26L62.7415 17.26C63.5815 17.26 64.2815 17.1317 64.8415 16.875C65.4015 16.6183 65.8915 16.28 66.3115 15.86C66.7548 15.4167 67.1048 14.88 67.3615 14.25C67.6182 13.62 67.7465 12.9783 67.7465 12.325C67.7465 11.5317 67.5948 10.785 67.2915 10.085C67.0115 9.385 66.5798 8.81333 65.9965 8.37ZM66.7315 19.675C66.2882 19.325 65.7398 19.0683 65.0865 18.905C64.4332 18.7417 63.5465 18.66 62.4265 18.66L59.9065 18.66L59.9065 28.6L63.2315 28.6C64.9115 28.6 66.2182 28.2033 67.1515 27.41C68.1082 26.6167 68.5865 25.3567 68.5865 23.63C68.5865 22.02 67.9682 20.7017 66.7315 19.675ZM101.229 28.04C99.0361 29.3467 96.1078 30 92.4445 30L85.5495 30C85.5495 30.07 85.6895 30.0117 85.9695 29.825C86.2495 29.615 86.4945 29.2417 86.7045 28.705C86.9378 28.1683 87.0545 27.3867 87.0545 26.36L87.0545 9.14C87.0545 8.23 86.9378 7.54167 86.7045 7.075C86.4945 6.585 86.2495 6.25833 85.9695 6.095C85.6895 5.93167 85.5495 5.87333 85.5495 5.92L92.4095 5.92C95.9795 5.92 98.8028 6.50333 100.879 7.67C102.723 8.69667 104.146 10.085 105.149 11.835C106.153 13.585 106.654 15.5567 106.654 17.75C106.654 20.13 106.176 22.195 105.219 23.945C104.286 25.6717 102.956 27.0367 101.229 28.04ZM99.8645 9.245C98.8378 8.56833 97.7411 8.07833 96.5745 7.775C95.4078 7.47167 94.0195 7.32 92.4095 7.32L89.5745 7.32L89.5745 28.6H92.4095C94.3228 28.6 95.8861 28.4367 97.0995 28.11C98.3361 27.7833 99.3978 27.2817 100.284 26.605C101.428 25.7183 102.303 24.5633 102.909 23.14C103.539 21.6933 103.854 20.0133 103.854 18.1C103.854 16.07 103.493 14.2967 102.769 12.78C102.069 11.24 101.101 10.0617 99.8645 9.245ZM111.594 30C111.594 30.07 111.734 30.0233 112.014 29.86C112.294 29.6733 112.539 29.3233 112.749 28.81C112.983 28.2733 113.099 27.5033 113.099 26.5L113.099 9.315C113.099 8.35833 112.983 7.635 112.749 7.145C112.539 6.63167 112.294 6.28167 112.014 6.095C111.734 5.90833 111.594 5.85 111.594 5.92L124.264 5.92L124.264 9.42C123.844 8.02 122.584 7.32 120.484 7.32L115.619 7.32L115.619 17.26L121.639 17.26C122.106 17.26 122.503 17.19 122.829 17.05C123.156 16.8867 123.401 16.7233 123.564 16.56C123.728 16.3967 123.821 16.2917 123.844 16.245L123.844 19.64C123.821 19.5933 123.728 19.4883 123.564 19.325C123.401 19.1617 123.156 19.01 122.829 18.87C122.526 18.73 122.141 18.66 121.674 18.66L115.619 18.66L115.619 28.6L121.079 28.6C122.129 28.6 123.028 28.39 123.774 27.97C124.544 27.5267 125.093 26.9667 125.419 26.29L124.789 30L111.594 30ZM136.456 30.42C135.242 30.42 134.076 30.2567 132.956 29.93C131.836 29.58 130.832 29.1017 129.946 28.495V24.26C130.552 25.8233 131.474 27.0133 132.711 27.83C133.971 28.6233 135.277 29.02 136.631 29.02C137.984 29.02 139.116 28.5767 140.026 27.69C140.936 26.78 141.391 25.66 141.391 24.33C141.391 23.4433 141.204 22.685 140.831 22.055C140.481 21.425 139.909 20.8417 139.116 20.305C138.322 19.745 137.202 19.1267 135.756 18.45C133.726 17.5167 132.244 16.5483 131.311 15.545C130.401 14.5183 129.946 13.2817 129.946 11.835C129.946 10.5983 130.237 9.50167 130.821 8.545C131.427 7.565 132.232 6.81833 133.236 6.305C134.262 5.76833 135.382 5.5 136.596 5.5C137.646 5.5 138.672 5.65167 139.676 5.955C140.679 6.235 141.612 6.64333 142.476 7.18L142.476 10.96C141.916 9.67667 141.064 8.685 139.921 7.985C138.801 7.26167 137.657 6.9 136.491 6.9C135.161 6.9 134.087 7.33167 133.271 8.195C132.454 9.05833 132.046 10.085 132.046 11.275C132.046 12.1383 132.291 12.885 132.781 13.515C133.271 14.1217 133.866 14.635 134.566 15.055C135.289 15.475 136.292 15.9883 137.576 16.595C138.882 17.225 139.956 17.8083 140.796 18.345C141.636 18.8817 142.336 19.5817 142.896 20.445C143.456 21.3083 143.736 22.3583 143.736 23.595C143.736 24.995 143.397 26.2083 142.721 27.235C142.067 28.2617 141.181 29.055 140.061 29.615C138.964 30.1517 137.762 30.42 136.456 30.42ZM148.542 30C148.542 30.07 148.682 30.0233 148.962 29.86C149.242 29.6733 149.498 29.3467 149.732 28.88C149.965 28.39 150.082 27.6783 150.082 26.745L150.082 9.175C150.082 8.24167 149.965 7.54167 149.732 7.075C149.522 6.585 149.277 6.25833 148.997 6.095C148.717 5.93167 148.577 5.87333 148.577 5.92L154.142 5.92C154.142 5.87333 154.002 5.93167 153.722 6.095C153.442 6.25833 153.185 6.585 152.952 7.075C152.718 7.54167 152.602 8.24167 152.602 9.175L152.602 26.745C152.602 27.6783 152.718 28.39 152.952 28.88C153.185 29.3467 153.442 29.6617 153.722 29.825C154.002 29.9883 154.142 30.0467 154.142 30L148.542 30ZM171.17 30.385C168.953 30.385 166.9 29.9183 165.01 28.985C163.12 28.0517 161.603 26.6517 160.46 24.785C159.317 22.9183 158.745 20.6433 158.745 17.96C158.745 15.58 159.282 13.445 160.355 11.555C161.452 9.665 162.98 8.18333 164.94 7.11C166.923 6.03667 169.198 5.5 171.765 5.5C173.398 5.5 174.868 5.68667 176.175 6.06C177.505 6.43333 178.555 6.84167 179.325 7.285L179.325 11.17C178.602 9.91 177.517 8.895 176.07 8.125C174.647 7.355 173.188 6.97 171.695 6.97C169.618 6.97 167.81 7.41333 166.27 8.3C164.753 9.16333 163.587 10.4 162.77 12.01C161.953 13.62 161.545 15.51 161.545 17.68C161.545 20.0367 162.012 22.055 162.945 23.735C163.902 25.415 165.162 26.675 166.725 27.515C168.288 28.355 169.992 28.775 171.835 28.775C172.675 28.775 173.538 28.6817 174.425 28.495C175.335 28.285 176.175 27.9933 176.945 27.62L176.945 21.845C176.945 21.1217 176.828 20.5617 176.595 20.165C176.362 19.745 176.105 19.4533 175.825 19.29C175.545 19.1033 175.405 19.0333 175.405 19.08L181.005 19.08C181.005 19.0333 180.865 19.08 180.585 19.22C180.305 19.36 180.048 19.6283 179.815 20.025C179.582 20.3983 179.465 20.935 179.465 21.635L179.465 28.005C178.228 28.775 176.887 29.37 175.44 29.79C174.017 30.1867 172.593 30.385 171.17 30.385ZM208.338 5.92C208.012 5.99 207.685 6.25833 207.358 6.725C207.055 7.16833 206.903 7.96167 206.903 9.105L206.903 30.98L188.983 10.085L188.983 26.85C188.983 27.97 189.182 28.7633 189.578 29.23C189.975 29.6733 190.36 29.93 190.733 30H185.798C186.125 29.93 186.452 29.6733 186.778 29.23C187.128 28.7633 187.303 27.9583 187.303 26.815L187.303 9.315C187.303 8.52167 187.035 7.79833 186.498 7.145C185.962 6.49166 185.285 6.08333 184.468 5.92L188.808 5.92L205.223 25.065L205.223 9.105C205.223 7.30833 204.617 6.24667 203.403 5.92L208.338 5.92Z" fill="white"/>
<defs>
<linearGradient id="paint0_linear_258_53" x1="22.014" y1="200.167" x2="557.3" y2="200.167" gradientUnits="userSpaceOnUse">
<stop stop-color="#FF1A55"/>
<stop offset="0.375058" stop-color="#A21F8A"/>
</linearGradient>
</defs>
</svg>
