<svg width="229" height="42" viewBox="0 0 229 42" fill="none" xmlns="http://www.w3.org/2000/svg">
<path d="M224.628 40L-4.63094e-05 40" stroke="url(#paint0_linear_258_53)" stroke-width="3"/>
<path d="M34.1717 5.605L27.1017 30H23.5317L17.8617 10.365L11.9817 30L8.44665 30.035L1.62165 5.605L5.01665 5.605L10.3367 26.29L16.2167 5.605L19.7867 5.605L25.3867 26.22L30.7417 5.605L34.1717 5.605ZM40.8422 8.195L40.8422 16.35L49.7322 16.35L49.7322 18.975L40.8422 18.975L40.8422 27.375L50.7822 27.375L50.7822 30L37.6572 30L37.6572 5.57L50.7822 5.57L50.7822 8.195L40.8422 8.195ZM67.8165 17.435C68.7032 17.575 69.5082 17.9367 70.2315 18.52C70.9782 19.1033 71.5615 19.8267 71.9815 20.69C72.4248 21.5533 72.6465 22.475 72.6465 23.455C72.6465 24.6917 72.3315 25.8117 71.7015 26.815C71.0715 27.795 70.1498 28.5767 68.9365 29.16C67.7465 29.72 66.3348 30 64.7015 30L55.6015 30L55.6015 5.605L64.3515 5.605C66.0082 5.605 67.4198 5.885 68.5865 6.445C69.7532 6.98167 70.6282 7.71667 71.2115 8.65C71.7948 9.58333 72.0865 10.6333 72.0865 11.8C72.0865 13.2467 71.6898 14.4483 70.8965 15.405C70.1265 16.3383 69.0998 17.015 67.8165 17.435ZM58.7865 16.14L64.1415 16.14C65.6348 16.14 66.7898 15.79 67.6065 15.09C68.4232 14.39 68.8315 13.4217 68.8315 12.185C68.8315 10.9483 68.4232 9.98 67.6065 9.28C66.7898 8.58 65.6115 8.23 64.0715 8.23L58.7865 8.23L58.7865 16.14ZM64.4215 27.375C66.0082 27.375 67.2448 27.0017 68.1315 26.255C69.0182 25.5083 69.4615 24.47 69.4615 23.14C69.4615 21.7867 68.9948 20.725 68.0615 19.955C67.1282 19.1617 65.8798 18.765 64.3165 18.765L58.7865 18.765L58.7865 27.375L64.4215 27.375ZM93.9924 5.605C96.6524 5.605 98.9507 6.10667 100.887 7.11C102.847 8.09 104.341 9.50166 105.367 11.345C106.417 13.1883 106.942 15.3583 106.942 17.855C106.942 20.3517 106.417 22.5217 105.367 24.365C104.341 26.185 102.847 27.585 100.887 28.565C98.9507 29.5217 96.6524 30 93.9924 30H86.3974L86.3974 5.605L93.9924 5.605ZM93.9924 27.375C97.1424 27.375 99.5457 26.5467 101.202 24.89C102.859 23.21 103.687 20.865 103.687 17.855C103.687 14.8217 102.847 12.4533 101.167 10.75C99.5107 9.04667 97.1191 8.195 93.9924 8.195H89.5824L89.5824 27.375H93.9924ZM114.328 8.195L114.328 16.35L123.218 16.35L123.218 18.975L114.328 18.975L114.328 27.375L124.268 27.375L124.268 30L111.143 30L111.143 5.57L124.268 5.57L124.268 8.195L114.328 8.195ZM136.823 30.245C135.213 30.245 133.766 29.965 132.483 29.405C131.223 28.8217 130.231 28.0283 129.508 27.025C128.784 25.9983 128.411 24.82 128.388 23.49H131.783C131.899 24.6333 132.366 25.6017 133.183 26.395C134.023 27.165 135.236 27.55 136.823 27.55C138.339 27.55 139.529 27.1767 140.393 26.43C141.279 25.66 141.723 24.68 141.723 23.49C141.723 22.5567 141.466 21.7983 140.953 21.215C140.439 20.6317 139.798 20.1883 139.028 19.885C138.258 19.5817 137.219 19.255 135.913 18.905C134.303 18.485 133.008 18.065 132.028 17.645C131.071 17.225 130.243 16.5717 129.543 15.685C128.866 14.775 128.528 13.5617 128.528 12.045C128.528 10.715 128.866 9.53667 129.543 8.51C130.219 7.48333 131.164 6.69 132.378 6.13C133.614 5.57 135.026 5.29 136.613 5.29C138.899 5.29 140.766 5.86167 142.213 7.005C143.683 8.14833 144.511 9.665 144.698 11.555H141.198C141.081 10.6217 140.591 9.805 139.728 9.105C138.864 8.38167 137.721 8.02 136.298 8.02C134.968 8.02 133.883 8.37 133.043 9.07C132.203 9.74667 131.783 10.7033 131.783 11.94C131.783 12.8267 132.028 13.55 132.518 14.11C133.031 14.67 133.649 15.1017 134.373 15.405C135.119 15.685 136.158 16.0117 137.488 16.385C139.098 16.8283 140.393 17.2717 141.373 17.715C142.353 18.135 143.193 18.8 143.893 19.71C144.593 20.5967 144.943 21.81 144.943 23.35C144.943 24.54 144.628 25.66 143.998 26.71C143.368 27.76 142.434 28.6117 141.198 29.265C139.961 29.9183 138.503 30.245 136.823 30.245ZM152.815 5.605L152.815 30H149.63L149.63 5.605L152.815 5.605ZM176.723 12.675C176.046 11.2517 175.066 10.155 173.783 9.385C172.5 8.59167 171.006 8.195 169.303 8.195C167.6 8.195 166.06 8.59167 164.683 9.385C163.33 10.155 162.256 11.275 161.463 12.745C160.693 14.1917 160.308 15.8717 160.308 17.785C160.308 19.6983 160.693 21.3783 161.463 22.825C162.256 24.2717 163.33 25.3917 164.683 26.185C166.06 26.955 167.6 27.34 169.303 27.34C171.683 27.34 173.643 26.6283 175.183 25.205C176.723 23.7817 177.621 21.8567 177.878 19.43L168.148 19.43V16.84L181.273 16.84V19.29C181.086 21.2967 180.456 23.14 179.383 24.82C178.31 26.4767 176.898 27.795 175.148 28.775C173.398 29.7317 171.45 30.21 169.303 30.21C167.04 30.21 164.975 29.685 163.108 28.635C161.241 27.5617 159.76 26.08 158.663 24.19C157.59 22.3 157.053 20.165 157.053 17.785C157.053 15.405 157.59 13.27 158.663 11.38C159.76 9.46667 161.241 7.985 163.108 6.935C164.975 5.86167 167.04 5.325 169.303 5.325C171.893 5.325 174.18 5.96667 176.163 7.25C178.17 8.53333 179.628 10.3417 180.538 12.675L176.723 12.675ZM204.664 30H201.479L188.669 10.575L188.669 30L185.484 30L185.484 5.57L188.669 5.57L201.479 24.96L201.479 5.57L204.664 5.57L204.664 30Z" fill="white"/>
<defs>
<linearGradient id="paint0_linear_258_53" x1="22.014" y1="200.167" x2="557.3" y2="200.167" gradientUnits="userSpaceOnUse">
<stop stop-color="#FF1A55"/>
<stop offset="0.375058" stop-color="#A21F8A"/>
</linearGradient>
</defs>
</svg>
