<svg width="65" height="350" viewBox="0 0 65 350" fill="none" xmlns="http://www.w3.org/2000/svg">
<path d="M63 36.3301L63 349.51" stroke="url(#paint0_linear_258_19)" stroke-width="3"/>
<path d="M18.635 302.115L50 311.205L50 315.795L24.755 323.085L50 330.645L50.045 335.19L18.635 343.965L18.635 339.6L45.23 332.76L18.635 325.2L18.635 320.61L45.14 313.41L18.635 306.525L18.635 302.115ZM21.965 293.539L32.45 293.539L32.45 282.109L35.825 282.109L35.825 293.539L46.625 293.539L46.625 280.759L50 280.759L50 297.634L18.59 297.634L18.59 280.759L21.965 280.759L21.965 293.539ZM33.845 258.857C34.025 257.717 34.49 256.682 35.24 255.752C35.99 254.792 36.92 254.042 38.03 253.502C39.14 252.932 40.325 252.647 41.585 252.647C43.175 252.647 44.615 253.052 45.905 253.862C47.165 254.672 48.17 255.857 48.92 257.417C49.64 258.947 50 260.762 50 262.862L50 274.562L18.635 274.562L18.635 263.312C18.635 261.182 18.995 259.367 19.715 257.867C20.405 256.367 21.35 255.242 22.55 254.492C23.75 253.742 25.1 253.367 26.6 253.367C28.46 253.367 30.005 253.877 31.235 254.897C32.435 255.887 33.305 257.207 33.845 258.857ZM32.18 270.467L32.18 263.582C32.18 261.662 31.73 260.177 30.83 259.127C29.93 258.077 28.685 257.552 27.095 257.552C25.505 257.552 24.26 258.077 23.36 259.127C22.46 260.177 22.01 261.692 22.01 263.672L22.01 270.467L32.18 270.467ZM46.625 263.222C46.625 261.182 46.145 259.592 45.185 258.452C44.225 257.312 42.89 256.742 41.18 256.742C39.44 256.742 38.075 257.342 37.085 258.542C36.065 259.742 35.555 261.347 35.555 263.357L35.555 270.467L46.625 270.467L46.625 263.222ZM18.635 225.203C18.635 221.783 19.28 218.828 20.57 216.338C21.83 213.818 23.645 211.898 26.015 210.578C28.385 209.228 31.175 208.553 34.385 208.553C37.595 208.553 40.385 209.228 42.755 210.578C45.095 211.898 46.895 213.818 48.155 216.338C49.385 218.828 50 221.783 50 225.203L50 234.968L18.635 234.968L18.635 225.203ZM46.625 225.203C46.625 221.153 45.56 218.063 43.43 215.933C41.27 213.803 38.255 212.738 34.385 212.738C30.485 212.738 27.44 213.818 25.25 215.978C23.06 218.108 21.965 221.183 21.965 225.203L21.965 230.873L46.625 230.873L46.625 225.203ZM21.965 199.056L32.45 199.056L32.45 187.626L35.825 187.626L35.825 199.056L46.625 199.056L46.625 186.276L50 186.276L50 203.151L18.59 203.151L18.59 186.276L21.965 186.276L21.965 199.056ZM50.315 170.135C50.315 172.205 49.955 174.065 49.235 175.715C48.485 177.335 47.465 178.61 46.175 179.54C44.855 180.47 43.34 180.95 41.63 180.98L41.63 176.615C43.1 176.465 44.345 175.865 45.365 174.815C46.355 173.735 46.85 172.175 46.85 170.135C46.85 168.185 46.37 166.655 45.41 165.545C44.42 164.405 43.16 163.835 41.63 163.835C40.43 163.835 39.455 164.165 38.705 164.825C37.955 165.485 37.385 166.31 36.995 167.3C36.605 168.29 36.185 169.625 35.735 171.305C35.195 173.375 34.655 175.04 34.115 176.3C33.575 177.53 32.735 178.595 31.595 179.495C30.425 180.365 28.865 180.8 26.915 180.8C25.205 180.8 23.69 180.365 22.37 179.495C21.05 178.625 20.03 177.41 19.31 175.85C18.59 174.26 18.23 172.445 18.23 170.405C18.23 167.465 18.965 165.065 20.435 163.205C21.905 161.315 23.855 160.25 26.285 160.01L26.285 164.51C25.085 164.66 24.035 165.29 23.135 166.4C22.205 167.51 21.74 168.98 21.74 170.81C21.74 172.52 22.19 173.915 23.09 174.995C23.96 176.075 25.19 176.615 26.78 176.615C27.92 176.615 28.85 176.3 29.57 175.67C30.29 175.01 30.845 174.215 31.235 173.285C31.595 172.325 32.015 170.99 32.495 169.28C33.065 167.21 33.635 165.545 34.205 164.285C34.745 163.025 35.6 161.945 36.77 161.045C37.91 160.145 39.47 159.695 41.45 159.695C42.98 159.695 44.42 160.1 45.77 160.91C47.12 161.72 48.215 162.92 49.055 164.51C49.895 166.1 50.315 167.975 50.315 170.135ZM18.635 149.574L50 149.574L50 153.669L18.635 153.669L18.635 149.574ZM27.725 118.835C25.895 119.705 24.485 120.965 23.495 122.615C22.475 124.265 21.965 126.185 21.965 128.375C21.965 130.565 22.475 132.545 23.495 134.315C24.485 136.055 25.925 137.435 27.815 138.455C29.675 139.445 31.835 139.94 34.295 139.94C36.755 139.94 38.915 139.445 40.775 138.455C42.635 137.435 44.075 136.055 45.095 134.315C46.085 132.545 46.58 130.565 46.58 128.375C46.58 125.315 45.665 122.795 43.835 120.815C42.005 118.835 39.53 117.68 36.41 117.35L36.41 129.86L33.08 129.86L33.08 112.985L36.23 112.985C38.81 113.225 41.18 114.035 43.34 115.415C45.47 116.795 47.165 118.61 48.425 120.86C49.655 123.11 50.27 125.615 50.27 128.375C50.27 131.285 49.595 133.94 48.245 136.34C46.865 138.74 44.96 140.645 42.53 142.055C40.1 143.435 37.355 144.125 34.295 144.125C31.235 144.125 28.49 143.435 26.06 142.055C23.6 140.645 21.695 138.74 20.345 136.34C18.965 133.94 18.275 131.285 18.275 128.375C18.275 125.045 19.1 122.105 20.75 119.555C22.4 116.975 24.725 115.1 27.725 113.93L27.725 118.835ZM50 82.9102L50 87.0052L25.025 103.475L50 103.475L50 107.57L18.59 107.57L18.59 103.475L43.52 87.0052L18.59 87.0052L18.59 82.9102L50 82.9102Z" fill="white"/>
<defs>
<linearGradient id="paint0_linear_258_19" x1="348.005" y1="334.095" x2="348.005" y2="-40.7324" gradientUnits="userSpaceOnUse">
<stop stop-color="#FF1A55"/>
<stop offset="0.548077" stop-color="#A21F8A"/>
</linearGradient>
</defs>
</svg>
