<svg width="57" height="345" viewBox="0 0 57 345" fill="none" xmlns="http://www.w3.org/2000/svg">
<path d="M55 29.3301L55 342.51" stroke="url(#paint0_linear_258_19)" stroke-width="3"/>
<path d="M12.54 307.29C11.46 306.93 10.62 306.75 10.02 306.75C8.79 306.75 8.13 307.29 8.04 308.37L8.04 301.395C8.13 301.845 8.475 302.43 9.075 303.15C9.675 303.84 10.845 304.485 12.585 305.085L40.08 314.805L15.15 323.49L40.08 332.445L12.45 341.31C9.93 342.09 8.46 343.23 8.04 344.73L8.04 337.26C8.19 338.1 8.685 338.52 9.525 338.52C9.945 338.52 10.695 338.34 11.775 337.98L13.35 337.485L32.115 331.815L7.185 322.68L31.935 313.995L12.54 307.29ZM39 297.977C39.09 297.977 39.03 297.797 38.82 297.437C38.58 297.077 38.13 296.762 37.47 296.492C36.78 296.192 35.79 296.042 34.5 296.042L12.405 296.042C11.175 296.042 10.245 296.192 9.615 296.492C8.955 296.762 8.505 297.077 8.265 297.437C8.025 297.797 7.95 297.977 8.04 297.977L8.04 281.687L12.54 281.687C10.74 282.227 9.84 283.847 9.84 286.547L9.84 292.802L22.62 292.802L22.62 285.062C22.62 284.462 22.53 283.952 22.35 283.532C22.14 283.112 21.93 282.797 21.72 282.587C21.51 282.377 21.375 282.257 21.315 282.227L25.68 282.227C25.62 282.257 25.485 282.377 25.275 282.587C25.065 282.797 24.87 283.112 24.69 283.532C24.51 283.922 24.42 284.417 24.42 285.017L24.42 292.802L37.2 292.802L37.2 285.782C37.2 284.432 36.93 283.277 36.39 282.317C35.82 281.327 35.1 280.622 34.23 280.202L39 281.012L39 297.977ZM38.235 259.937C38.505 260.717 38.7 261.617 38.82 262.637C38.94 263.627 39 265.007 39 266.777L39 274.202C38.91 273.812 38.58 273.392 38.01 272.942C37.41 272.492 36.27 272.267 34.59 272.267L12.315 272.267C10.755 272.267 9.69 272.477 9.12 272.897C8.52 273.317 8.16 273.737 8.04 274.157L8.04 266.777C8.04 264.857 8.13 263.402 8.30999 262.412C8.45999 261.392 8.69999 260.507 9.03 259.757C9.65999 258.437 10.545 257.417 11.685 256.697C12.825 255.977 14.055 255.617 15.375 255.617C17.385 255.617 19.125 256.232 20.595 257.462C22.035 258.662 22.965 260.252 23.385 262.232C23.535 260.882 23.925 259.607 24.555 258.407C25.185 257.177 26.04 256.187 27.12 255.437C28.2 254.657 29.43 254.267 30.81 254.267C32.73 254.267 34.305 254.777 35.535 255.797C36.735 256.817 37.635 258.197 38.235 259.937ZM11.19 261.197C10.74 261.797 10.41 262.442 10.2 263.132C9.96 263.822 9.84 264.752 9.84 265.922L9.84 269.027L22.62 269.027L22.62 265.382C22.62 264.302 22.455 263.402 22.125 262.682C21.795 261.962 21.36 261.332 20.82 260.792C20.25 260.222 19.56 259.772 18.75 259.442C17.94 259.112 17.115 258.947 16.275 258.947C15.255 258.947 14.295 259.142 13.395 259.532C12.495 259.892 11.76 260.447 11.19 261.197ZM25.725 260.252C25.275 260.822 24.945 261.527 24.735 262.367C24.525 263.207 24.42 264.347 24.42 265.787L24.42 269.027L37.2 269.027L37.2 264.752C37.2 262.592 36.69 260.912 35.67 259.712C34.65 258.482 33.03 257.867 30.81 257.867C28.74 257.867 27.045 258.662 25.725 260.252ZM36.48 215.898C38.16 218.718 39 222.483 39 227.193L39 236.058C39.09 236.058 39.015 235.878 38.775 235.518C38.505 235.158 38.025 234.843 37.335 234.573C36.645 234.273 35.64 234.123 34.32 234.123L12.18 234.123C11.01 234.123 10.125 234.273 9.52499 234.573C8.89499 234.843 8.47499 235.158 8.26499 235.518C8.05499 235.878 7.97999 236.058 8.03999 236.058L8.03999 227.238C8.03999 222.648 8.78999 219.018 10.29 216.348C11.61 213.978 13.395 212.148 15.645 210.858C17.895 209.568 20.43 208.923 23.25 208.923C26.31 208.923 28.965 209.538 31.215 210.768C33.435 211.968 35.19 213.678 36.48 215.898ZM12.315 217.653C11.445 218.973 10.815 220.383 10.425 221.883C10.035 223.383 9.83999 225.168 9.83999 227.238L9.83999 230.883L37.2 230.883L37.2 227.238C37.2 224.778 36.99 222.768 36.57 221.208C36.15 219.618 35.505 218.253 34.635 217.113C33.495 215.643 32.01 214.518 30.18 213.738C28.32 212.928 26.16 212.523 23.7 212.523C21.09 212.523 18.81 212.988 16.86 213.918C14.88 214.818 13.365 216.063 12.315 217.653ZM39 202.571C39.09 202.571 39.03 202.391 38.82 202.031C38.58 201.671 38.13 201.356 37.47 201.086C36.78 200.786 35.79 200.636 34.5 200.636L12.405 200.636C11.175 200.636 10.245 200.786 9.61499 201.086C8.95499 201.356 8.50499 201.671 8.26499 202.031C8.02499 202.391 7.94999 202.571 8.03999 202.571L8.03999 186.281L12.54 186.281C10.74 186.821 9.83999 188.441 9.83999 191.141L9.83999 197.396L22.62 197.396L22.62 189.656C22.62 189.056 22.53 188.546 22.35 188.126C22.14 187.706 21.93 187.391 21.72 187.181C21.51 186.971 21.375 186.851 21.315 186.821L25.68 186.821C25.62 186.851 25.485 186.971 25.275 187.181C25.065 187.391 24.87 187.706 24.69 188.126C24.51 188.516 24.42 189.011 24.42 189.611L24.42 197.396L37.2 197.396L37.2 190.376C37.2 189.026 36.93 187.871 36.39 186.911C35.82 185.921 35.1 185.216 34.23 184.796L39 185.606L39 202.571ZM39.54 170.607C39.54 172.167 39.33 173.667 38.91 175.107C38.46 176.547 37.845 177.837 37.065 178.977L31.62 178.977C33.63 178.197 35.16 177.012 36.21 175.422C37.23 173.802 37.74 172.122 37.74 170.382C37.74 168.642 37.17 167.187 36.03 166.017C34.86 164.847 33.42 164.262 31.71 164.262C30.57 164.262 29.595 164.502 28.785 164.982C27.975 165.432 27.225 166.167 26.535 167.187C25.815 168.207 25.02 169.647 24.15 171.507C22.95 174.117 21.705 176.022 20.415 177.222C19.095 178.392 17.505 178.977 15.645 178.977C14.055 178.977 12.645 178.602 11.415 177.852C10.155 177.072 9.19499 176.037 8.53499 174.747C7.84499 173.427 7.49999 171.987 7.49999 170.427C7.49999 169.077 7.69499 167.757 8.08499 166.467C8.44499 165.177 8.96999 163.977 9.65999 162.867L14.52 162.867C12.87 163.587 11.595 164.682 10.695 166.152C9.76499 167.592 9.29999 169.062 9.29999 170.562C9.29999 172.272 9.85499 173.652 10.965 174.702C12.075 175.752 13.395 176.277 14.925 176.277C16.035 176.277 16.995 175.962 17.805 175.332C18.585 174.702 19.245 173.937 19.785 173.037C20.325 172.107 20.985 170.817 21.765 169.167C22.575 167.487 23.325 166.107 24.015 165.027C24.705 163.947 25.605 163.047 26.715 162.327C27.825 161.607 29.175 161.247 30.765 161.247C32.565 161.247 34.125 161.682 35.445 162.552C36.765 163.392 37.785 164.532 38.505 165.972C39.195 167.382 39.54 168.927 39.54 170.607ZM39 155.068C39.09 155.068 39.03 154.888 38.82 154.528C38.58 154.168 38.16 153.838 37.56 153.538C36.93 153.238 36.015 153.088 34.815 153.088L12.225 153.088C11.025 153.088 10.125 153.238 9.52499 153.538C8.89499 153.808 8.47499 154.123 8.26499 154.483C8.05499 154.843 7.97999 155.023 8.03999 155.023L8.03999 147.868C7.97999 147.868 8.05499 148.048 8.26499 148.408C8.47499 148.768 8.89499 149.098 9.52499 149.398C10.125 149.698 11.025 149.848 12.225 149.848L34.815 149.848C36.015 149.848 36.93 149.698 37.56 149.398C38.16 149.098 38.565 148.768 38.775 148.408C38.985 148.048 39.06 147.868 39 147.868L39 155.068ZM39.495 125.974C39.495 128.824 38.895 131.464 37.695 133.894C36.495 136.324 34.695 138.274 32.295 139.744C29.895 141.214 26.97 141.949 23.52 141.949C20.46 141.949 17.715 141.259 15.285 139.879C12.855 138.469 10.95 136.504 9.56999 133.984C8.18999 131.434 7.49999 128.509 7.49999 125.209C7.49999 123.109 7.73999 121.219 8.21999 119.539C8.69999 117.829 9.22499 116.479 9.79499 115.489L14.79 115.489C13.17 116.419 11.865 117.814 10.875 119.674C9.88499 121.504 9.38999 123.379 9.38999 125.299C9.38999 127.969 9.95999 130.294 11.1 132.274C12.21 134.224 13.8 135.724 15.87 136.774C17.94 137.824 20.37 138.349 23.16 138.349C26.19 138.349 28.785 137.749 30.945 136.549C33.105 135.319 34.725 133.699 35.805 131.689C36.885 129.679 37.425 127.489 37.425 125.119C37.425 124.039 37.305 122.929 37.065 121.789C36.795 120.619 36.42 119.539 35.94 118.549L28.515 118.549C27.585 118.549 26.865 118.699 26.355 118.999C25.815 119.299 25.44 119.629 25.23 119.989C24.99 120.349 24.9 120.529 24.96 120.529L24.96 113.329C24.9 113.329 24.96 113.509 25.14 113.869C25.32 114.229 25.665 114.559 26.175 114.859C26.655 115.159 27.345 115.309 28.245 115.309L36.435 115.309C37.425 116.899 38.19 118.624 38.73 120.484C39.24 122.314 39.495 124.144 39.495 125.974ZM8.03999 78.1862C8.12999 78.6062 8.47499 79.0262 9.07499 79.4462C9.64499 79.8362 10.665 80.0312 12.135 80.0312L40.26 80.0312L13.395 103.071L34.95 103.071C36.39 103.071 37.41 102.816 38.01 102.306C38.58 101.796 38.91 101.301 39 100.821L39 107.166C38.91 106.746 38.58 106.326 38.01 105.906C37.41 105.456 36.375 105.231 34.905 105.231L12.405 105.231C11.385 105.231 10.455 105.576 9.61499 106.266C8.77499 106.956 8.24999 107.826 8.03999 108.876L8.03999 103.296L32.655 82.1912L12.135 82.1912C9.82499 82.1912 8.45999 82.9712 8.03999 84.5312L8.03999 78.1862Z" fill="white"/>
<defs>
<linearGradient id="paint0_linear_258_19" x1="340.005" y1="327.095" x2="340.005" y2="-47.7324" gradientUnits="userSpaceOnUse">
<stop stop-color="#FF1A55"/>
<stop offset="0.548077" stop-color="#A21F8A"/>
</linearGradient>
</defs>
</svg>
