<svg width="65" height="450" viewBox="0 0 65 450" fill="none" xmlns="http://www.w3.org/2000/svg">
<path d="M63 0L63 450" stroke="url(#paint0_linear_544_43)" stroke-width="3"/>
<path d="M18.635 403.785L50 412.875L50 417.465L24.755 424.755L50 432.315L50.045 436.86L18.635 445.635L18.635 441.27L45.23 434.43L18.635 426.87L18.635 422.28L45.14 415.08L18.635 408.195L18.635 403.785ZM21.965 395.209L32.45 395.209L32.45 383.779L35.825 383.779L35.825 395.209L46.625 395.209L46.625 382.429L50 382.429L50 399.304L18.59 399.304L18.59 382.429L21.965 382.429L21.965 395.209ZM33.845 360.527C34.025 359.387 34.49 358.352 35.24 357.422C35.99 356.462 36.92 355.712 38.03 355.172C39.14 354.602 40.325 354.317 41.585 354.317C43.175 354.317 44.615 354.722 45.905 355.532C47.165 356.342 48.17 357.527 48.92 359.087C49.64 360.617 50 362.432 50 364.532L50 376.232L18.635 376.232L18.635 364.982C18.635 362.852 18.995 361.037 19.715 359.537C20.405 358.037 21.35 356.912 22.55 356.162C23.75 355.412 25.1 355.037 26.6 355.037C28.46 355.037 30.005 355.547 31.235 356.567C32.435 357.557 33.305 358.877 33.845 360.527ZM32.18 372.137L32.18 365.252C32.18 363.332 31.73 361.847 30.83 360.797C29.93 359.747 28.685 359.222 27.095 359.222C25.505 359.222 24.26 359.747 23.36 360.797C22.46 361.847 22.01 363.362 22.01 365.342L22.01 372.137L32.18 372.137ZM46.625 364.892C46.625 362.852 46.145 361.262 45.185 360.122C44.225 358.982 42.89 358.412 41.18 358.412C39.44 358.412 38.075 359.012 37.085 360.212C36.065 361.412 35.555 363.017 35.555 365.027L35.555 372.137L46.625 372.137L46.625 364.892ZM18.635 326.873C18.635 323.453 19.28 320.498 20.57 318.008C21.83 315.488 23.645 313.568 26.015 312.248C28.385 310.898 31.175 310.223 34.385 310.223C37.595 310.223 40.385 310.898 42.755 312.248C45.095 313.568 46.895 315.488 48.155 318.008C49.385 320.498 50 323.453 50 326.873L50 336.638L18.635 336.638L18.635 326.873ZM46.625 326.873C46.625 322.823 45.56 319.733 43.43 317.603C41.27 315.473 38.255 314.408 34.385 314.408C30.485 314.408 27.44 315.488 25.25 317.648C23.06 319.778 21.965 322.853 21.965 326.873L21.965 332.543L46.625 332.543L46.625 326.873ZM21.965 300.726L32.45 300.726L32.45 289.296L35.825 289.296L35.825 300.726L46.625 300.726L46.625 287.946L50 287.946L50 304.821L18.59 304.821L18.59 287.946L21.965 287.946L21.965 300.726ZM18.635 255.83L50 267.665L50 272.39L18.635 284.225L18.635 279.86L45.68 270.005L18.635 260.15L18.635 255.83ZM21.965 247.245L32.45 247.245L32.45 235.815L35.825 235.815L35.825 247.245L46.625 247.245L46.625 234.465L50 234.465L50 251.34L18.59 251.34L18.59 234.465L21.965 234.465L21.965 247.245ZM46.67 224.173L46.67 213.193L50 213.193L50 228.268L18.635 228.268L18.635 224.173L46.67 224.173ZM50.315 194.625C50.315 197.535 49.64 200.19 48.29 202.59C46.91 204.99 45.005 206.895 42.575 208.305C40.115 209.685 37.355 210.375 34.295 210.375C31.235 210.375 28.49 209.685 26.06 208.305C23.6 206.895 21.695 204.99 20.345 202.59C18.965 200.19 18.275 197.535 18.275 194.625C18.275 191.685 18.965 189.015 20.345 186.615C21.695 184.215 23.585 182.325 26.015 180.945C28.445 179.565 31.205 178.875 34.295 178.875C37.385 178.875 40.145 179.565 42.575 180.945C45.005 182.325 46.91 184.215 48.29 186.615C49.64 189.015 50.315 191.685 50.315 194.625ZM46.76 194.625C46.76 192.435 46.25 190.47 45.23 188.73C44.21 186.96 42.755 185.58 40.865 184.59C38.975 183.57 36.785 183.06 34.295 183.06C31.775 183.06 29.585 183.57 27.725 184.59C25.835 185.58 24.38 186.945 23.36 188.685C22.34 190.425 21.83 192.405 21.83 194.625C21.83 196.845 22.34 198.825 23.36 200.565C24.38 202.305 25.835 203.685 27.725 204.705C29.585 205.695 31.775 206.19 34.295 206.19C36.785 206.19 38.975 205.695 40.865 204.705C42.755 203.685 44.21 202.305 45.23 200.565C46.25 198.795 46.76 196.815 46.76 194.625ZM27.815 152.499C30.425 152.499 32.6 153.399 34.34 155.199C36.05 156.969 36.905 159.684 36.905 163.344L36.905 169.374L50 169.374L50 173.469L18.635 173.469L18.635 163.344C18.635 159.804 19.49 157.119 21.2 155.289C22.91 153.429 25.115 152.499 27.815 152.499ZM33.53 163.344C33.53 161.064 33.035 159.384 32.045 158.304C31.055 157.224 29.645 156.684 27.815 156.684C23.945 156.684 22.01 158.904 22.01 163.344L22.01 169.374L33.53 169.374L33.53 163.344ZM18.86 115.594L50 115.594L50 119.689L26.78 119.689L50 130.039L50 132.919L26.735 143.314L50 143.314L50 147.409L18.86 147.409L18.86 142.999L44.6 131.479L18.86 119.959L18.86 115.594ZM21.965 104.554L32.45 104.554L32.45 93.1243L35.825 93.1243L35.825 104.554L46.625 104.554L46.625 91.7743L50 91.7743L50 108.649L18.59 108.649L18.59 91.7743L21.965 91.7743L21.965 104.554ZM50 60.918L50 65.013L25.025 81.483L50 81.483L50 85.578L18.59 85.578L18.59 81.483L43.52 65.013L18.59 65.013L18.59 60.918L50 60.918ZM18.635 34.6323L21.965 34.6323L21.965 43.1823L50 43.1823L50 47.2773L21.965 47.2773L21.965 55.8723L18.635 55.8723L18.635 34.6323Z" fill="white"/>
<defs>
<linearGradient id="paint0_linear_544_43" x1="-431.246" y1="427.85" x2="-431.246" y2="-110.729" gradientUnits="userSpaceOnUse">
<stop stop-color="#FF1A55"/>
<stop offset="0.548077" stop-color="#A21F8A"/>
</linearGradient>
</defs>
</svg>
