<svg width="355" height="53" viewBox="0 0 355 53" fill="none" xmlns="http://www.w3.org/2000/svg">
<path d="M354.109 51L3.97603e-05 51" stroke="url(#paint0_linear_544_42)" stroke-width="3"/>
<path d="M34.6424 14.605L27.5724 39H24.0024L18.3324 19.365L12.4524 39L8.91735 39.035L2.09235 14.605L5.48735 14.605L10.8074 35.29L16.6874 14.605H20.2574L25.8574 35.22L31.2124 14.605H34.6424ZM41.3129 17.195L41.3129 25.35L50.2029 25.35L50.2029 27.975L41.3129 27.975L41.3129 36.375L51.2529 36.375L51.2529 39L38.1279 39L38.1279 14.57L51.2529 14.57L51.2529 17.195L41.3129 17.195ZM68.2872 26.435C69.1739 26.575 69.9789 26.9367 70.7022 27.52C71.4489 28.1033 72.0322 28.8267 72.4522 29.69C72.8955 30.5533 73.1172 31.475 73.1172 32.455C73.1172 33.6917 72.8022 34.8117 72.1722 35.815C71.5422 36.795 70.6205 37.5767 69.4072 38.16C68.2172 38.72 66.8055 39 65.1722 39H56.0722L56.0722 14.605L64.8222 14.605C66.4789 14.605 67.8905 14.885 69.0572 15.445C70.2239 15.9817 71.0989 16.7167 71.6822 17.65C72.2655 18.5833 72.5572 19.6333 72.5572 20.8C72.5572 22.2467 72.1605 23.4483 71.3672 24.405C70.5972 25.3383 69.5705 26.015 68.2872 26.435ZM59.2572 25.14H64.6122C66.1055 25.14 67.2605 24.79 68.0772 24.09C68.8939 23.39 69.3022 22.4217 69.3022 21.185C69.3022 19.9483 68.8939 18.98 68.0772 18.28C67.2605 17.58 66.0822 17.23 64.5422 17.23H59.2572L59.2572 25.14ZM64.8922 36.375C66.4789 36.375 67.7155 36.0017 68.6022 35.255C69.4889 34.5083 69.9322 33.47 69.9322 32.14C69.9322 30.7867 69.4655 29.725 68.5322 28.955C67.5989 28.1617 66.3505 27.765 64.7872 27.765H59.2572L59.2572 36.375H64.8922ZM94.4631 14.605C97.1231 14.605 99.4214 15.1067 101.358 16.11C103.318 17.09 104.811 18.5017 105.838 20.345C106.888 22.1883 107.413 24.3583 107.413 26.855C107.413 29.3517 106.888 31.5217 105.838 33.365C104.811 35.185 103.318 36.585 101.358 37.565C99.4214 38.5217 97.1231 39 94.4631 39H86.8681L86.8681 14.605L94.4631 14.605ZM94.4631 36.375C97.6131 36.375 100.016 35.5467 101.673 33.89C103.33 32.21 104.158 29.865 104.158 26.855C104.158 23.8217 103.318 21.4533 101.638 19.75C99.9814 18.0467 97.5898 17.195 94.4631 17.195L90.0531 17.195L90.0531 36.375H94.4631ZM114.799 17.195L114.799 25.35L123.689 25.35L123.689 27.975L114.799 27.975L114.799 36.375L124.739 36.375L124.739 39L111.614 39L111.614 14.57L124.739 14.57L124.739 17.195L114.799 17.195ZM149.719 14.605L140.514 39H136.839L127.634 14.605L131.029 14.605L138.694 35.64L146.359 14.605H149.719ZM156.396 17.195L156.396 25.35H165.286L165.286 27.975H156.396L156.396 36.375H166.336L166.336 39H153.211L153.211 14.57L166.336 14.57L166.336 17.195H156.396ZM174.34 36.41L182.88 36.41L182.88 39L171.155 39L171.155 14.605H174.34L174.34 36.41ZM197.323 39.245C195.059 39.245 192.994 38.72 191.128 37.67C189.261 36.5967 187.779 35.115 186.683 33.225C185.609 31.3117 185.073 29.165 185.073 26.785C185.073 24.405 185.609 22.27 186.683 20.38C187.779 18.4667 189.261 16.985 191.128 15.935C192.994 14.8617 195.059 14.325 197.323 14.325C199.609 14.325 201.686 14.8617 203.553 15.935C205.419 16.985 206.889 18.455 207.963 20.345C209.036 22.235 209.573 24.3817 209.573 26.785C209.573 29.1883 209.036 31.335 207.963 33.225C206.889 35.115 205.419 36.5967 203.553 37.67C201.686 38.72 199.609 39.245 197.323 39.245ZM197.323 36.48C199.026 36.48 200.554 36.0833 201.908 35.29C203.284 34.4967 204.358 33.365 205.128 31.895C205.921 30.425 206.318 28.7217 206.318 26.785C206.318 24.825 205.921 23.1217 205.128 21.675C204.358 20.205 203.296 19.0733 201.943 18.28C200.589 17.4867 199.049 17.09 197.323 17.09C195.596 17.09 194.056 17.4867 192.703 18.28C191.349 19.0733 190.276 20.205 189.483 21.675C188.713 23.1217 188.328 24.825 188.328 26.785C188.328 28.7217 188.713 30.425 189.483 31.895C190.276 33.365 191.349 34.4967 192.703 35.29C194.079 36.0833 195.619 36.48 197.323 36.48ZM230.087 21.745C230.087 23.775 229.387 25.4667 227.987 26.82C226.611 28.15 224.499 28.815 221.652 28.815L216.962 28.815L216.962 39H213.777L213.777 14.605L221.652 14.605C224.406 14.605 226.494 15.27 227.917 16.6C229.364 17.93 230.087 19.645 230.087 21.745ZM221.652 26.19C223.426 26.19 224.732 25.805 225.572 25.035C226.412 24.265 226.832 23.1683 226.832 21.745C226.832 18.735 225.106 17.23 221.652 17.23L216.962 17.23L216.962 26.19L221.652 26.19ZM258.791 14.78L258.791 39H255.606L255.606 20.94L247.556 39L245.316 39L237.231 20.905L237.231 39H234.046L234.046 14.78H237.476L246.436 34.8L255.396 14.78L258.791 14.78ZM267.377 17.195L267.377 25.35L276.267 25.35L276.267 27.975L267.377 27.975L267.377 36.375H277.317V39H264.192L264.192 14.57L277.317 14.57L277.317 17.195L267.377 17.195ZM301.317 39H298.132L285.322 19.575L285.322 39H282.137L282.137 14.57L285.322 14.57L298.132 33.96L298.132 14.57L301.317 14.57L301.317 39ZM321.761 14.605L321.761 17.195L315.111 17.195L315.111 39H311.926L311.926 17.195H305.241L305.241 14.605L321.761 14.605Z" fill="white"/>
<defs>
<linearGradient id="paint0_linear_544_42" x1="34.7033" y1="211.167" x2="878.539" y2="211.167" gradientUnits="userSpaceOnUse">
<stop stop-color="#FF1A55"/>
<stop offset="0.375058" stop-color="#A21F8A"/>
</linearGradient>
</defs>
</svg>
