<svg width="171" height="130" viewBox="0 0 171 130" fill="none" xmlns="http://www.w3.org/2000/svg">
<g clip-path="url(#clip0_483_78)">
<path d="M32.9771 70.5227C32.8209 71.5591 32.6543 72.5954 32.4758 73.6331C30.7827 82.7725 27.3967 91.401 22.3294 99.5264C17.2503 107.652 9.81147 115.61 -0.000228305 123.402L4.56571 130C26.8966 120.861 44.4031 108.242 57.089 92.1694C69.7749 76.0854 76.1113 58.3963 76.1113 39.1021C76.1113 26.9074 72.8145 17.3437 66.2222 10.4109C59.6181 3.46638 50.9193 1.27469e-05 40.0826 1.17996e-05C28.255 1.07656e-05 18.6992 3.6332 11.4153 10.9127C4.14182 18.1909 0.511629 27.5878 0.511628 39.1021C0.511627 48.2415 3.38454 55.7653 9.13165 61.6959C14.4667 67.1798 22.4186 70.1339 32.9771 70.524L32.9771 70.5227Z" fill="white" style="mix-blend-mode:soft-light"/>
<path d="M104.022 61.6945C98.2745 55.764 95.3898 48.2402 95.3898 39.1008C95.3898 27.5865 99.0318 18.1896 106.304 10.9114C113.577 3.6332 123.132 -0.00130149 134.971 -0.00130046C145.796 -0.00129951 154.505 3.46507 161.099 10.4096C167.703 17.3437 171 26.9074 171 39.1008C171 58.395 164.652 76.0841 151.966 92.1681C139.281 108.242 121.774 120.861 99.4544 130L94.8885 123.401C104.7 115.61 112.14 107.651 117.208 99.5251C122.287 91.3997 125.671 82.7725 127.364 73.6318C127.542 72.5954 127.71 71.5591 127.866 70.5214C117.309 70.1313 109.357 67.1772 104.022 61.6932L104.022 61.6945Z" fill="white" style="mix-blend-mode:soft-light"/>
</g>
<defs>
<clipPath id="clip0_483_78">
<rect width="171" height="130" fill="white" transform="translate(171 130) rotate(-180)"/>
</clipPath>
</defs>
</svg>
